Titillium Sans Pro-Regular Italic.ufo
<glyph name="exclam" format="2">
  <advance width="228"/>
  <unicode hex="0021"/>
  <note>
exclam
</note>
  <outline>
    <contour>
      <point x="249" y="700" type="line"/>
      <point x="170" y="700" type="line"/>
      <point x="75" y="228" type="line"/>
      <point x="144" y="228" type="line"/>
    </contour>
    <contour>
      <point x="128" y="109" type="line"/>
      <point x="46" y="109" type="line"/>
      <point x="23" y="0" type="line"/>
      <point x="105" y="0" type="line"/>
    </contour>
  </outline>
</glyph>
<glyph name="quotedbl" format="2">
  <advance width="356"/>
  <unicode hex="0022"/>
  <note>
quotedbl
</note>
  <outline>
    <contour>
      <point x="241" y="730" type="line"/>
      <point x="164" y="730" type="line"/>
      <point x="121" y="508" type="line"/>
      <point x="188" y="508" type="line"/>
    </contour>
    <contour>
      <point x="395" y="730" type="line"/>
      <point x="318" y="730" type="line"/>
      <point x="275" y="508" type="line"/>
      <point x="342" y="508" type="line"/>
    </contour>
  </outline>
</glyph>
<glyph name="numbersign" format="2">
	<advance width="616"/>
	<unicode hex="0023"/>
	<note>
		numbersign
	</note>
	<outline>
		<contour>
			<point x="400" y="0" type="line"/>
			<point x="437" y="174" type="line"/>
			<point x="548" y="174" type="line"/>
			<point x="561" y="238" type="line"/>
			<point x="450" y="238" type="line"/>
			<point x="489" y="418" type="line"/>
			<point x="600" y="418" type="line"/>
			<point x="613" y="482" type="line"/>
			<point x="502" y="482" type="line"/>
			<point x="540" y="660" type="line"/>
			<point x="472" y="660" type="line"/>
			<point x="434" y="482" type="line"/>
			<point x="280" y="482" type="line"/>
			<point x="318" y="660" type="line"/>
			<point x="250" y="660" type="line"/>
			<point x="212" y="482" type="line"/>
			<point x="101" y="482" type="line"/>
			<point x="88" y="418" type="line"/>
			<point x="199" y="418" type="line"/>
			<point x="160" y="238" type="line"/>
			<point x="49" y="238" type="line"/>
			<point x="36" y="174" type="line"/>
			<point x="147" y="174" type="line"/>
			<point x="110" y="0" type="line"/>
			<point x="178" y="0" type="line"/>
			<point x="215" y="174" type="line"/>
			<point x="369" y="174" type="line"/>
			<point x="332" y="0" type="line"/>
		</contour>
		<contour>
			<point x="265" y="420" type="line"/>
			<point x="423" y="420" type="line"/>
			<point x="384" y="236" type="line"/>
			<point x="226" y="236" type="line"/>
		</contour>
	</outline>
</glyph>
<glyph name="dollar" format="2">
  <advance width="499"/>
  <unicode hex="0024"/>
  <note>
dollar
</note>
  <outline>
    <contour>
      <point x="500" y="579" type="curve"/>
      <point x="518" y="639" type="line"/>
      <point x="518" y="639"/>
      <point x="460" y="647"/>
      <point x="401" y="653" type="curve"/>
      <point x="451" y="798" type="line"/>
      <point x="400" y="798" type="line"/>
      <point x="352" y="656" type="line"/>
      <point x="330" y="656" type="line" smooth="yes"/>
      <point x="175" y="656"/>
      <point x="101" y="561"/>
      <point x="101" y="446" type="curve" smooth="yes"/>
      <point x="101" y="369"/>
      <point x="152" y="332"/>
      <point x="234" y="309" type="curve"/>
      <point x="151" y="69" type="line"/>
      <point x="89" y="72"/>
      <point x="17" y="83"/>
      <point x="17" y="83" type="curve"/>
      <point x="-3" y="24" type="line"/>
      <point x="-3" y="24"/>
      <point x="64" y="13"/>
      <point x="131" y="7" type="curve"/>
      <point x="87" y="-120" type="line"/>
      <point x="138" y="-120" type="line"/>
      <point x="180" y="4" type="line"/>
      <point x="194" y="4" type="line" smooth="yes"/>
      <point x="393" y="4"/>
      <point x="449" y="145"/>
      <point x="449" y="234" type="curve" smooth="yes"/>
      <point x="449" y="307"/>
      <point x="398" y="344"/>
      <point x="304" y="367" type="curve"/>
      <point x="379" y="591" type="line"/>
      <point x="434" y="587"/>
      <point x="500" y="579"/>
    </contour>
    <contour>
      <point x="322" y="594" type="curve" smooth="yes"/>
      <point x="331" y="594" type="line"/>
      <point x="258" y="378" type="line"/>
      <point x="205" y="395"/>
      <point x="175" y="411"/>
      <point x="175" y="458" type="curve" smooth="yes"/>
      <point x="175" y="528"/>
      <point x="217" y="594"/>
    </contour>
    <contour>
      <point x="206" y="67" type="curve" smooth="yes"/>
      <point x="201" y="67" type="line"/>
      <point x="280" y="299" type="line"/>
      <point x="343" y="284"/>
      <point x="375" y="264"/>
      <point x="375" y="220" type="curve" smooth="yes"/>
      <point x="375" y="147"/>
      <point x="325" y="67"/>
    </contour>
  </outline>
</glyph>
<glyph name="percent" format="2">
  <advance width="652"/>
  <unicode hex="0025"/>
  <note>
percent
</note>
  <outline>
    <contour>
      <point x="250" y="711" type="curve" smooth="yes"/>
      <point x="128" y="711"/>
      <point x="93" y="552"/>
      <point x="93" y="475" type="curve" smooth="yes"/>
      <point x="93" y="405"/>
      <point x="133" y="376"/>
      <point x="191" y="376" type="curve" smooth="yes"/>
      <point x="316" y="376"/>
      <point x="348" y="542"/>
      <point x="348" y="612" type="curve" smooth="yes"/>
      <point x="348" y="681"/>
      <point x="309" y="711"/>
    </contour>
    <contour>
      <point x="651" y="681" type="line"/>
      <point x="618" y="710" type="line"/>
      <point x="41" y="16" type="line"/>
      <point x="72" y="-12" type="line"/>
    </contour>
    <contour>
      <point x="243" y="653" type="curve" smooth="yes"/>
      <point x="269" y="653"/>
      <point x="282" y="640"/>
      <point x="282" y="606" type="curve" smooth="yes"/>
      <point x="282" y="566"/>
      <point x="254" y="434"/>
      <point x="198" y="434" type="curve" smooth="yes"/>
      <point x="174" y="434"/>
      <point x="159" y="445"/>
      <point x="159" y="482" type="curve" smooth="yes"/>
      <point x="159" y="525"/>
      <point x="187" y="653"/>
    </contour>
    <contour>
      <point x="504" y="325" type="curve" smooth="yes"/>
      <point x="382" y="325"/>
      <point x="347" y="166"/>
      <point x="347" y="89" type="curve" smooth="yes"/>
      <point x="347" y="19"/>
      <point x="387" y="-10"/>
      <point x="445" y="-10" type="curve" smooth="yes"/>
      <point x="570" y="-10"/>
      <point x="602" y="156"/>
      <point x="602" y="226" type="curve" smooth="yes"/>
      <point x="602" y="295"/>
      <point x="563" y="325"/>
    </contour>
    <contour>
      <point x="497" y="267" type="curve" smooth="yes"/>
      <point x="523" y="267"/>
      <point x="536" y="254"/>
      <point x="536" y="220" type="curve" smooth="yes"/>
      <point x="536" y="180"/>
      <point x="508" y="48"/>
      <point x="452" y="48" type="curve" smooth="yes"/>
      <point x="428" y="48"/>
      <point x="413" y="59"/>
      <point x="413" y="96" type="curve" smooth="yes"/>
      <point x="413" y="139"/>
      <point x="441" y="267"/>
    </contour>
  </outline>
</glyph>
<glyph name="ampersand" format="2">
  <advance width="642"/>
  <unicode hex="0026"/>
  <note>
ampersand
</note>
  <outline>
    <contour>
      <point x="397" y="714" type="curve" smooth="yes"/>
      <point x="282" y="714"/>
      <point x="208" y="644"/>
      <point x="208" y="520" type="curve" smooth="yes"/>
      <point x="208" y="480"/>
      <point x="217" y="455"/>
      <point x="235" y="421" type="curve"/>
      <point x="92" y="367"/>
      <point x="28" y="306"/>
      <point x="28" y="173" type="curve" smooth="yes"/>
      <point x="28" y="71"/>
      <point x="83" y="-10"/>
      <point x="218" y="-10" type="curve" smooth="yes"/>
      <point x="313" y="-10"/>
      <point x="385" y="30"/>
      <point x="448" y="105" type="curve"/>
      <point x="537" y="-7" type="line"/>
      <point x="593" y="36" type="line"/>
      <point x="495" y="156" type="line"/>
      <point x="526" y="200"/>
      <point x="566" y="278"/>
      <point x="585" y="344" type="curve"/>
      <point x="513" y="344" type="line"/>
      <point x="499" y="296"/>
      <point x="473" y="240"/>
      <point x="453" y="208" type="curve"/>
      <point x="343" y="373" type="line"/>
      <point x="476" y="424"/>
      <point x="540" y="487"/>
      <point x="540" y="590" type="curve" smooth="yes"/>
      <point x="540" y="677"/>
      <point x="485" y="714"/>
    </contour>
    <contour>
      <point x="285" y="518" type="curve" smooth="yes"/>
      <point x="285" y="593"/>
      <point x="320" y="650"/>
      <point x="394" y="650" type="curve" smooth="yes"/>
      <point x="438" y="650"/>
      <point x="463" y="631"/>
      <point x="463" y="587" type="curve" smooth="yes"/>
      <point x="463" y="511"/>
      <point x="424" y="465"/>
      <point x="314" y="419" type="curve"/>
      <point x="295" y="447"/>
      <point x="285" y="479"/>
    </contour>
    <contour>
      <point x="229" y="56" type="curve" smooth="yes"/>
      <point x="154" y="56"/>
      <point x="106" y="94"/>
      <point x="106" y="167" type="curve" smooth="yes"/>
      <point x="106" y="262"/>
      <point x="145" y="326"/>
      <point x="264" y="372" type="curve"/>
      <point x="409" y="155" type="line"/>
      <point x="364" y="93"/>
      <point x="297" y="56"/>
    </contour>
  </outline>
</glyph>
<glyph name="quotesingle" format="2">
  <advance width="202"/>
  <unicode hex="0027"/>
  <note>
quotesingle
</note>
  <outline>
    <contour>
      <point x="241" y="730" type="line"/>
      <point x="164" y="730" type="line"/>
      <point x="121" y="508" type="line"/>
      <point x="188" y="508" type="line"/>
    </contour>
  </outline>
</glyph>
<glyph name="parenleft" format="2">
  <advance width="265"/>
  <unicode hex="0028"/>
  <note>
parenleft
</note>
  <outline>
    <contour>
      <point x="333" y="750" type="curve"/>
      <point x="261" y="750" type="line"/>
      <point x="109" y="501"/>
      <point x="44" y="327"/>
      <point x="44" y="125" type="curve" smooth="yes"/>
      <point x="44" y="-16"/>
      <point x="75" y="-125"/>
      <point x="75" y="-125" type="curve"/>
      <point x="147" y="-125" type="line"/>
      <point x="147" y="-125"/>
      <point x="126" y="-14"/>
      <point x="126" y="117" type="curve" smooth="yes"/>
      <point x="126" y="344"/>
      <point x="196" y="493"/>
    </contour>
  </outline>
</glyph>
<glyph name="parenright" format="2">
	<advance width="265"/>
	<unicode hex="0029"/>
	<note>
		parenright
	</note>
	<outline>
		<contour>
			<point x="-41" y="-125" type="curve"/>
			<point x="31" y="-125" type="line"/>
			<point x="183" y="124"/>
			<point x="248" y="298"/>
			<point x="248" y="500" type="curve" smooth="yes"/>
			<point x="248" y="641"/>
			<point x="217" y="750"/>
			<point x="217" y="750" type="curve"/>
			<point x="145" y="750" type="line"/>
			<point x="145" y="750"/>
			<point x="166" y="639"/>
			<point x="166" y="508" type="curve" smooth="yes"/>
			<point x="166" y="281"/>
			<point x="96" y="132"/>
		</contour>
	</outline>
</glyph>
<glyph name="asterisk" format="2">
  <advance width="432"/>
  <unicode hex="002A"/>
  <note>
asterisk
</note>
  <outline>
    <contour>
      <point x="352" y="392" type="line"/>
      <point x="311" y="517" type="line"/>
      <point x="443" y="517" type="line"/>
      <point x="443" y="567" type="line"/>
      <point x="313" y="567" type="line"/>
      <point x="353" y="694" type="line"/>
      <point x="304" y="710" type="line"/>
      <point x="263" y="584" type="line"/>
      <point x="157" y="662" type="line"/>
      <point x="126" y="620" type="line"/>
      <point x="232" y="543" type="line"/>
      <point x="124" y="464" type="line"/>
      <point x="155" y="424" type="line"/>
      <point x="262" y="503" type="line"/>
      <point x="303" y="377" type="line"/>
    </contour>
  </outline>
</glyph>
<glyph name="plus" format="2">
  <advance width="560"/>
  <unicode hex="002B"/>
  <note>
plus
</note>
  <outline>
    <contour>
      <point x="260" y="319" type="line"/>
      <point x="70" y="319" type="line"/>
      <point x="56" y="251" type="line"/>
      <point x="246" y="251" type="line"/>
      <point x="204" y="53" type="line"/>
      <point x="274" y="53" type="line"/>
      <point x="316" y="251" type="line"/>
      <point x="506" y="251" type="line"/>
      <point x="520" y="319" type="line"/>
      <point x="330" y="319" type="line"/>
      <point x="372" y="517" type="line"/>
      <point x="302" y="517" type="line"/>
    </contour>
  </outline>
</glyph>
<glyph name="comma" format="2">
	<advance width="221"/>
	<unicode hex="002C"/>
	<note>
		comma
	</note>
	<outline>
		<contour>
			<point x="135" y="114" type="line"/>
			<point x="52" y="114" type="line"/>
			<point x="-44" y="-123" type="line"/>
			<point x="18" y="-123" type="line"/>
		</contour>
	</outline>
</glyph>
<glyph name="hyphen" format="2">
  <advance width="416"/>
  <unicode hex="002D"/>
  <note>
hyphen
</note>
  <outline>
    <contour>
      <point x="377" y="320" type="line"/>
      <point x="67" y="320" type="line"/>
      <point x="53" y="250" type="line"/>
      <point x="363" y="250" type="line"/>
    </contour>
  </outline>
</glyph>
<glyph name="period" format="2">
	<advance width="210"/>
	<unicode hex="002E"/>
	<note>
		period
	</note>
	<outline>
		<contour>
			<point x="119" y="114" type="line"/>
			<point x="37" y="114" type="line"/>
			<point x="13" y="0" type="line"/>
			<point x="95" y="0" type="line"/>
		</contour>
	</outline>
</glyph>
<glyph name="slash" format="2">
  <advance width="379"/>
  <unicode hex="002F"/>
  <note>
slash
</note>
  <outline>
    <contour>
      <point x="450" y="675" type="line"/>
      <point x="394" y="710" type="line"/>
      <point x="-29" y="24" type="line"/>
      <point x="25" y="-10" type="line"/>
    </contour>
  </outline>
</glyph>
<glyph name="zero" format="2">
  <advance width="591"/>
  <unicode hex="0030"/>
  <note>
zero
</note>
  <outline>
    <contour>
      <point x="375" y="670" type="curve" smooth="yes"/>
      <point x="125" y="670"/>
      <point x="61" y="342"/>
      <point x="61" y="194" type="curve" smooth="yes"/>
      <point x="61" y="51"/>
      <point x="131" y="-12"/>
      <point x="247" y="-12" type="curve" smooth="yes"/>
      <point x="494" y="-12"/>
      <point x="564" y="303"/>
      <point x="564" y="465" type="curve" smooth="yes"/>
      <point x="564" y="615"/>
      <point x="486" y="670"/>
    </contour>
    <contour>
      <point x="371" y="601" type="curve" smooth="yes"/>
      <point x="443" y="601"/>
      <point x="484" y="570"/>
      <point x="484" y="462" type="curve" smooth="yes"/>
      <point x="484" y="339"/>
      <point x="431" y="56"/>
      <point x="255" y="56" type="curve" smooth="yes"/>
      <point x="185" y="56"/>
      <point x="141" y="87"/>
      <point x="141" y="196" type="curve" smooth="yes"/>
      <point x="141" y="298"/>
      <point x="183" y="601"/>
    </contour>
  </outline>
</glyph>
<glyph name="one" format="2">
  <advance width="376"/>
  <unicode hex="0031"/>
  <note>
one
</note>
  <outline>
    <contour>
      <point x="375" y="660" type="line"/>
      <point x="308" y="660" type="line"/>
      <point x="72" y="520" type="line"/>
      <point x="97" y="459" type="line"/>
      <point x="282" y="567" type="line"/>
      <point x="162" y="0" type="line"/>
      <point x="236" y="0" type="line"/>
    </contour>
  </outline>
</glyph>
<glyph name="two" format="2">
  <advance width="511"/>
  <unicode hex="0032"/>
  <note>
two
</note>
  <outline>
    <contour>
      <point x="3" y="65" type="line"/>
      <point x="-10" y="0" type="line"/>
      <point x="409" y="0" type="line"/>
      <point x="423" y="67" type="line"/>
      <point x="93" y="67" type="line"/>
      <point x="314" y="244" type="line" smooth="yes"/>
      <point x="428" y="336"/>
      <point x="507" y="403"/>
      <point x="507" y="516" type="curve" smooth="yes"/>
      <point x="507" y="625"/>
      <point x="441" y="670"/>
      <point x="330" y="670" type="curve" smooth="yes"/>
      <point x="240" y="670"/>
      <point x="141" y="643"/>
      <point x="141" y="643" type="curve"/>
      <point x="133" y="579" type="line"/>
      <point x="133" y="579"/>
      <point x="230" y="601"/>
      <point x="306" y="601" type="curve" smooth="yes"/>
      <point x="380" y="601"/>
      <point x="427" y="581"/>
      <point x="427" y="515" type="curve" smooth="yes"/>
      <point x="427" y="441"/>
      <point x="370" y="372"/>
      <point x="264" y="283" type="curve" smooth="yes"/>
    </contour>
  </outline>
</glyph>
<glyph name="three" format="2">
	<advance width="529"/>
	<unicode hex="0033"/>
	<note>
		three
	</note>
	<outline>
		<contour>
			<point x="135" y="642" type="curve"/>
			<point x="129" y="581" type="line"/>
			<point x="129" y="581"/>
			<point x="224" y="601"/>
			<point x="302" y="601" type="curve" smooth="yes"/>
			<point x="394" y="601"/>
			<point x="427" y="572"/>
			<point x="427" y="517" type="curve" smooth="yes"/>
			<point x="427" y="424"/>
			<point x="337" y="376"/>
			<point x="280" y="376" type="curve" smooth="yes"/>
			<point x="150" y="376" type="line"/>
			<point x="136" y="310" type="line"/>
			<point x="276" y="310" type="line" smooth="yes"/>
			<point x="340" y="310"/>
			<point x="378" y="276"/>
			<point x="378" y="203" type="curve" smooth="yes"/>
			<point x="378" y="132"/>
			<point x="342" y="57"/>
			<point x="199" y="56" type="curve" smooth="yes"/>
			<point x="114" y="55"/>
			<point x="22" y="80"/>
			<point x="22" y="80" type="curve"/>
			<point x="2" y="17" type="line"/>
			<point x="2" y="17"/>
			<point x="105" y="-12"/>
			<point x="205" y="-12" type="curve" smooth="yes"/>
			<point x="407" y="-12"/>
			<point x="458" y="100"/>
			<point x="458" y="209" type="curve" smooth="yes"/>
			<point x="458" y="294"/>
			<point x="422" y="329"/>
			<point x="374" y="342" type="curve"/>
			<point x="473" y="385"/>
			<point x="507" y="445"/>
			<point x="507" y="522" type="curve" smooth="yes"/>
			<point x="507" y="614"/>
			<point x="457" y="670"/>
			<point x="325" y="670" type="curve" smooth="yes"/>
			<point x="233" y="670"/>
			<point x="135" y="642"/>
		</contour>
	</outline>
</glyph>
<glyph name="four" format="2">
  <advance width="533"/>
  <unicode hex="0034"/>
  <note>
four
</note>
  <outline>
    <contour>
      <point x="9" y="129" type="line"/>
      <point x="323" y="129" type="line"/>
      <point x="296" y="0" type="line"/>
      <point x="369" y="0" type="line"/>
      <point x="397" y="129" type="line"/>
      <point x="481" y="129" type="line"/>
      <point x="495" y="197" type="line"/>
      <point x="411" y="197" type="line"/>
      <point x="455" y="403" type="line"/>
      <point x="381" y="403" type="line"/>
      <point x="337" y="197" type="line"/>
      <point x="106" y="197" type="line"/>
      <point x="394" y="660" type="line"/>
      <point x="307" y="660" type="line"/>
      <point x="22" y="189" type="line"/>
    </contour>
  </outline>
</glyph>
<glyph name="five" format="2">
  <advance width="549"/>
  <unicode hex="0035"/>
  <note>
five
</note>
  <outline>
    <contour>
      <point x="539" y="590" type="line"/>
      <point x="553" y="660" type="line"/>
      <point x="172" y="660" type="line"/>
      <point x="82" y="317" type="line"/>
      <point x="135" y="307" type="line"/>
      <point x="135" y="307"/>
      <point x="207" y="347"/>
      <point x="292" y="347" type="curve" smooth="yes"/>
      <point x="359" y="347"/>
      <point x="413" y="326"/>
      <point x="413" y="232" type="curve" smooth="yes"/>
      <point x="413" y="146"/>
      <point x="365" y="56"/>
      <point x="206" y="56" type="curve" smooth="yes"/>
      <point x="123" y="56"/>
      <point x="31" y="80"/>
      <point x="31" y="80" type="curve"/>
      <point x="11" y="16" type="line"/>
      <point x="11" y="16"/>
      <point x="121" y="-12"/>
      <point x="213" y="-12" type="curve" smooth="yes"/>
      <point x="416" y="-12"/>
      <point x="493" y="123"/>
      <point x="493" y="246" type="curve" smooth="yes"/>
      <point x="493" y="367"/>
      <point x="418" y="416"/>
      <point x="320" y="416" type="curve" smooth="yes"/>
      <point x="235" y="416"/>
      <point x="163" y="379"/>
      <point x="163" y="379" type="curve"/>
      <point x="224" y="590" type="line"/>
    </contour>
  </outline>
</glyph>
<glyph name="six" format="2">
  <advance width="577"/>
  <unicode hex="0036"/>
  <note>
six
</note>
  <outline>
    <contour>
      <point x="560" y="590" type="curve"/>
      <point x="581" y="653" type="line"/>
      <point x="581" y="653"/>
      <point x="489" y="670"/>
      <point x="420" y="670" type="curve" smooth="yes"/>
      <point x="195" y="670"/>
      <point x="64" y="462"/>
      <point x="64" y="224" type="curve" smooth="yes"/>
      <point x="64" y="73"/>
      <point x="140" y="-12"/>
      <point x="274" y="-12" type="curve" smooth="yes"/>
      <point x="439" y="-12"/>
      <point x="520" y="112"/>
      <point x="520" y="240" type="curve" smooth="yes"/>
      <point x="520" y="357"/>
      <point x="450" y="413"/>
      <point x="346" y="413" type="curve" smooth="yes"/>
      <point x="259" y="413"/>
      <point x="165" y="372"/>
      <point x="165" y="372" type="curve"/>
      <point x="198" y="510"/>
      <point x="280" y="602"/>
      <point x="421" y="602" type="curve" smooth="yes"/>
      <point x="475" y="602"/>
      <point x="560" y="590"/>
    </contour>
    <contour>
      <point x="321" y="344" type="curve" smooth="yes"/>
      <point x="396" y="344"/>
      <point x="440" y="308"/>
      <point x="440" y="229" type="curve" smooth="yes"/>
      <point x="440" y="136"/>
      <point x="385" y="56"/>
      <point x="278" y="56" type="curve" smooth="yes"/>
      <point x="187" y="56"/>
      <point x="142" y="116"/>
      <point x="142" y="211" type="curve" smooth="yes"/>
      <point x="142" y="249"/>
      <point x="148" y="288"/>
      <point x="154" y="316" type="curve"/>
      <point x="154" y="316"/>
      <point x="245" y="344"/>
    </contour>
  </outline>
</glyph>
<glyph name="seven" format="2">
  <advance width="469"/>
  <unicode hex="0037"/>
  <note>
seven
</note>
  <outline>
    <contour>
      <point x="515" y="660" type="line"/>
      <point x="113" y="660" type="line"/>
      <point x="99" y="590" type="line"/>
      <point x="420" y="590" type="line"/>
      <point x="415" y="564" type="line"/>
      <point x="61" y="27" type="line"/>
      <point x="122" y="-12" type="line"/>
      <point x="495" y="559" type="line"/>
    </contour>
  </outline>
</glyph>
<glyph name="eight" format="2">
  <advance width="612"/>
  <unicode hex="0038"/>
  <note>
eight
</note>
  <outline>
    <contour>
      <point x="40" y="154" type="curve" smooth="yes"/>
      <point x="40" y="51"/>
      <point x="118" y="-12"/>
      <point x="272" y="-12" type="curve" smooth="yes"/>
      <point x="440" y="-12"/>
      <point x="543" y="66"/>
      <point x="543" y="202" type="curve" smooth="yes"/>
      <point x="543" y="275"/>
      <point x="499" y="315"/>
      <point x="452" y="339" type="curve"/>
      <point x="521" y="362"/>
      <point x="587" y="423"/>
      <point x="587" y="512" type="curve" smooth="yes"/>
      <point x="587" y="612"/>
      <point x="511" y="670"/>
      <point x="373" y="670" type="curve" smooth="yes"/>
      <point x="239" y="670"/>
      <point x="121" y="604"/>
      <point x="121" y="474" type="curve" smooth="yes"/>
      <point x="121" y="412"/>
      <point x="151" y="372"/>
      <point x="199" y="346" type="curve"/>
      <point x="111" y="319"/>
      <point x="40" y="250"/>
    </contour>
    <contour>
      <point x="369" y="600" type="curve" smooth="yes"/>
      <point x="456" y="600"/>
      <point x="511" y="571"/>
      <point x="511" y="506" type="curve" smooth="yes"/>
      <point x="511" y="439"/>
      <point x="463" y="399"/>
      <point x="383" y="374" type="curve"/>
      <point x="281" y="374" type="line"/>
      <point x="230" y="393"/>
      <point x="197" y="419"/>
      <point x="197" y="470" type="curve" smooth="yes"/>
      <point x="197" y="552"/>
      <point x="263" y="600"/>
    </contour>
    <contour>
      <point x="118" y="156" type="curve" smooth="yes"/>
      <point x="118" y="225"/>
      <point x="178" y="286"/>
      <point x="267" y="309" type="curve"/>
      <point x="371" y="309" type="line"/>
      <point x="424" y="293"/>
      <point x="465" y="258"/>
      <point x="465" y="198" type="curve" smooth="yes"/>
      <point x="465" y="108"/>
      <point x="399" y="58"/>
      <point x="277" y="58" type="curve" smooth="yes"/>
      <point x="194" y="58"/>
      <point x="118" y="80"/>
    </contour>
  </outline>
</glyph>
<glyph name="nine" format="2">
  <advance width="580"/>
  <unicode hex="0039"/>
  <note>
nine
</note>
  <outline>
    <contour>
      <point x="50" y="70" type="curve"/>
      <point x="29" y="7" type="line"/>
      <point x="29" y="7"/>
      <point x="145" y="-12"/>
      <point x="214" y="-12" type="curve" smooth="yes"/>
      <point x="449" y="-12"/>
      <point x="546" y="198"/>
      <point x="546" y="436" type="curve" smooth="yes"/>
      <point x="546" y="587"/>
      <point x="470" y="670"/>
      <point x="336" y="670" type="curve" smooth="yes"/>
      <point x="171" y="670"/>
      <point x="90" y="548"/>
      <point x="90" y="420" type="curve" smooth="yes"/>
      <point x="90" y="303"/>
      <point x="161" y="247"/>
      <point x="271" y="247" type="curve" smooth="yes"/>
      <point x="358" y="247"/>
      <point x="450" y="285"/>
      <point x="450" y="285" type="curve"/>
      <point x="427" y="148"/>
      <point x="350" y="56"/>
      <point x="209" y="56" type="curve" smooth="yes"/>
      <point x="155" y="56"/>
      <point x="50" y="70"/>
    </contour>
    <contour>
      <point x="289" y="316" type="curve" smooth="yes"/>
      <point x="214" y="316"/>
      <point x="170" y="352"/>
      <point x="170" y="431" type="curve" smooth="yes"/>
      <point x="170" y="524"/>
      <point x="225" y="602"/>
      <point x="332" y="602" type="curve" smooth="yes"/>
      <point x="423" y="602"/>
      <point x="468" y="544"/>
      <point x="468" y="449" type="curve" smooth="yes"/>
      <point x="468" y="411"/>
      <point x="466" y="372"/>
      <point x="461" y="344" type="curve"/>
      <point x="461" y="344"/>
      <point x="365" y="316"/>
    </contour>
  </outline>
</glyph>
<glyph name="colon" format="2">
	<advance width="214"/>
	<unicode hex="003A"/>
	<note>
		colon
	</note>
	<outline>
		<contour>
			<point x="188" y="438" type="line"/>
			<point x="106" y="438" type="line"/>
			<point x="82" y="324" type="line"/>
			<point x="164" y="324" type="line"/>
		</contour>
		<contour>
			<point x="119" y="114" type="line"/>
			<point x="37" y="114" type="line"/>
			<point x="13" y="0" type="line"/>
			<point x="95" y="0" type="line"/>
		</contour>
	</outline>
</glyph>
<glyph name="semicolon" format="2">
	<advance width="255"/>
	<unicode hex="003B"/>
	<note>
		semicolon
	</note>
	<outline>
		<contour>
			<point x="203" y="438" type="line"/>
			<point x="121" y="438" type="line"/>
			<point x="97" y="324" type="line"/>
			<point x="179" y="324" type="line"/>
		</contour>
		<contour>
			<point x="156" y="114" type="line"/>
			<point x="73" y="114" type="line"/>
			<point x="-23" y="-123" type="line"/>
			<point x="39" y="-123" type="line"/>
		</contour>
	</outline>
</glyph>
<glyph name="less" format="2">
	<advance width="560"/>
	<unicode hex="003C"/>
	<note>
		less
	</note>
	<outline>
		<contour>
			<point x="462" y="110" type="line"/>
			<point x="150" y="279" type="line"/>
			<point x="534" y="448" type="line"/>
			<point x="550" y="530" type="line"/>
			<point x="79" y="316" type="line"/>
			<point x="65" y="254" type="line"/>
			<point x="446" y="40" type="line"/>
		</contour>
	</outline>
</glyph>
<glyph name="equal" format="2">
	<advance width="560"/>
	<unicode hex="003D"/>
	<note>
		equal
	</note>
	<outline>
		<contour>
			<point x="109" y="414" type="line"/>
			<point x="95" y="346" type="line"/>
			<point x="505" y="346" type="line"/>
			<point x="519" y="414" type="line"/>
		</contour>
		<contour>
			<point x="69" y="224" type="line"/>
			<point x="55" y="156" type="line"/>
			<point x="465" y="156" type="line"/>
			<point x="479" y="224" type="line"/>
		</contour>
	</outline>
</glyph>
<glyph name="greater" format="2">
  <advance width="560"/>
  <unicode hex="003E"/>
  <note>
greater
</note>
  <outline>
    <contour>
      <point x="114" y="460" type="line"/>
      <point x="426" y="291" type="line"/>
      <point x="42" y="122" type="line"/>
      <point x="26" y="40" type="line"/>
      <point x="497" y="254" type="line"/>
      <point x="511" y="316" type="line"/>
      <point x="130" y="530" type="line"/>
    </contour>
  </outline>
</glyph>
<glyph name="question" format="2">
	<advance width="425"/>
	<unicode hex="003F"/>
	<note>
		question
	</note>
	<outline>
		<contour>
			<point x="458" y="583" type="curve" smooth="yes"/>
			<point x="458" y="672"/>
			<point x="392" y="714"/>
			<point x="289" y="714" type="curve" smooth="yes"/>
			<point x="189" y="714"/>
			<point x="113" y="684"/>
			<point x="113" y="684" type="curve"/>
			<point x="105" y="623" type="line"/>
			<point x="105" y="623"/>
			<point x="195" y="646"/>
			<point x="269" y="646" type="curve" smooth="yes"/>
			<point x="332" y="646"/>
			<point x="380" y="632"/>
			<point x="380" y="573" type="curve" smooth="yes"/>
			<point x="380" y="497"/>
			<point x="320" y="452"/>
			<point x="258" y="407" type="curve" smooth="yes"/>
			<point x="198" y="363"/>
			<point x="134" y="315"/>
			<point x="134" y="239" type="curve" smooth="yes"/>
			<point x="134" y="221"/>
			<point x="137" y="209"/>
			<point x="137" y="209" type="curve"/>
			<point x="200" y="209" type="line"/>
			<point x="208" y="244" type="line" smooth="yes"/>
			<point x="218" y="289"/>
			<point x="254" y="324"/>
			<point x="323" y="373" type="curve" smooth="yes"/>
			<point x="411" y="436"/>
			<point x="458" y="487"/>
		</contour>
		<contour>
			<point x="197" y="109" type="line"/>
			<point x="115" y="109" type="line"/>
			<point x="92" y="0" type="line"/>
			<point x="174" y="0" type="line"/>
		</contour>
	</outline>
</glyph>
<glyph name="at" format="2">
	<advance width="993"/>
	<unicode hex="0040"/>
	<note>
		at
	</note>
	<outline>
		<contour>
			<point x="706" y="-6" type="curve" smooth="yes"/>
			<point x="913" y="-6"/>
			<point x="964" y="293"/>
			<point x="964" y="424" type="curve" smooth="yes"/>
			<point x="964" y="611"/>
			<point x="858" y="723"/>
			<point x="612" y="723" type="curve" smooth="yes"/>
			<point x="151" y="723"/>
			<point x="35" y="349"/>
			<point x="35" y="119" type="curve" smooth="yes"/>
			<point x="35" y="-105"/>
			<point x="170" y="-203"/>
			<point x="411" y="-203" type="curve" smooth="yes"/>
			<point x="463" y="-203"/>
			<point x="558" y="-194"/>
			<point x="558" y="-194" type="curve"/>
			<point x="570" y="-127" type="line"/>
			<point x="570" y="-127"/>
			<point x="469" y="-137"/>
			<point x="425" y="-137" type="curve" smooth="yes"/>
			<point x="215" y="-137"/>
			<point x="113" y="-72"/>
			<point x="113" y="129" type="curve" smooth="yes"/>
			<point x="113" y="309"/>
			<point x="192" y="657"/>
			<point x="599" y="657" type="curve" smooth="yes"/>
			<point x="797" y="657"/>
			<point x="887" y="578"/>
			<point x="887" y="423" type="curve" smooth="yes"/>
			<point x="887" y="299"/>
			<point x="833" y="57"/>
			<point x="719" y="57" type="curve" smooth="yes"/>
			<point x="683" y="57"/>
			<point x="664" y="72"/>
			<point x="664" y="116" type="curve" smooth="yes"/>
			<point x="664" y="152"/>
			<point x="675" y="204"/>
			<point x="697" y="304" type="curve" smooth="yes"/>
			<point x="737" y="489" type="line"/>
			<point x="675" y="498"/>
			<point x="592" y="514"/>
			<point x="540" y="514" type="curve" smooth="yes"/>
			<point x="349" y="514"/>
			<point x="282" y="276"/>
			<point x="282" y="142" type="curve" smooth="yes"/>
			<point x="282" y="36"/>
			<point x="325" y="-8"/>
			<point x="406" y="-8" type="curve" smooth="yes"/>
			<point x="502" y="-8"/>
			<point x="591" y="95"/>
			<point x="591" y="95" type="curve"/>
			<point x="594" y="41"/>
			<point x="620" y="-6"/>
		</contour>
		<contour>
			<point x="425" y="63" type="curve" smooth="yes"/>
			<point x="385" y="63"/>
			<point x="358" y="88"/>
			<point x="358" y="149" type="curve" smooth="yes"/>
			<point x="358" y="225"/>
			<point x="397" y="449"/>
			<point x="538" y="449" type="curve" smooth="yes"/>
			<point x="591" y="449"/>
			<point x="651" y="435"/>
			<point x="651" y="435" type="curve"/>
			<point x="592" y="177" type="line"/>
			<point x="592" y="177"/>
			<point x="509" y="63"/>
		</contour>
	</outline>
</glyph>
<glyph name="B" format="2">
	<advance width="601"/>
	<unicode hex="0042"/>
	<note>
		B
	</note>
	<outline>
		<contour>
			<point x="413" y="700" type="curve" smooth="yes"/>
			<point x="181" y="700" type="line"/>
			<point x="32" y="0" type="line"/>
			<point x="292" y="0" type="line" smooth="yes"/>
			<point x="474" y="0"/>
			<point x="542" y="114"/>
			<point x="542" y="225" type="curve" smooth="yes"/>
			<point x="542" y="308"/>
			<point x="501" y="342"/>
			<point x="455" y="357" type="curve"/>
			<point x="548" y="390"/>
			<point x="584" y="477"/>
			<point x="584" y="556" type="curve" smooth="yes"/>
			<point x="584" y="663"/>
			<point x="524" y="700"/>
		</contour>
		<contour>
			<point x="193" y="391" type="line"/>
			<point x="244" y="632" type="line"/>
			<point x="395" y="632" type="line" smooth="yes"/>
			<point x="467" y="632"/>
			<point x="504" y="607"/>
			<point x="504" y="544" type="curve" smooth="yes"/>
			<point x="504" y="478"/>
			<point x="471" y="391"/>
			<point x="351" y="391" type="curve" smooth="yes"/>
		</contour>
		<contour>
			<point x="124" y="68" type="line"/>
			<point x="179" y="325" type="line"/>
			<point x="338" y="325" type="line" smooth="yes"/>
			<point x="408" y="325"/>
			<point x="460" y="304"/>
			<point x="460" y="234" type="curve" smooth="yes"/>
			<point x="460" y="144"/>
			<point x="417" y="68"/>
			<point x="278" y="68" type="curve" smooth="yes"/>
		</contour>
	</outline>
</glyph>
<glyph name="D" format="2">
  <advance width="624"/>
  <unicode hex="0044"/>
  <note>
D
</note>
  <outline>
    <contour>
      <point x="181" y="700" type="line"/>
      <point x="32" y="0" type="line"/>
      <point x="234" y="0" type="line" smooth="yes"/>
      <point x="489" y="0"/>
      <point x="606" y="261"/>
      <point x="606" y="487" type="curve" smooth="yes"/>
      <point x="606" y="616"/>
      <point x="554" y="700"/>
      <point x="383" y="700" type="curve" smooth="yes"/>
    </contour>
    <contour>
      <point x="245" y="68" type="curve" smooth="yes"/>
      <point x="124" y="68" type="line"/>
      <point x="244" y="632" type="line"/>
      <point x="384" y="632" type="line" smooth="yes"/>
      <point x="492" y="632"/>
      <point x="526" y="576"/>
      <point x="526" y="490" type="curve" smooth="yes"/>
      <point x="526" y="290"/>
      <point x="414" y="68"/>
    </contour>
  </outline>
</glyph>
<glyph name="E" format="2">
	<advance width="522"/>
	<unicode hex="0045"/>
	<note>
		E
	</note>
	<outline>
		<contour>
			<point x="571" y="700" type="line"/>
			<point x="181" y="700" type="line"/>
			<point x="32" y="0" type="line"/>
			<point x="421" y="0" type="line"/>
			<point x="435" y="68" type="line"/>
			<point x="124" y="68" type="line"/>
			<point x="178" y="323" type="line"/>
			<point x="432" y="323" type="line"/>
			<point x="446" y="389" type="line"/>
			<point x="192" y="389" type="line"/>
			<point x="244" y="632" type="line"/>
			<point x="557" y="632" type="line"/>
		</contour>
	</outline>
</glyph>
<glyph name="F" format="2">
	<advance width="509"/>
	<unicode hex="0046"/>
	<note>
		F
	</note>
	<outline>
		<contour>
			<point x="575" y="700" type="line"/>
			<point x="181" y="700" type="line"/>
			<point x="32" y="0" type="line"/>
			<point x="110" y="0" type="line"/>
			<point x="172" y="295" type="line"/>
			<point x="437" y="295" type="line"/>
			<point x="452" y="363" type="line"/>
			<point x="187" y="363" type="line"/>
			<point x="244" y="632" type="line"/>
			<point x="560" y="632" type="line"/>
		</contour>
	</outline>
</glyph>
<glyph name="H" format="2">
  <advance width="668"/>
  <unicode hex="0048"/>
  <note>
H
</note>
  <outline>
    <contour>
      <point x="178" y="321" type="line"/>
      <point x="521" y="321" type="line"/>
      <point x="452" y="0" type="line"/>
      <point x="530" y="0" type="line"/>
      <point x="679" y="700" type="line"/>
      <point x="601" y="700" type="line"/>
      <point x="536" y="391" type="line"/>
      <point x="193" y="391" type="line"/>
      <point x="259" y="700" type="line"/>
      <point x="181" y="700" type="line"/>
      <point x="32" y="0" type="line"/>
      <point x="110" y="0" type="line"/>
    </contour>
  </outline>
</glyph>
<glyph name="I" format="2">
  <advance width="248"/>
  <unicode hex="0049"/>
  <note>
I
</note>
  <outline>
    <contour>
      <point x="259" y="700" type="line"/>
      <point x="181" y="700" type="line"/>
      <point x="32" y="0" type="line"/>
      <point x="110" y="0" type="line"/>
    </contour>
  </outline>
</glyph>
<glyph name="J" format="2">
  <advance width="289"/>
  <unicode hex="004A"/>
  <note>
J
</note>
  <outline>
    <contour>
      <point x="184" y="140" type="curve" smooth="yes"/>
      <point x="303" y="700" type="line"/>
      <point x="225" y="700" type="line"/>
      <point x="109" y="152" type="line" smooth="yes"/>
      <point x="91" y="68"/>
      <point x="68" y="63"/>
      <point x="-21" y="63" type="curve"/>
      <point x="-36" y="-7" type="line"/>
      <point x="113" y="-7"/>
      <point x="156" y="10"/>
    </contour>
  </outline>
</glyph>
<glyph name="K" format="2">
	<advance width="560"/>
	<unicode hex="004B"/>
	<note>
		K
	</note>
	<outline>
		<contour>
			<point x="175" y="308" type="line"/>
			<point x="294" y="312" type="line"/>
			<point x="418" y="0" type="line"/>
			<point x="500" y="0" type="line"/>
			<point x="361" y="350" type="line"/>
			<point x="620" y="700" type="line"/>
			<point x="529" y="700" type="line"/>
			<point x="297" y="380" type="line"/>
			<point x="190" y="376" type="line"/>
			<point x="259" y="700" type="line"/>
			<point x="181" y="700" type="line"/>
			<point x="32" y="0" type="line"/>
			<point x="110" y="0" type="line"/>
		</contour>
	</outline>
</glyph>
<glyph name="M" format="2">
	<advance width="790"/>
	<unicode hex="004D"/>
	<note>
		M
	</note>
	<outline>
		<contour>
			<point x="342" y="700" type="line"/>
			<point x="181" y="700" type="line"/>
			<point x="32" y="0" type="line"/>
			<point x="110" y="0" type="line"/>
			<point x="243" y="626" type="line"/>
			<point x="272" y="626" type="line"/>
			<point x="291" y="0" type="line"/>
			<point x="396" y="0" type="line"/>
			<point x="679" y="626" type="line"/>
			<point x="708" y="626" type="line"/>
			<point x="575" y="0" type="line"/>
			<point x="653" y="0" type="line"/>
			<point x="801" y="700" type="line"/>
			<point x="639" y="700" type="line"/>
			<point x="360" y="83" type="line"/>
		</contour>
	</outline>
</glyph>
<glyph name="N" format="2">
  <advance width="651"/>
  <unicode hex="004E"/>
  <note>
N
</note>
  <outline>
    <contour>
      <point x="336" y="700" type="line"/>
      <point x="181" y="700" type="line"/>
      <point x="32" y="0" type="line"/>
      <point x="110" y="0" type="line"/>
      <point x="243" y="626" type="line"/>
      <point x="272" y="626" type="line"/>
      <point x="358" y="0" type="line"/>
      <point x="513" y="0" type="line"/>
      <point x="662" y="700" type="line"/>
      <point x="584" y="700" type="line"/>
      <point x="451" y="74" type="line"/>
      <point x="422" y="74" type="line"/>
    </contour>
  </outline>
</glyph>
<glyph name="P" format="2">
  <advance width="566"/>
  <unicode hex="0050"/>
  <note>
P
</note>
  <outline>
    <contour>
      <point x="110" y="0" type="line"/>
      <point x="159" y="233" type="line"/>
      <point x="303" y="233" type="line" smooth="yes"/>
      <point x="512" y="233"/>
      <point x="581" y="401"/>
      <point x="581" y="527" type="curve" smooth="yes"/>
      <point x="581" y="648"/>
      <point x="511" y="700"/>
      <point x="391" y="700" type="curve" smooth="yes"/>
      <point x="181" y="700" type="line"/>
      <point x="32" y="0" type="line"/>
    </contour>
    <contour>
      <point x="316" y="301" type="curve" smooth="yes"/>
      <point x="174" y="301" type="line"/>
      <point x="244" y="632" type="line"/>
      <point x="388" y="632" type="line" smooth="yes"/>
      <point x="466" y="632"/>
      <point x="501" y="603"/>
      <point x="501" y="523" type="curve" smooth="yes"/>
      <point x="501" y="423"/>
      <point x="456" y="301"/>
    </contour>
  </outline>
</glyph>
<glyph name="Q" format="2">
	<advance width="650"/>
	<unicode hex="0051"/>
	<note>
		Q
	</note>
	<outline>
		<contour>
			<point x="279" y="-10" type="curve" smooth="yes"/>
			<point x="296" y="-10"/>
			<point x="313" y="-9"/>
			<point x="353" y="-3" type="curve"/>
			<point x="416" y="-118" type="line"/>
			<point x="487" y="-77" type="line"/>
			<point x="430" y="26" type="line"/>
			<point x="579" y="108"/>
			<point x="629" y="348"/>
			<point x="629" y="484" type="curve" smooth="yes"/>
			<point x="629" y="656"/>
			<point x="526" y="710"/>
			<point x="416" y="710" type="curve" smooth="yes"/>
			<point x="128" y="710"/>
			<point x="62" y="383"/>
			<point x="62" y="211" type="curve" smooth="yes"/>
			<point x="62" y="45"/>
			<point x="163" y="-10"/>
		</contour>
		<contour>
			<point x="290" y="60" type="curve" smooth="yes"/>
			<point x="214" y="60"/>
			<point x="142" y="84"/>
			<point x="142" y="206" type="curve" smooth="yes"/>
			<point x="142" y="346"/>
			<point x="200" y="641"/>
			<point x="399" y="641" type="curve" smooth="yes"/>
			<point x="479" y="641"/>
			<point x="550" y="615"/>
			<point x="550" y="481" type="curve" smooth="yes"/>
			<point x="550" y="282"/>
			<point x="485" y="60"/>
		</contour>
	</outline>
</glyph>
<glyph name="S" format="2">
	<advance width="521"/>
	<unicode hex="0053"/>
	<note>
		S
	</note>
	<outline>
		<contour>
			<point x="527" y="618" type="curve"/>
			<point x="543" y="683" type="line"/>
			<point x="543" y="683"/>
			<point x="448" y="710"/>
			<point x="356" y="710" type="curve" smooth="yes"/>
			<point x="163" y="710"/>
			<point x="102" y="585"/>
			<point x="102" y="486" type="curve" smooth="yes"/>
			<point x="102" y="407"/>
			<point x="148" y="366"/>
			<point x="220" y="343" type="curve" smooth="yes"/>
			<point x="307" y="315" type="line" smooth="yes"/>
			<point x="365" y="296"/>
			<point x="390" y="262"/>
			<point x="390" y="212" type="curve" smooth="yes"/>
			<point x="390" y="144"/>
			<point x="357" y="58"/>
			<point x="215" y="58" type="curve" smooth="yes"/>
			<point x="144" y="58"/>
			<point x="27" y="78"/>
			<point x="27" y="78" type="curve"/>
			<point x="13" y="13" type="line"/>
			<point x="13" y="13"/>
			<point x="125" y="-10"/>
			<point x="205" y="-10" type="curve" smooth="yes"/>
			<point x="404" y="-10"/>
			<point x="466" y="120"/>
			<point x="466" y="224" type="curve" smooth="yes"/>
			<point x="466" y="303"/>
			<point x="426" y="356"/>
			<point x="334" y="384" type="curve" smooth="yes"/>
			<point x="255" y="408" type="line" smooth="yes"/>
			<point x="197" y="426"/>
			<point x="177" y="450"/>
			<point x="177" y="496" type="curve" smooth="yes"/>
			<point x="177" y="563"/>
			<point x="217" y="642"/>
			<point x="342" y="642" type="curve" smooth="yes"/>
			<point x="416" y="642"/>
			<point x="527" y="618"/>
		</contour>
	</outline>
</glyph>
<glyph name="V" format="2">
  <advance width="562"/>
  <unicode hex="0056"/>
  <note>
V
</note>
  <outline>
    <contour>
      <point x="298" y="0" type="line"/>
      <point x="633" y="700" type="line"/>
      <point x="553" y="700" type="line"/>
      <point x="253" y="74" type="line"/>
      <point x="224" y="74" type="line"/>
      <point x="203" y="700" type="line"/>
      <point x="127" y="700" type="line"/>
      <point x="152" y="0" type="line"/>
    </contour>
  </outline>
</glyph>
<glyph name="W" format="2">
	<advance width="847"/>
	<unicode hex="0057"/>
	<note>
		W
	</note>
	<outline>
		<contour>
			<point x="183" y="74" type="line"/>
			<point x="209" y="700" type="line"/>
			<point x="133" y="700" type="line"/>
			<point x="106" y="0" type="line"/>
			<point x="252" y="0" type="line"/>
			<point x="496" y="590" type="line"/>
			<point x="482" y="0" type="line"/>
			<point x="627" y="0" type="line"/>
			<point x="908" y="700" type="line"/>
			<point x="831" y="700" type="line"/>
			<point x="581" y="74" type="line"/>
			<point x="552" y="74" type="line"/>
			<point x="564" y="685" type="line"/>
			<point x="469" y="685" type="line"/>
			<point x="212" y="74" type="line"/>
		</contour>
	</outline>
</glyph>
<glyph name="X" format="2">
  <advance width="547"/>
  <unicode hex="0058"/>
  <note>
X
</note>
  <outline>
    <contour>
      <point x="252" y="352" type="line"/>
      <point x="-37" y="0" type="line"/>
      <point x="55" y="0" type="line"/>
      <point x="279" y="287" type="line"/>
      <point x="376" y="0" type="line"/>
      <point x="454" y="0" type="line"/>
      <point x="334" y="335" type="line"/>
      <point x="628" y="700" type="line"/>
      <point x="536" y="700" type="line"/>
      <point x="308" y="404" type="line"/>
      <point x="210" y="700" type="line"/>
      <point x="132" y="700" type="line"/>
    </contour>
  </outline>
</glyph>
<glyph name="Y" format="2">
	<advance width="524"/>
	<unicode hex="0059"/>
	<note>
		Y
	</note>
	<outline>
		<contour>
			<point x="230" y="294" type="line"/>
			<point x="167" y="0" type="line"/>
			<point x="244" y="0" type="line"/>
			<point x="306" y="294" type="line"/>
			<point x="608" y="700" type="line"/>
			<point x="518" y="700" type="line"/>
			<point x="283" y="376" type="line"/>
			<point x="202" y="700" type="line"/>
			<point x="127" y="700" type="line"/>
		</contour>
	</outline>
</glyph>
<glyph name="Z" format="2">
	<advance width="515"/>
	<unicode hex="005A"/>
	<note>
		Z
	</note>
	<outline>
		<contour>
			<point x="562" y="700" type="line"/>
			<point x="153" y="700" type="line"/>
			<point x="138" y="632" type="line"/>
			<point x="471" y="632" type="line"/>
			<point x="465" y="607" type="line"/>
			<point x="14" y="120" type="line"/>
			<point x="-13" y="0" type="line"/>
			<point x="418" y="0" type="line"/>
			<point x="433" y="70" type="line"/>
			<point x="78" y="70" type="line"/>
			<point x="83" y="95" type="line"/>
			<point x="535" y="583" type="line"/>
		</contour>
	</outline>
</glyph>
<glyph name="backslash" format="2">
  <advance width="642"/>
  <unicode hex="005C"/>
  <note>
backslash
</note>
  <outline>
    <contour>
      <point x="582" y="24" type="line"/>
      <point x="159" y="710" type="line"/>
      <point x="103" y="675" type="line"/>
      <point x="528" y="-10" type="line"/>
    </contour>
  </outline>
</glyph>
<glyph name="bracketright" format="2">
	<advance width="325"/>
	<unicode hex="005D"/>
	<note>
		bracketright
	</note>
	<outline>
		<contour>
			<point x="101" y="-56" type="line"/>
			<point x="-33" y="-56" type="line"/>
			<point x="-48" y="-123" type="line"/>
			<point x="162" y="-123" type="line"/>
			<point x="348" y="748" type="line"/>
			<point x="138" y="748" type="line"/>
			<point x="123" y="681" type="line"/>
			<point x="257" y="681" type="line"/>
		</contour>
	</outline>
</glyph>
<glyph name="asciicircum" format="2">
	<advance width="560"/>
	<unicode hex="005E"/>
	<note>
		asciicircum
	</note>
	<outline>
		<contour>
			<point x="159" y="319" type="line"/>
			<point x="356" y="586" type="line"/>
			<point x="442" y="319" type="line"/>
			<point x="518" y="319" type="line"/>
			<point x="399" y="660" type="line"/>
			<point x="332" y="660" type="line"/>
			<point x="75" y="319" type="line"/>
		</contour>
	</outline>
</glyph>
<glyph name="underscore" format="2">
  <advance width="557"/>
  <unicode hex="005F"/>
  <note>
underscore
</note>
  <outline>
    <contour>
      <point x="439" y="-42" type="line"/>
      <point x="-1" y="-42" type="line"/>
      <point x="-15" y="-108" type="line"/>
      <point x="425" y="-108" type="line"/>
    </contour>
  </outline>
</glyph>
<glyph name="grave" format="2">
  <advance width="342"/>
  <unicode hex="0060"/>
  <note>
grave
</note>
  <outline>
    <contour>
      <point x="294" y="591" type="line"/>
      <point x="320" y="642" type="line"/>
      <point x="125" y="740" type="line"/>
      <point x="91" y="676" type="line"/>
    </contour>
  </outline>
</glyph>
<glyph name="b" format="2">
	<advance width="505"/>
	<unicode hex="0062"/>
	<note>
		b
	</note>
	<outline>
		<contour>
			<point x="345" y="514" type="curve" smooth="yes"/>
			<point x="257" y="514"/>
			<point x="181" y="433"/>
			<point x="181" y="433" type="curve"/>
			<point x="244" y="731" type="line"/>
			<point x="173" y="730" type="line"/>
			<point x="22" y="13" type="line"/>
			<point x="22" y="13"/>
			<point x="138" y="-12"/>
			<point x="220" y="-12" type="curve" smooth="yes"/>
			<point x="399" y="-12"/>
			<point x="469" y="212"/>
			<point x="469" y="361" type="curve" smooth="yes"/>
			<point x="469" y="447"/>
			<point x="443" y="514"/>
		</contour>
		<contour>
			<point x="210" y="53" type="curve" smooth="yes"/>
			<point x="166" y="53"/>
			<point x="107" y="66"/>
			<point x="107" y="66" type="curve"/>
			<point x="163" y="337" type="line"/>
			<point x="163" y="337"/>
			<point x="236" y="443"/>
			<point x="328" y="443" type="curve" smooth="yes"/>
			<point x="379" y="443"/>
			<point x="393" y="408"/>
			<point x="393" y="356" type="curve" smooth="yes"/>
			<point x="393" y="242"/>
			<point x="346" y="53"/>
		</contour>
	</outline>
</glyph>
<glyph name="c" format="2">
  <advance width="422"/>
  <unicode hex="0063"/>
  <note>
c
</note>
  <outline>
    <contour>
      <point x="308" y="514" type="curve" smooth="yes"/>
      <point x="89" y="514"/>
      <point x="38" y="271"/>
      <point x="38" y="153" type="curve" smooth="yes"/>
      <point x="38" y="34"/>
      <point x="89" y="-12"/>
      <point x="194" y="-12" type="curve" smooth="yes"/>
      <point x="249" y="-12"/>
      <point x="328" y="2"/>
      <point x="328" y="2" type="curve"/>
      <point x="340" y="65" type="line"/>
      <point x="340" y="65"/>
      <point x="266" y="55"/>
      <point x="210" y="55" type="curve" smooth="yes"/>
      <point x="143" y="55"/>
      <point x="114" y="71"/>
      <point x="114" y="156" type="curve" smooth="yes"/>
      <point x="114" y="232"/>
      <point x="137" y="447"/>
      <point x="311" y="447" type="curve" smooth="yes"/>
      <point x="349" y="447"/>
      <point x="417" y="438"/>
      <point x="417" y="438" type="curve"/>
      <point x="436" y="499" type="line"/>
      <point x="436" y="499"/>
      <point x="353" y="514"/>
    </contour>
  </outline>
</glyph>
<glyph name="g" format="2">
	<advance width="473"/>
	<unicode hex="0067"/>
	<note>
		g
	</note>
	<outline>
		<contour>
			<point x="150" y="-240" type="curve" smooth="yes"/>
			<point x="303" y="-240"/>
			<point x="402" y="-188"/>
			<point x="402" y="-55" type="curve" smooth="yes"/>
			<point x="402" y="8"/>
			<point x="374" y="47"/>
			<point x="287" y="62" type="curve" smooth="yes"/>
			<point x="179" y="81" type="line" smooth="yes"/>
			<point x="150" y="86"/>
			<point x="142" y="94"/>
			<point x="142" y="107" type="curve" smooth="yes"/>
			<point x="142" y="133"/>
			<point x="173" y="177"/>
			<point x="173" y="177" type="curve"/>
			<point x="173" y="177"/>
			<point x="192" y="174"/>
			<point x="206" y="174" type="curve" smooth="yes"/>
			<point x="346" y="174"/>
			<point x="417" y="272"/>
			<point x="417" y="371" type="curve" smooth="yes"/>
			<point x="417" y="403"/>
			<point x="409" y="425"/>
			<point x="400" y="440" type="curve"/>
			<point x="489" y="440" type="line"/>
			<point x="504" y="504" type="line"/>
			<point x="356" y="498" type="line"/>
			<point x="356" y="498"/>
			<point x="312" y="514"/>
			<point x="260" y="514" type="curve" smooth="yes"/>
			<point x="131" y="514"/>
			<point x="59" y="419"/>
			<point x="59" y="313" type="curve" smooth="yes"/>
			<point x="59" y="252"/>
			<point x="84" y="214"/>
			<point x="128" y="193" type="curve"/>
			<point x="128" y="193"/>
			<point x="70" y="140"/>
			<point x="70" y="95" type="curve" smooth="yes"/>
			<point x="70" y="77"/>
			<point x="76" y="63"/>
			<point x="86" y="52" type="curve"/>
			<point x="19" y="9"/>
			<point x="-50" y="-27"/>
			<point x="-50" y="-110" type="curve" smooth="yes"/>
			<point x="-50" y="-193"/>
			<point x="4" y="-240"/>
		</contour>
		<contour>
			<point x="213" y="236" type="curve" smooth="yes"/>
			<point x="152" y="236"/>
			<point x="131" y="269"/>
			<point x="131" y="316" type="curve" smooth="yes"/>
			<point x="131" y="385"/>
			<point x="174" y="452"/>
			<point x="256" y="452" type="curve" smooth="yes"/>
			<point x="321" y="452"/>
			<point x="345" y="422"/>
			<point x="345" y="367" type="curve" smooth="yes"/>
			<point x="345" y="306"/>
			<point x="305" y="236"/>
		</contour>
		<contour>
			<point x="170" y="10" type="curve" smooth="yes"/>
			<point x="255" y="-7" type="line" smooth="yes"/>
			<point x="303" y="-17"/>
			<point x="328" y="-35"/>
			<point x="328" y="-77" type="curve" smooth="yes"/>
			<point x="328" y="-148"/>
			<point x="268" y="-178"/>
			<point x="161" y="-178" type="curve" smooth="yes"/>
			<point x="61" y="-178"/>
			<point x="21" y="-154"/>
			<point x="21" y="-105" type="curve" smooth="yes"/>
			<point x="21" y="-52"/>
			<point x="60" y="-23"/>
			<point x="126" y="22" type="curve"/>
			<point x="136" y="18"/>
			<point x="147" y="15"/>
		</contour>
	</outline>
</glyph>
<glyph name="i" format="2">
  <advance width="220"/>
  <unicode hex="0069"/>
  <note>
i
</note>
  <outline>
    <contour>
      <point x="242" y="700" type="line"/>
      <point x="169" y="700" type="line"/>
      <point x="148" y="603" type="line"/>
      <point x="221" y="603" type="line"/>
    </contour>
    <contour>
      <point x="200" y="500" type="line"/>
      <point x="126" y="500" type="line"/>
      <point x="19" y="0" type="line"/>
      <point x="94" y="0" type="line"/>
    </contour>
  </outline>
</glyph>
<glyph name="j" format="2">
	<advance width="220"/>
	<unicode hex="006A"/>
	<note>
		j
	</note>
	<outline>
		<contour>
			<point x="241" y="700" type="line"/>
			<point x="168" y="700" type="line"/>
			<point x="147" y="603" type="line"/>
			<point x="220" y="603" type="line"/>
		</contour>
		<contour>
			<point x="200" y="500" type="line"/>
			<point x="126" y="500" type="line"/>
			<point x="18" y="-4" type="line" smooth="yes"/>
			<point x="-2" y="-100"/>
			<point x="-27" y="-123"/>
			<point x="-139" y="-182" type="curve"/>
			<point x="-122" y="-240" type="line"/>
			<point x="23" y="-172"/>
			<point x="67" y="-128"/>
			<point x="93" y="-5" type="curve" smooth="yes"/>
		</contour>
	</outline>
</glyph>
<glyph name="k" format="2">
  <advance width="462"/>
  <unicode hex="006B"/>
  <note>
k
</note>
  <outline>
    <contour>
      <point x="174" y="730" type="line"/>
      <point x="19" y="0" type="line"/>
      <point x="93" y="0" type="line"/>
      <point x="144" y="240" type="line"/>
      <point x="230" y="243" type="line"/>
      <point x="323" y="0" type="line"/>
      <point x="400" y="0" type="line"/>
      <point x="293" y="281" type="line"/>
      <point x="481" y="500" type="line"/>
      <point x="391" y="500" type="line"/>
      <point x="231" y="309" type="line"/>
      <point x="157" y="305" type="line"/>
      <point x="248" y="730" type="line"/>
    </contour>
  </outline>
</glyph>
<glyph name="q" format="2">
  <advance width="507"/>
  <unicode hex="0071"/>
  <note>
q
</note>
  <outline>
    <contour>
      <point x="158" y="-12" type="curve" smooth="yes"/>
      <point x="247" y="-12"/>
      <point x="326" y="73"/>
      <point x="326" y="73" type="curve"/>
      <point x="262" y="-230" type="line"/>
      <point x="333" y="-230" type="line"/>
      <point x="484" y="489" type="line"/>
      <point x="484" y="489"/>
      <point x="362" y="514"/>
      <point x="281" y="514" type="curve" smooth="yes"/>
      <point x="117" y="514"/>
      <point x="37" y="310"/>
      <point x="37" y="145" type="curve" smooth="yes"/>
      <point x="37" y="45"/>
      <point x="70" y="-12"/>
    </contour>
    <contour>
      <point x="293" y="449" type="curve" smooth="yes"/>
      <point x="339" y="449"/>
      <point x="399" y="436"/>
      <point x="399" y="436" type="curve"/>
      <point x="343" y="167" type="line"/>
      <point x="343" y="167"/>
      <point x="266" y="59"/>
      <point x="183" y="59" type="curve" smooth="yes"/>
      <point x="132" y="59"/>
      <point x="113" y="86"/>
      <point x="113" y="140" type="curve" smooth="yes"/>
      <point x="113" y="296"/>
      <point x="174" y="449"/>
    </contour>
  </outline>
</glyph>
<glyph name="s" format="2">
  <advance width="426"/>
  <unicode hex="0073"/>
  <note>
s
</note>
  <outline>
    <contour>
      <point x="394" y="433" type="curve"/>
      <point x="409" y="497" type="line"/>
      <point x="409" y="497"/>
      <point x="310" y="514"/>
      <point x="237" y="514" type="curve" smooth="yes"/>
      <point x="113" y="514"/>
      <point x="68" y="439"/>
      <point x="68" y="354" type="curve" smooth="yes"/>
      <point x="68" y="295"/>
      <point x="99" y="261"/>
      <point x="158" y="243" type="curve" smooth="yes"/>
      <point x="227" y="222" type="line" smooth="yes"/>
      <point x="281" y="206"/>
      <point x="294" y="196"/>
      <point x="294" y="157" type="curve" smooth="yes"/>
      <point x="294" y="83"/>
      <point x="250" y="55"/>
      <point x="170" y="55" type="curve" smooth="yes"/>
      <point x="107" y="55"/>
      <point x="17" y="68"/>
      <point x="17" y="68" type="curve"/>
      <point x="4" y="4" type="line"/>
      <point x="4" y="4"/>
      <point x="97" y="-12"/>
      <point x="162" y="-12" type="curve" smooth="yes"/>
      <point x="310" y="-12"/>
      <point x="367" y="61"/>
      <point x="367" y="171" type="curve" smooth="yes"/>
      <point x="367" y="232"/>
      <point x="342" y="264"/>
      <point x="272" y="284" type="curve" smooth="yes"/>
      <point x="203" y="304" type="line" smooth="yes"/>
      <point x="160" y="316"/>
      <point x="142" y="329"/>
      <point x="142" y="368" type="curve" smooth="yes"/>
      <point x="142" y="413"/>
      <point x="163" y="449"/>
      <point x="238" y="449" type="curve" smooth="yes"/>
      <point x="301" y="449"/>
      <point x="394" y="433"/>
    </contour>
  </outline>
</glyph>
<glyph name="t" format="2">
  <advance width="345"/>
  <unicode hex="0074"/>
  <note>
t
</note>
  <outline>
    <contour>
      <point x="143" y="108" type="curve" smooth="yes"/>
      <point x="216" y="435" type="line"/>
      <point x="362" y="435" type="line"/>
      <point x="375" y="500" type="line"/>
      <point x="230" y="500" type="line"/>
      <point x="262" y="653" type="line"/>
      <point x="189" y="653" type="line"/>
      <point x="156" y="500" type="line"/>
      <point x="75" y="500" type="line"/>
      <point x="61" y="435" type="line"/>
      <point x="142" y="435" type="line"/>
      <point x="69" y="104" type="line" smooth="yes"/>
      <point x="52" y="25"/>
      <point x="75" y="-12"/>
      <point x="163" y="-12" type="curve" smooth="yes"/>
      <point x="214" y="-12"/>
      <point x="262" y="-2"/>
      <point x="262" y="-2" type="curve"/>
      <point x="270" y="61" type="line"/>
      <point x="270" y="61"/>
      <point x="215" y="55"/>
      <point x="183" y="55" type="curve" smooth="yes"/>
      <point x="134" y="55"/>
      <point x="134" y="66"/>
    </contour>
  </outline>
</glyph>
<glyph name="u" format="2">
  <advance width="503"/>
  <unicode hex="0075"/>
  <note>
u
</note>
  <outline>
    <contour>
      <point x="377" y="0" type="line"/>
      <point x="483" y="500" type="line"/>
      <point x="409" y="500" type="line"/>
      <point x="339" y="166" type="line"/>
      <point x="339" y="166"/>
      <point x="260" y="59"/>
      <point x="187" y="59" type="curve" smooth="yes"/>
      <point x="148" y="59"/>
      <point x="123" y="84"/>
      <point x="123" y="131" type="curve" smooth="yes"/>
      <point x="123" y="165"/>
      <point x="135" y="217"/>
      <point x="142" y="249" type="curve" smooth="yes"/>
      <point x="196" y="500" type="line"/>
      <point x="122" y="500" type="line"/>
      <point x="67" y="244" type="line" smooth="yes"/>
      <point x="59" y="208"/>
      <point x="47" y="155"/>
      <point x="47" y="114" type="curve" smooth="yes"/>
      <point x="47" y="39"/>
      <point x="83" y="-12"/>
      <point x="156" y="-12" type="curve" smooth="yes"/>
      <point x="253" y="-12"/>
      <point x="326" y="81"/>
      <point x="326" y="81" type="curve"/>
      <point x="312" y="0" type="line"/>
    </contour>
  </outline>
</glyph>
<glyph name="v" format="2">
	<advance width="460"/>
	<unicode hex="0076"/>
	<note>
		v
	</note>
	<outline>
		<contour>
			<point x="171" y="65" type="line"/>
			<point x="161" y="500" type="line"/>
			<point x="88" y="500" type="line"/>
			<point x="102" y="0" type="line"/>
			<point x="239" y="0" type="line"/>
			<point x="492" y="500" type="line"/>
			<point x="414" y="500" type="line"/>
			<point x="196" y="65" type="line"/>
		</contour>
	</outline>
</glyph>
<glyph name="w" format="2">
  <advance width="721"/>
  <unicode hex="0077"/>
  <note>
w
</note>
  <outline>
    <contour>
      <point x="150" y="65" type="line"/>
      <point x="160" y="500" type="line"/>
      <point x="87" y="500" type="line"/>
      <point x="78" y="0" type="line"/>
      <point x="212" y="0" type="line"/>
      <point x="393" y="391" type="line"/>
      <point x="399" y="0" type="line"/>
      <point x="529" y="0" type="line"/>
      <point x="743" y="500" type="line"/>
      <point x="669" y="500" type="line"/>
      <point x="486" y="65" type="line"/>
      <point x="462" y="65" type="line"/>
      <point x="455" y="490" type="line"/>
      <point x="371" y="490" type="line"/>
      <point x="174" y="65" type="line"/>
    </contour>
  </outline>
</glyph>
<glyph name="x" format="2">
	<advance width="445"/>
	<unicode hex="0078"/>
	<note>
		x
	</note>
	<outline>
		<contour>
			<point x="182" y="261" type="line"/>
			<point x="-36" y="0" type="line"/>
			<point x="48" y="0" type="line"/>
			<point x="209" y="195" type="line"/>
			<point x="287" y="0" type="line"/>
			<point x="362" y="0" type="line"/>
			<point x="263" y="241" type="line"/>
			<point x="480" y="500" type="line"/>
			<point x="394" y="500" type="line"/>
			<point x="235" y="306" type="line"/>
			<point x="160" y="500" type="line"/>
			<point x="85" y="500" type="line"/>
		</contour>
	</outline>
</glyph>
<glyph name="y" format="2">
	<advance width="458"/>
	<unicode hex="0079"/>
	<note>
		y
	</note>
	<outline>
		<contour>
			<point x="170" y="65" type="line"/>
			<point x="160" y="500" type="line"/>
			<point x="87" y="500" type="line"/>
			<point x="101" y="0" type="line"/>
			<point x="163" y="0" type="line"/>
			<point x="47" y="-230" type="line"/>
			<point x="121" y="-230" type="line"/>
			<point x="490" y="500" type="line"/>
			<point x="413" y="500" type="line"/>
			<point x="194" y="65" type="line"/>
		</contour>
	</outline>
</glyph>
<glyph name="z" format="2">
	<advance width="431"/>
	<unicode hex="007A"/>
	<note>
		z
	</note>
	<outline>
		<contour>
			<point x="444" y="500" type="line"/>
			<point x="99" y="500" type="line"/>
			<point x="87" y="433" type="line"/>
			<point x="337" y="433" type="line"/>
			<point x="332" y="413" type="line"/>
			<point x="2" y="82" type="line"/>
			<point x="-13" y="0" type="line"/>
			<point x="333" y="0" type="line"/>
			<point x="345" y="67" type="line"/>
			<point x="95" y="67" type="line"/>
			<point x="100" y="87" type="line"/>
			<point x="428" y="417" type="line"/>
		</contour>
	</outline>
</glyph>
<glyph name="braceleft" format="2">
  <advance width="353"/>
  <unicode hex="007B"/>
  <note>
braceleft
</note>
  <outline>
    <contour>
      <point x="198" y="168" type="curve" smooth="yes"/>
      <point x="218" y="251"/>
      <point x="201" y="289"/>
      <point x="123" y="313" type="curve"/>
      <point x="211" y="337"/>
      <point x="240" y="361"/>
      <point x="258" y="446" type="curve" smooth="yes"/>
      <point x="265" y="479"/>
      <point x="270" y="541"/>
      <point x="277" y="574" type="curve" smooth="yes"/>
      <point x="291" y="644"/>
      <point x="322" y="684"/>
      <point x="415" y="689" type="curve"/>
      <point x="427" y="754" type="line"/>
      <point x="292" y="749"/>
      <point x="231" y="705"/>
      <point x="204" y="582" type="curve" smooth="yes"/>
      <point x="197" y="545"/>
      <point x="191" y="484"/>
      <point x="185" y="452" type="curve" smooth="yes"/>
      <point x="173" y="395"/>
      <point x="135" y="361"/>
      <point x="54" y="343" type="curve"/>
      <point x="42" y="282" type="line"/>
      <point x="113" y="261"/>
      <point x="137" y="227"/>
      <point x="125" y="170" type="curve" smooth="yes"/>
      <point x="119" y="141"/>
      <point x="100" y="95"/>
      <point x="91" y="56" type="curve" smooth="yes"/>
      <point x="66" y="-63"/>
      <point x="106" y="-124"/>
      <point x="243" y="-129" type="curve"/>
      <point x="255" y="-64" type="line"/>
      <point x="163" y="-59"/>
      <point x="151" y="-21"/>
      <point x="166" y="48" type="curve" smooth="yes"/>
      <point x="173" y="84"/>
      <point x="189" y="129"/>
    </contour>
  </outline>
</glyph>
<glyph name="bar" format="2">
  <advance width="246"/>
  <unicode hex="007C"/>
  <note>
bar
</note>
  <outline>
    <contour>
      <point x="262" y="730" type="line"/>
      <point x="188" y="730" type="line"/>
      <point x="-16" y="-230" type="line"/>
      <point x="58" y="-230" type="line"/>
    </contour>
  </outline>
</glyph>
<glyph name="braceright" format="2">
	<advance width="354"/>
	<unicode hex="007D"/>
	<note>
		braceright
	</note>
	<outline>
		<contour>
			<point x="182" y="457" type="curve" smooth="yes"/>
			<point x="162" y="374"/>
			<point x="179" y="336"/>
			<point x="257" y="312" type="curve"/>
			<point x="169" y="288"/>
			<point x="140" y="264"/>
			<point x="122" y="179" type="curve" smooth="yes"/>
			<point x="115" y="146"/>
			<point x="110" y="84"/>
			<point x="103" y="51" type="curve" smooth="yes"/>
			<point x="89" y="-19"/>
			<point x="58" y="-59"/>
			<point x="-35" y="-64" type="curve"/>
			<point x="-47" y="-129" type="line"/>
			<point x="88" y="-124"/>
			<point x="149" y="-80"/>
			<point x="176" y="43" type="curve" smooth="yes"/>
			<point x="183" y="80"/>
			<point x="189" y="141"/>
			<point x="195" y="173" type="curve" smooth="yes"/>
			<point x="207" y="230"/>
			<point x="245" y="264"/>
			<point x="326" y="282" type="curve"/>
			<point x="338" y="343" type="line"/>
			<point x="267" y="364"/>
			<point x="243" y="398"/>
			<point x="255" y="455" type="curve" smooth="yes"/>
			<point x="261" y="484"/>
			<point x="280" y="530"/>
			<point x="289" y="569" type="curve" smooth="yes"/>
			<point x="314" y="688"/>
			<point x="274" y="749"/>
			<point x="137" y="754" type="curve"/>
			<point x="125" y="689" type="line"/>
			<point x="217" y="684"/>
			<point x="229" y="646"/>
			<point x="214" y="577" type="curve" smooth="yes"/>
			<point x="207" y="541"/>
			<point x="191" y="496"/>
		</contour>
	</outline>
</glyph>
<glyph name="asciitilde" format="2">
  <advance width="560"/>
  <unicode hex="007E"/>
  <note>
asciitilde
</note>
  <outline>
    <contour>
      <point x="520" y="288" type="curve"/>
      <point x="501" y="333" type="line"/>
      <point x="501" y="333"/>
      <point x="426" y="287"/>
      <point x="389" y="287" type="curve" smooth="yes"/>
      <point x="343" y="287"/>
      <point x="258" y="348"/>
      <point x="202" y="348" type="curve" smooth="yes"/>
      <point x="148" y="348"/>
      <point x="53" y="278"/>
      <point x="53" y="278" type="curve"/>
      <point x="72" y="233" type="line"/>
      <point x="72" y="233"/>
      <point x="146" y="280"/>
      <point x="186" y="280" type="curve" smooth="yes"/>
      <point x="228" y="280"/>
      <point x="317" y="218"/>
      <point x="373" y="218" type="curve" smooth="yes"/>
      <point x="427" y="218"/>
      <point x="520" y="288"/>
    </contour>
  </outline>
</glyph>
<glyph name="exclamdown" format="2">
	<advance width="219"/>
	<unicode hex="00A1"/>
	<note>
		exclamdown
	</note>
	<outline>
		<contour>
			<point x="96" y="391" type="line"/>
			<point x="178" y="391" type="line"/>
			<point x="201" y="500" type="line"/>
			<point x="119" y="500" type="line"/>
		</contour>
		<contour>
			<point x="-25" y="-200" type="line"/>
			<point x="54" y="-200" type="line"/>
			<point x="149" y="272" type="line"/>
			<point x="80" y="272" type="line"/>
		</contour>
	</outline>
</glyph>
<glyph name="cent" format="2">
	<advance width="448"/>
	<unicode hex="00A2"/>
	<note>
		cent
	</note>
	<outline>
		<contour>
			<point x="196" y="74" type="curve"/>
			<point x="172" y="-43" type="line"/>
			<point x="237" y="-43" type="line"/>
			<point x="262" y="76" type="line"/>
			<point x="304" y="78"/>
			<point x="366" y="87"/>
			<point x="366" y="87" type="curve"/>
			<point x="376" y="148" type="line"/>
			<point x="376" y="148"/>
			<point x="301" y="141"/>
			<point x="251" y="141" type="curve" smooth="yes"/>
			<point x="168" y="141"/>
			<point x="134" y="162"/>
			<point x="134" y="222" type="curve" smooth="yes"/>
			<point x="134" y="266"/>
			<point x="141" y="435"/>
			<point x="293" y="435" type="curve" smooth="yes"/>
			<point x="343" y="435"/>
			<point x="421" y="428"/>
			<point x="421" y="428" type="curve"/>
			<point x="436" y="488" type="line"/>
			<point x="436" y="488"/>
			<point x="381" y="499"/>
			<point x="338" y="500" type="curve"/>
			<point x="364" y="621" type="line"/>
			<point x="299" y="621" type="line"/>
			<point x="274" y="503" type="line"/>
			<point x="116" y="494"/>
			<point x="54" y="337"/>
			<point x="54" y="211" type="curve" smooth="yes"/>
			<point x="54" y="121"/>
			<point x="104" y="79"/>
		</contour>
	</outline>
</glyph>
<glyph name="sterling" format="2">
  <advance width="478"/>
  <unicode hex="00A3"/>
  <note>
sterling
</note>
  <outline>
    <contour>
      <point x="481" y="592" type="curve"/>
      <point x="495" y="653" type="line"/>
      <point x="495" y="653"/>
      <point x="418" y="670"/>
      <point x="365" y="670" type="curve" smooth="yes"/>
      <point x="262" y="670"/>
      <point x="210" y="634"/>
      <point x="181" y="501" type="curve" smooth="yes"/>
      <point x="163" y="417" type="line"/>
      <point x="96" y="417" type="line"/>
      <point x="83" y="353" type="line"/>
      <point x="150" y="353" type="line"/>
      <point x="89" y="66" type="line"/>
      <point x="4" y="66" type="line"/>
      <point x="-10" y="0" type="line"/>
      <point x="310" y="0" type="line"/>
      <point x="396" y="18" type="line"/>
      <point x="396" y="82" type="line"/>
      <point x="316" y="66" type="line"/>
      <point x="162" y="66" type="line"/>
      <point x="223" y="353" type="line"/>
      <point x="394" y="353" type="line"/>
      <point x="407" y="417" type="line"/>
      <point x="236" y="417" type="line"/>
      <point x="247" y="467" type="line" smooth="yes"/>
      <point x="270" y="574"/>
      <point x="295" y="603"/>
      <point x="358" y="603" type="curve" smooth="yes"/>
      <point x="403" y="603"/>
      <point x="481" y="592"/>
    </contour>
  </outline>
</glyph>
<glyph name="currency" format="2">
	<advance width="545"/>
	<unicode hex="00A4"/>
	<note>
		currency
	</note>
	<outline>
		<contour>
			<point x="352" y="136" type="curve"/>
			<point x="407" y="65" type="line"/>
			<point x="464" y="111" type="line"/>
			<point x="407" y="181" type="line"/>
			<point x="442" y="220"/>
			<point x="465" y="273"/>
			<point x="465" y="323" type="curve" smooth="yes"/>
			<point x="465" y="344"/>
			<point x="461" y="364"/>
			<point x="453" y="383" type="curve"/>
			<point x="538" y="453" type="line"/>
			<point x="495" y="509" type="line"/>
			<point x="410" y="438" type="line"/>
			<point x="385" y="457"/>
			<point x="354" y="467"/>
			<point x="318" y="467" type="curve" smooth="yes"/>
			<point x="281" y="467"/>
			<point x="239" y="454"/>
			<point x="207" y="435" type="curve"/>
			<point x="152" y="506" type="line"/>
			<point x="95" y="461" type="line"/>
			<point x="151" y="391" type="line"/>
			<point x="117" y="351"/>
			<point x="95" y="295"/>
			<point x="95" y="246" type="curve" smooth="yes"/>
			<point x="95" y="225"/>
			<point x="99" y="205"/>
			<point x="106" y="188" type="curve"/>
			<point x="22" y="118" type="line"/>
			<point x="65" y="62" type="line"/>
			<point x="150" y="133" type="line"/>
			<point x="174" y="114"/>
			<point x="204" y="105"/>
			<point x="241" y="105" type="curve" smooth="yes"/>
			<point x="277" y="105"/>
			<point x="319" y="117"/>
		</contour>
		<contour>
			<point x="255" y="171" type="curve" smooth="yes"/>
			<point x="200" y="171"/>
			<point x="162" y="210"/>
			<point x="162" y="262" type="curve" smooth="yes"/>
			<point x="162" y="335"/>
			<point x="233" y="401"/>
			<point x="304" y="401" type="curve" smooth="yes"/>
			<point x="359" y="401"/>
			<point x="397" y="361"/>
			<point x="397" y="309" type="curve" smooth="yes"/>
			<point x="397" y="236"/>
			<point x="325" y="171"/>
		</contour>
	</outline>
</glyph>
<glyph name="yen" format="2">
	<advance width="572"/>
	<unicode hex="00A5"/>
	<note>
		yen
	</note>
	<outline>
		<contour>
			<point x="191" y="0" type="line"/>
			<point x="269" y="0" type="line"/>
			<point x="295" y="123" type="line"/>
			<point x="455" y="123" type="line"/>
			<point x="469" y="187" type="line"/>
			<point x="309" y="187" type="line"/>
			<point x="325" y="262" type="line"/>
			<point x="485" y="262" type="line"/>
			<point x="498" y="326" type="line"/>
			<point x="370" y="326" type="line"/>
			<point x="629" y="660" type="line"/>
			<point x="537" y="660" type="line"/>
			<point x="299" y="342" type="line"/>
			<point x="190" y="660" type="line"/>
			<point x="111" y="660" type="line"/>
			<point x="228" y="326" type="line"/>
			<point x="100" y="326" type="line"/>
			<point x="87" y="262" type="line"/>
			<point x="247" y="262" type="line"/>
			<point x="231" y="187" type="line"/>
			<point x="71" y="187" type="line"/>
			<point x="57" y="123" type="line"/>
			<point x="217" y="123" type="line"/>
		</contour>
	</outline>
</glyph>
<glyph name="brokenbar" format="2">
	<advance width="246"/>
	<unicode hex="00A6"/>
	<note>
		brokenbar
	</note>
	<outline>
		<contour>
			<point x="263" y="730" type="line"/>
			<point x="189" y="730" type="line"/>
			<point x="110" y="360" type="line"/>
			<point x="184" y="360" type="line"/>
		</contour>
		<contour>
			<point x="138" y="140" type="line"/>
			<point x="64" y="140" type="line"/>
			<point x="-15" y="-230" type="line"/>
			<point x="59" y="-230" type="line"/>
		</contour>
	</outline>
</glyph>
<glyph name="section" format="2">
	<advance width="478"/>
	<unicode hex="00A7"/>
	<note>
		section
	</note>
	<outline>
		<contour>
			<point x="473" y="634" type="curve"/>
			<point x="490" y="697" type="line"/>
			<point x="490" y="697"/>
			<point x="399" y="714"/>
			<point x="335" y="714" type="curve" smooth="yes"/>
			<point x="196" y="714"/>
			<point x="124" y="627"/>
			<point x="124" y="517" type="curve" smooth="yes"/>
			<point x="124" y="488"/>
			<point x="136" y="458"/>
			<point x="149" y="445" type="curve"/>
			<point x="109" y="407"/>
			<point x="64" y="338"/>
			<point x="64" y="289" type="curve" smooth="yes"/>
			<point x="64" y="213"/>
			<point x="106" y="186"/>
			<point x="193" y="168" type="curve" smooth="yes"/>
			<point x="273" y="151"/>
			<point x="312" y="140"/>
			<point x="312" y="95" type="curve" smooth="yes"/>
			<point x="312" y="28"/>
			<point x="267" y="-26"/>
			<point x="173" y="-26" type="curve" smooth="yes"/>
			<point x="120" y="-26"/>
			<point x="18" y="-11"/>
			<point x="18" y="-11" type="curve"/>
			<point x="-2" y="-74" type="line"/>
			<point x="-2" y="-74"/>
			<point x="101" y="-91"/>
			<point x="163" y="-91" type="curve" smooth="yes"/>
			<point x="329" y="-91"/>
			<point x="387" y="11"/>
			<point x="387" y="121" type="curve" smooth="yes"/>
			<point x="387" y="147"/>
			<point x="380" y="163"/>
			<point x="367" y="177" type="curve"/>
			<point x="413" y="229"/>
			<point x="443" y="285"/>
			<point x="443" y="338" type="curve" smooth="yes"/>
			<point x="443" y="403"/>
			<point x="397" y="436"/>
			<point x="314" y="454" type="curve" smooth="yes"/>
			<point x="233" y="472"/>
			<point x="198" y="484"/>
			<point x="198" y="532" type="curve" smooth="yes"/>
			<point x="198" y="607"/>
			<point x="244" y="649"/>
			<point x="328" y="649" type="curve" smooth="yes"/>
			<point x="375" y="649"/>
			<point x="473" y="634"/>
		</contour>
		<contour>
			<point x="275" y="390" type="curve" smooth="yes"/>
			<point x="343" y="374"/>
			<point x="366" y="356"/>
			<point x="366" y="313" type="curve" smooth="yes"/>
			<point x="366" y="275"/>
			<point x="336" y="230"/>
			<point x="319" y="205" type="curve"/>
			<point x="297" y="216"/>
			<point x="265" y="226"/>
			<point x="227" y="234" type="curve" smooth="yes"/>
			<point x="165" y="246"/>
			<point x="135" y="259"/>
			<point x="135" y="300" type="curve" smooth="yes"/>
			<point x="135" y="338"/>
			<point x="158" y="376"/>
			<point x="191" y="414" type="curve"/>
			<point x="213" y="406"/>
			<point x="243" y="397"/>
		</contour>
	</outline>
</glyph>
<glyph name="copyright" format="2">
	<advance width="640"/>
	<unicode hex="00A9"/>
	<note>
		copyright
	</note>
	<outline>
		<contour>
			<point x="414" y="740" type="curve" smooth="yes"/>
			<point x="230" y="740"/>
			<point x="95" y="579"/>
			<point x="95" y="415" type="curve" smooth="yes"/>
			<point x="95" y="288"/>
			<point x="183" y="194"/>
			<point x="320" y="194" type="curve" smooth="yes"/>
			<point x="502" y="194"/>
			<point x="637" y="355"/>
			<point x="637" y="520" type="curve" smooth="yes"/>
			<point x="637" y="645"/>
			<point x="550" y="740"/>
		</contour>
		<contour>
			<point x="410" y="696" type="curve" smooth="yes"/>
			<point x="523" y="696"/>
			<point x="590" y="622"/>
			<point x="590" y="518" type="curve" smooth="yes"/>
			<point x="590" y="373"/>
			<point x="476" y="238"/>
			<point x="324" y="238" type="curve" smooth="yes"/>
			<point x="209" y="238"/>
			<point x="142" y="312"/>
			<point x="142" y="418" type="curve" smooth="yes"/>
			<point x="142" y="561"/>
			<point x="256" y="696"/>
		</contour>
		<contour>
			<point x="418" y="334" type="curve"/>
			<point x="425" y="386" type="line"/>
			<point x="425" y="386"/>
			<point x="382" y="379"/>
			<point x="353" y="379" type="curve" smooth="yes"/>
			<point x="319" y="379"/>
			<point x="307" y="396"/>
			<point x="307" y="426" type="curve" smooth="yes"/>
			<point x="307" y="469"/>
			<point x="329" y="559"/>
			<point x="392" y="559" type="curve" smooth="yes"/>
			<point x="424" y="559"/>
			<point x="460" y="553"/>
			<point x="460" y="553" type="curve"/>
			<point x="476" y="606" type="line"/>
			<point x="476" y="606"/>
			<point x="443" y="616"/>
			<point x="401" y="616" type="curve" smooth="yes"/>
			<point x="283" y="616"/>
			<point x="244" y="489"/>
			<point x="244" y="417" type="curve" smooth="yes"/>
			<point x="244" y="360"/>
			<point x="271" y="322"/>
			<point x="337" y="322" type="curve" smooth="yes"/>
			<point x="378" y="322"/>
			<point x="418" y="334"/>
		</contour>
	</outline>
</glyph>
<glyph name="ordfeminine" format="2">
  <advance width="400"/>
  <unicode hex="00AA"/>
  <note>
ordfeminine
</note>
  <outline>
    <contour>
      <point x="357" y="478" type="curve"/>
      <point x="386" y="614" type="line" smooth="yes"/>
      <point x="399" y="673"/>
      <point x="363" y="714"/>
      <point x="286" y="714" type="curve" smooth="yes"/>
      <point x="235" y="714"/>
      <point x="174" y="699"/>
      <point x="174" y="699" type="curve"/>
      <point x="166" y="648" type="line"/>
      <point x="166" y="648"/>
      <point x="225" y="658"/>
      <point x="273" y="658" type="curve" smooth="yes"/>
      <point x="316" y="658"/>
      <point x="329" y="648"/>
      <point x="323" y="618" type="curve" smooth="yes"/>
      <point x="318" y="595" type="line"/>
      <point x="218" y="594" type="line" smooth="yes"/>
      <point x="162" y="593"/>
      <point x="122" y="564"/>
      <point x="122" y="501" type="curve" smooth="yes"/>
      <point x="122" y="449"/>
      <point x="157" y="412"/>
      <point x="211" y="412" type="curve" smooth="yes"/>
      <point x="252" y="412"/>
      <point x="294" y="438"/>
      <point x="294" y="438" type="curve"/>
      <point x="305" y="421"/>
      <point x="317" y="412"/>
      <point x="372" y="412" type="curve"/>
      <point x="383" y="461" type="line"/>
      <point x="372" y="464"/>
      <point x="362" y="469"/>
    </contour>
    <contour>
      <point x="239" y="549" type="curve" smooth="yes"/>
      <point x="309" y="549" type="line"/>
      <point x="294" y="483" type="line"/>
      <point x="294" y="483"/>
      <point x="258" y="466"/>
      <point x="223" y="466" type="curve" smooth="yes"/>
      <point x="196" y="466"/>
      <point x="187" y="480"/>
      <point x="187" y="501" type="curve" smooth="yes"/>
      <point x="187" y="527"/>
      <point x="200" y="549"/>
    </contour>
    <contour>
      <point x="357" y="355" type="line"/>
      <point x="93" y="355" type="line"/>
      <point x="80" y="295" type="line"/>
      <point x="344" y="295" type="line"/>
    </contour>
  </outline>
</glyph>
<glyph name="guillemetleft" format="2">
	<advance width="523"/>
	<unicode hex="00AB"/>
	<note>
		guillemetleft
	</note>
	<outline>
		<contour>
			<point x="277" y="119" type="line"/>
			<point x="117" y="278" type="line"/>
			<point x="336" y="441" type="line"/>
			<point x="299" y="498" type="line"/>
			<point x="61" y="318" type="line"/>
			<point x="47" y="253" type="line"/>
			<point x="228" y="72" type="line"/>
		</contour>
		<contour>
			<point x="453" y="123" type="line"/>
			<point x="296" y="279" type="line"/>
			<point x="511" y="438" type="line"/>
			<point x="475" y="494" type="line"/>
			<point x="241" y="318" type="line"/>
			<point x="227" y="254" type="line"/>
			<point x="405" y="77" type="line"/>
		</contour>
	</outline>
</glyph>
<glyph name="logicalnot" format="2">
	<advance width="560"/>
	<unicode hex="00AC"/>
	<note>
		logicalnot
	</note>
	<outline>
		<contour>
			<point x="465" y="128" type="line"/>
			<point x="513" y="353" type="line"/>
			<point x="85" y="353" type="line"/>
			<point x="70" y="285" type="line"/>
			<point x="428" y="285" type="line"/>
			<point x="395" y="128" type="line"/>
		</contour>
	</outline>
</glyph>
<glyph name="softhyphen" format="2">
	<advance width="0"/>
	<unicode hex="00AD"/>
	<note>
		softhyphen
	</note>
	<outline>
		<contour>
			<point x="170" y="320" type="line"/>
			<point x="-140" y="320" type="line"/>
			<point x="-154" y="250" type="line"/>
			<point x="156" y="250" type="line"/>
		</contour>
	</outline>
</glyph>
<glyph name="registered" format="2">
  <advance width="640"/>
  <unicode hex="00AE"/>
  <note>
registered
</note>
  <outline>
    <contour>
      <point x="414" y="740" type="curve" smooth="yes"/>
      <point x="230" y="740"/>
      <point x="95" y="579"/>
      <point x="95" y="415" type="curve" smooth="yes"/>
      <point x="95" y="288"/>
      <point x="183" y="194"/>
      <point x="320" y="194" type="curve" smooth="yes"/>
      <point x="502" y="194"/>
      <point x="637" y="355"/>
      <point x="637" y="520" type="curve" smooth="yes"/>
      <point x="637" y="645"/>
      <point x="550" y="740"/>
    </contour>
    <contour>
      <point x="410" y="696" type="curve" smooth="yes"/>
      <point x="523" y="696"/>
      <point x="590" y="622"/>
      <point x="590" y="518" type="curve" smooth="yes"/>
      <point x="590" y="373"/>
      <point x="476" y="238"/>
      <point x="324" y="238" type="curve" smooth="yes"/>
      <point x="209" y="238"/>
      <point x="142" y="312"/>
      <point x="142" y="418" type="curve" smooth="yes"/>
      <point x="142" y="561"/>
      <point x="256" y="696"/>
    </contour>
    <contour>
      <point x="313" y="424" type="line"/>
      <point x="366" y="424" type="line"/>
      <point x="404" y="327" type="line"/>
      <point x="464" y="327" type="line"/>
      <point x="422" y="432" type="line"/>
      <point x="468" y="450"/>
      <point x="496" y="489"/>
      <point x="496" y="535" type="curve" smooth="yes"/>
      <point x="496" y="587"/>
      <point x="460" y="611"/>
      <point x="399" y="611" type="curve" smooth="yes"/>
      <point x="295" y="611" type="line"/>
      <point x="235" y="327" type="line"/>
      <point x="293" y="327" type="line"/>
    </contour>
    <contour>
      <point x="375" y="471" type="curve" smooth="yes"/>
      <point x="322" y="471" type="line"/>
      <point x="342" y="564" type="line"/>
      <point x="391" y="564" type="line" smooth="yes"/>
      <point x="415" y="564"/>
      <point x="434" y="558"/>
      <point x="434" y="534" type="curve" smooth="yes"/>
      <point x="434" y="506"/>
      <point x="420" y="471"/>
    </contour>
  </outline>
</glyph>
<glyph name="macron" format="2">
	<advance width="375"/>
	<unicode hex="00AF"/>
	<note>
		macron
	</note>
	<outline>
		<contour>
			<point x="367" y="683" type="line"/>
			<point x="92" y="683" type="line"/>
			<point x="80" y="624" type="line"/>
			<point x="355" y="624" type="line"/>
		</contour>
	</outline>
</glyph>
<glyph name="degree" format="2">
	<advance width="403"/>
	<unicode hex="00B0"/>
	<note>
		degree
	</note>
	<outline>
		<contour>
			<point x="289" y="714" type="curve" smooth="yes"/>
			<point x="184" y="714"/>
			<point x="112" y="627"/>
			<point x="112" y="539" type="curve" smooth="yes"/>
			<point x="112" y="464"/>
			<point x="164" y="415"/>
			<point x="242" y="415" type="curve" smooth="yes"/>
			<point x="346" y="415"/>
			<point x="420" y="498"/>
			<point x="420" y="589" type="curve" smooth="yes"/>
			<point x="420" y="664"/>
			<point x="368" y="714"/>
		</contour>
		<contour>
			<point x="286" y="659" type="curve" smooth="yes"/>
			<point x="332" y="659"/>
			<point x="359" y="631"/>
			<point x="359" y="589" type="curve" smooth="yes"/>
			<point x="359" y="532"/>
			<point x="316" y="470"/>
			<point x="246" y="470" type="curve" smooth="yes"/>
			<point x="200" y="470"/>
			<point x="173" y="497"/>
			<point x="173" y="539" type="curve" smooth="yes"/>
			<point x="173" y="598"/>
			<point x="218" y="659"/>
		</contour>
	</outline>
</glyph>
<glyph name="plusminus" format="2">
  <advance width="560"/>
  <unicode hex="00B1"/>
  <note>
plusminus
</note>
  <outline>
    <contour>
      <point x="274" y="390" type="line"/>
      <point x="84" y="390" type="line"/>
      <point x="70" y="322" type="line"/>
      <point x="260" y="322" type="line"/>
      <point x="230" y="182" type="line"/>
      <point x="300" y="182" type="line"/>
      <point x="330" y="322" type="line"/>
      <point x="520" y="322" type="line"/>
      <point x="534" y="390" type="line"/>
      <point x="344" y="390" type="line"/>
      <point x="374" y="530" type="line"/>
      <point x="304" y="530" type="line"/>
    </contour>
    <contour>
      <point x="460" y="40" type="line"/>
      <point x="474" y="108" type="line"/>
      <point x="24" y="108" type="line"/>
      <point x="10" y="40" type="line"/>
    </contour>
  </outline>
</glyph>
<glyph name="twosuperior" format="2">
  <advance width="263"/>
  <unicode hex="00B2"/>
  <note>
twosuperior
</note>
  <outline>
    <contour>
      <point x="74" y="471" type="line"/>
      <point x="62" y="416" type="line"/>
      <point x="271" y="416" type="line"/>
      <point x="283" y="474" type="line"/>
      <point x="155" y="474" type="line"/>
      <point x="232" y="537" type="line" smooth="yes"/>
      <point x="290" y="585"/>
      <point x="319" y="608"/>
      <point x="319" y="664" type="curve" smooth="yes"/>
      <point x="319" y="714"/>
      <point x="293" y="741"/>
      <point x="236" y="741" type="curve" smooth="yes"/>
      <point x="192" y="741"/>
      <point x="131" y="729"/>
      <point x="131" y="729" type="curve"/>
      <point x="121" y="672" type="line"/>
      <point x="121" y="672"/>
      <point x="179" y="681"/>
      <point x="208" y="681" type="curve" smooth="yes"/>
      <point x="242" y="681"/>
      <point x="250" y="666"/>
      <point x="250" y="646" type="curve" smooth="yes"/>
      <point x="250" y="612"/>
      <point x="210" y="586"/>
      <point x="180" y="561" type="curve" smooth="yes"/>
    </contour>
  </outline>
</glyph>
<glyph name="threesuperior" format="2">
	<advance width="275"/>
	<unicode hex="00B3"/>
	<note>
		threesuperior
	</note>
	<outline>
		<contour>
			<point x="130" y="731" type="curve"/>
			<point x="123" y="676" type="line"/>
			<point x="123" y="676"/>
			<point x="173" y="683"/>
			<point x="216" y="683" type="curve" smooth="yes"/>
			<point x="243" y="683"/>
			<point x="255" y="674"/>
			<point x="255" y="654" type="curve" smooth="yes"/>
			<point x="255" y="620"/>
			<point x="227" y="605"/>
			<point x="207" y="605" type="curve" smooth="yes"/>
			<point x="142" y="605" type="line"/>
			<point x="130" y="552" type="line"/>
			<point x="195" y="552" type="line" smooth="yes"/>
			<point x="226" y="552"/>
			<point x="235" y="541"/>
			<point x="235" y="516" type="curve" smooth="yes"/>
			<point x="235" y="484"/>
			<point x="215" y="464"/>
			<point x="174" y="464" type="curve" smooth="yes"/>
			<point x="131" y="464"/>
			<point x="76" y="472"/>
			<point x="76" y="472" type="curve"/>
			<point x="60" y="416" type="line"/>
			<point x="60" y="416"/>
			<point x="122" y="406"/>
			<point x="171" y="406" type="curve" smooth="yes"/>
			<point x="265" y="406"/>
			<point x="303" y="464"/>
			<point x="303" y="520" type="curve" smooth="yes"/>
			<point x="303" y="558"/>
			<point x="288" y="574"/>
			<point x="267" y="584" type="curve"/>
			<point x="301" y="602"/>
			<point x="322" y="628"/>
			<point x="322" y="667" type="curve" smooth="yes"/>
			<point x="322" y="715"/>
			<point x="295" y="741"/>
			<point x="234" y="741" type="curve" smooth="yes"/>
			<point x="191" y="741"/>
			<point x="130" y="731"/>
		</contour>
	</outline>
</glyph>
<glyph name="acute" format="2">
	<advance width="342"/>
	<unicode hex="00B4"/>
	<note>
		acute
	</note>
	<outline>
		<contour>
			<point x="320" y="740" type="line"/>
			<point x="83" y="642" type="line"/>
			<point x="103" y="591" type="line"/>
			<point x="342" y="676" type="line"/>
		</contour>
	</outline>
</glyph>
<glyph name="micro" format="2">
  <advance width="522"/>
  <unicode hex="00B5"/>
  <note>
micro
</note>
  <outline>
    <contour>
      <point x="389" y="0" type="line"/>
      <point x="496" y="500" type="line"/>
      <point x="421" y="500" type="line"/>
      <point x="350" y="164" type="line"/>
      <point x="350" y="164"/>
      <point x="271" y="59"/>
      <point x="202" y="59" type="curve" smooth="yes"/>
      <point x="143" y="59"/>
      <point x="123" y="102"/>
      <point x="142" y="190" type="curve" smooth="yes"/>
      <point x="208" y="500" type="line"/>
      <point x="133" y="500" type="line"/>
      <point x="-23" y="-230" type="line"/>
      <point x="49" y="-230" type="line"/>
      <point x="103" y="20" type="line"/>
      <point x="122" y="0"/>
      <point x="148" y="-10"/>
      <point x="184" y="-10" type="curve" smooth="yes"/>
      <point x="272" y="-10"/>
      <point x="338" y="80"/>
      <point x="338" y="80" type="curve"/>
      <point x="323" y="0" type="line"/>
    </contour>
  </outline>
</glyph>
<glyph name="paragraph" format="2">
  <advance width="572"/>
  <unicode hex="00B6"/>
  <note>
paragraph
</note>
  <outline>
    <contour>
      <point x="382" y="634" type="line"/>
      <point x="474" y="634" type="line"/>
      <point x="340" y="0" type="line"/>
      <point x="412" y="0" type="line"/>
      <point x="546" y="634" type="line"/>
      <point x="618" y="634" type="line"/>
      <point x="633" y="700" type="line"/>
      <point x="319" y="700" type="line" smooth="yes"/>
      <point x="170" y="700"/>
      <point x="83" y="614"/>
      <point x="83" y="498" type="curve" smooth="yes"/>
      <point x="83" y="400"/>
      <point x="146" y="332"/>
      <point x="239" y="332" type="curve" smooth="yes"/>
      <point x="246" y="332" type="line"/>
      <point x="176" y="0" type="line"/>
      <point x="248" y="0" type="line"/>
    </contour>
  </outline>
</glyph>
<glyph name="periodcentered" format="2">
	<advance width="217"/>
	<unicode hex="00B7"/>
	<note>
		periodcentered
	</note>
	<outline>
		<contour>
			<point x="169" y="341" type="line"/>
			<point x="87" y="341" type="line"/>
			<point x="63" y="227" type="line"/>
			<point x="145" y="227" type="line"/>
		</contour>
	</outline>
</glyph>
<glyph name="cedilla" format="2">
  <advance width="283"/>
  <unicode hex="00B8"/>
  <note>
cedilla
</note>
  <outline>
    <contour>
      <point x="110" y="-115" type="curve" smooth="yes"/>
      <point x="110" y="-73"/>
      <point x="78" y="-49"/>
      <point x="24" y="-49" type="curve"/>
      <point x="45" y="1" type="line"/>
      <point x="0" y="1" type="line"/>
      <point x="-40" y="-93" type="line"/>
      <point x="4" y="-93" type="line" smooth="yes"/>
      <point x="28" y="-93"/>
      <point x="42" y="-101"/>
      <point x="42" y="-122" type="curve" smooth="yes"/>
      <point x="42" y="-157"/>
      <point x="19" y="-165"/>
      <point x="-11" y="-165" type="curve" smooth="yes"/>
      <point x="-38" y="-165"/>
      <point x="-80" y="-162"/>
      <point x="-80" y="-162" type="curve"/>
      <point x="-94" y="-210" type="line"/>
      <point x="-94" y="-210"/>
      <point x="-49" y="-217"/>
      <point x="-5" y="-217" type="curve" smooth="yes"/>
      <point x="75" y="-217"/>
      <point x="110" y="-172"/>
    </contour>
  </outline>
</glyph>
<glyph name="onesuperior" format="2">
  <advance width="209"/>
  <unicode hex="00B9"/>
  <note>
onesuperior
</note>
  <outline>
    <contour>
      <point x="269" y="732" type="line"/>
      <point x="209" y="732" type="line"/>
      <point x="93" y="662" type="line"/>
      <point x="112" y="615" type="line"/>
      <point x="190" y="662" type="line"/>
      <point x="138" y="416" type="line"/>
      <point x="202" y="416" type="line"/>
    </contour>
  </outline>
</glyph>
<glyph name="ordmasculine" format="2">
	<advance width="406"/>
	<unicode hex="00BA"/>
	<note>
		ordmasculine
	</note>
	<outline>
		<contour>
			<point x="296" y="714" type="curve" smooth="yes"/>
			<point x="161" y="714"/>
			<point x="125" y="595"/>
			<point x="125" y="521" type="curve" smooth="yes"/>
			<point x="125" y="454"/>
			<point x="166" y="412"/>
			<point x="240" y="412" type="curve" smooth="yes"/>
			<point x="381" y="412"/>
			<point x="410" y="538"/>
			<point x="410" y="609" type="curve" smooth="yes"/>
			<point x="410" y="675"/>
			<point x="369" y="714"/>
		</contour>
		<contour>
			<point x="249" y="473" type="curve" smooth="yes"/>
			<point x="211" y="473"/>
			<point x="195" y="489"/>
			<point x="195" y="523" type="curve" smooth="yes"/>
			<point x="195" y="577"/>
			<point x="218" y="653"/>
			<point x="288" y="653" type="curve" smooth="yes"/>
			<point x="325" y="653"/>
			<point x="341" y="640"/>
			<point x="341" y="607" type="curve" smooth="yes"/>
			<point x="341" y="561"/>
			<point x="328" y="473"/>
		</contour>
		<contour>
			<point x="354" y="355" type="line"/>
			<point x="101" y="355" type="line"/>
			<point x="89" y="295" type="line"/>
			<point x="342" y="295" type="line"/>
		</contour>
	</outline>
</glyph>
<glyph name="guillemetright" format="2">
	<advance width="522"/>
	<unicode hex="00BB"/>
	<note>
		guillemetright
	</note>
	<outline>
		<contour>
			<point x="260" y="451" type="line"/>
			<point x="420" y="292" type="line"/>
			<point x="201" y="129" type="line"/>
			<point x="238" y="72" type="line"/>
			<point x="476" y="252" type="line"/>
			<point x="490" y="317" type="line"/>
			<point x="309" y="498" type="line"/>
		</contour>
		<contour>
			<point x="84" y="447" type="line"/>
			<point x="241" y="291" type="line"/>
			<point x="26" y="132" type="line"/>
			<point x="62" y="76" type="line"/>
			<point x="296" y="252" type="line"/>
			<point x="310" y="316" type="line"/>
			<point x="132" y="493" type="line"/>
		</contour>
	</outline>
</glyph>
<glyph name="onequarter" format="2">
  <advance width="601"/>
  <unicode hex="00BC"/>
  <note>
onequarter
</note>
  <outline>
    <contour>
      <point x="605" y="681" type="line"/>
      <point x="572" y="710" type="line"/>
      <point x="-5" y="16" type="line"/>
      <point x="26" y="-12" type="line"/>
    </contour>
    <contour>
      <point x="287" y="702" type="line"/>
      <point x="227" y="702" type="line"/>
      <point x="111" y="632" type="line"/>
      <point x="130" y="585" type="line"/>
      <point x="208" y="632" type="line"/>
      <point x="156" y="386" type="line"/>
      <point x="220" y="386" type="line"/>
    </contour>
    <contour>
      <point x="299" y="50" type="line"/>
      <point x="440" y="50" type="line"/>
      <point x="429" y="0" type="line"/>
      <point x="492" y="0" type="line"/>
      <point x="503" y="50" type="line"/>
      <point x="530" y="50" type="line"/>
      <point x="542" y="108" type="line"/>
      <point x="515" y="108" type="line"/>
      <point x="534" y="199" type="line"/>
      <point x="476" y="199" type="line"/>
      <point x="452" y="108" type="line"/>
      <point x="377" y="108" type="line"/>
      <point x="503" y="316" type="line"/>
      <point x="430" y="316" type="line"/>
      <point x="310" y="104" type="line"/>
    </contour>
  </outline>
</glyph>
<glyph name="onehalf" format="2">
  <advance width="597"/>
  <unicode hex="00BD"/>
  <note>
onehalf
</note>
  <outline>
    <contour>
      <point x="605" y="681" type="line"/>
      <point x="572" y="710" type="line"/>
      <point x="-5" y="16" type="line"/>
      <point x="26" y="-12" type="line"/>
    </contour>
    <contour>
      <point x="287" y="702" type="line"/>
      <point x="227" y="702" type="line"/>
      <point x="111" y="632" type="line"/>
      <point x="130" y="585" type="line"/>
      <point x="208" y="632" type="line"/>
      <point x="156" y="386" type="line"/>
      <point x="220" y="386" type="line"/>
    </contour>
    <contour>
      <point x="305" y="55" type="line"/>
      <point x="293" y="0" type="line"/>
      <point x="502" y="0" type="line"/>
      <point x="514" y="58" type="line"/>
      <point x="386" y="58" type="line"/>
      <point x="463" y="121" type="line" smooth="yes"/>
      <point x="521" y="169"/>
      <point x="550" y="192"/>
      <point x="550" y="248" type="curve" smooth="yes"/>
      <point x="550" y="298"/>
      <point x="524" y="325"/>
      <point x="467" y="325" type="curve" smooth="yes"/>
      <point x="423" y="325"/>
      <point x="362" y="313"/>
      <point x="362" y="313" type="curve"/>
      <point x="352" y="256" type="line"/>
      <point x="352" y="256"/>
      <point x="410" y="265"/>
      <point x="439" y="265" type="curve" smooth="yes"/>
      <point x="473" y="265"/>
      <point x="481" y="250"/>
      <point x="481" y="230" type="curve" smooth="yes"/>
      <point x="481" y="196"/>
      <point x="441" y="170"/>
      <point x="411" y="145" type="curve" smooth="yes"/>
    </contour>
  </outline>
</glyph>
<glyph name="threequarters" format="2">
  <advance width="649"/>
  <unicode hex="00BE"/>
  <note>
threequarters
</note>
  <outline>
    <contour>
      <point x="142" y="701" type="curve"/>
      <point x="135" y="646" type="line"/>
      <point x="135" y="646"/>
      <point x="185" y="653"/>
      <point x="228" y="653" type="curve" smooth="yes"/>
      <point x="255" y="653"/>
      <point x="267" y="644"/>
      <point x="267" y="624" type="curve" smooth="yes"/>
      <point x="267" y="590"/>
      <point x="239" y="575"/>
      <point x="219" y="575" type="curve" smooth="yes"/>
      <point x="154" y="575" type="line"/>
      <point x="142" y="522" type="line"/>
      <point x="207" y="522" type="line" smooth="yes"/>
      <point x="238" y="522"/>
      <point x="247" y="511"/>
      <point x="247" y="486" type="curve" smooth="yes"/>
      <point x="247" y="454"/>
      <point x="227" y="434"/>
      <point x="186" y="434" type="curve" smooth="yes"/>
      <point x="143" y="434"/>
      <point x="88" y="442"/>
      <point x="88" y="442" type="curve"/>
      <point x="72" y="386" type="line"/>
      <point x="72" y="386"/>
      <point x="134" y="376"/>
      <point x="183" y="376" type="curve" smooth="yes"/>
      <point x="277" y="376"/>
      <point x="315" y="434"/>
      <point x="315" y="490" type="curve" smooth="yes"/>
      <point x="315" y="528"/>
      <point x="300" y="544"/>
      <point x="279" y="554" type="curve"/>
      <point x="313" y="572"/>
      <point x="334" y="598"/>
      <point x="334" y="637" type="curve" smooth="yes"/>
      <point x="334" y="685"/>
      <point x="307" y="711"/>
      <point x="246" y="711" type="curve" smooth="yes"/>
      <point x="203" y="711"/>
      <point x="142" y="701"/>
    </contour>
    <contour>
      <point x="653" y="681" type="line"/>
      <point x="620" y="710" type="line"/>
      <point x="43" y="16" type="line"/>
      <point x="74" y="-12" type="line"/>
    </contour>
    <contour>
      <point x="347" y="50" type="line"/>
      <point x="488" y="50" type="line"/>
      <point x="477" y="0" type="line"/>
      <point x="540" y="0" type="line"/>
      <point x="551" y="50" type="line"/>
      <point x="578" y="50" type="line"/>
      <point x="590" y="108" type="line"/>
      <point x="563" y="108" type="line"/>
      <point x="582" y="199" type="line"/>
      <point x="524" y="199" type="line"/>
      <point x="500" y="108" type="line"/>
      <point x="425" y="108" type="line"/>
      <point x="551" y="316" type="line"/>
      <point x="478" y="316" type="line"/>
      <point x="358" y="104" type="line"/>
    </contour>
  </outline>
</glyph>
<glyph name="questiondown" format="2">
  <advance width="418"/>
  <unicode hex="00BF"/>
  <note>
questiondown
</note>
  <outline>
    <contour>
      <point x="225" y="391" type="line"/>
      <point x="307" y="391" type="line"/>
      <point x="330" y="500" type="line"/>
      <point x="248" y="500" type="line"/>
    </contour>
    <contour>
      <point x="-36" y="-83" type="curve" smooth="yes"/>
      <point x="-36" y="-172"/>
      <point x="30" y="-214"/>
      <point x="133" y="-214" type="curve" smooth="yes"/>
      <point x="233" y="-214"/>
      <point x="309" y="-184"/>
      <point x="309" y="-184" type="curve"/>
      <point x="317" y="-123" type="line"/>
      <point x="317" y="-123"/>
      <point x="227" y="-146"/>
      <point x="153" y="-146" type="curve" smooth="yes"/>
      <point x="90" y="-146"/>
      <point x="42" y="-132"/>
      <point x="42" y="-73" type="curve" smooth="yes"/>
      <point x="42" y="3"/>
      <point x="102" y="48"/>
      <point x="164" y="93" type="curve" smooth="yes"/>
      <point x="224" y="137"/>
      <point x="288" y="185"/>
      <point x="288" y="261" type="curve" smooth="yes"/>
      <point x="288" y="279"/>
      <point x="285" y="291"/>
      <point x="285" y="291" type="curve"/>
      <point x="222" y="291" type="line"/>
      <point x="214" y="256" type="line" smooth="yes"/>
      <point x="204" y="211"/>
      <point x="168" y="176"/>
      <point x="99" y="127" type="curve" smooth="yes"/>
      <point x="11" y="64"/>
      <point x="-36" y="13"/>
    </contour>
  </outline>
</glyph>
<glyph name="Agrave" format="2">
  <advance width="582"/>
  <unicode hex="00C0"/>
  <note>
Agrave
</note>
  <outline>
    <contour>
      <point x="501" y="771" type="line"/>
      <point x="533" y="822" type="line"/>
      <point x="338" y="920" type="line"/>
      <point x="298" y="856" type="line"/>
    </contour>
    <contour>
      <point x="321" y="700" type="line"/>
      <point x="-30" y="0" type="line"/>
      <point x="47" y="0" type="line"/>
      <point x="139" y="187" type="line"/>
      <point x="416" y="187" type="line"/>
      <point x="427" y="0" type="line"/>
      <point x="501" y="0" type="line"/>
      <point x="459" y="700" type="line"/>
    </contour>
    <contour>
      <point x="359" y="626" type="line"/>
      <point x="389" y="626" type="line"/>
      <point x="412" y="255" type="line"/>
      <point x="174" y="255" type="line"/>
    </contour>
  </outline>
</glyph>
<glyph name="Acircumflex" format="2">
	<advance width="582"/>
	<unicode hex="00C2"/>
	<note>
		Acircumflex
	</note>
	<outline>
		<contour>
			<point x="330" y="776" type="line"/>
			<point x="424" y="864" type="line"/>
			<point x="480" y="776" type="line"/>
			<point x="549" y="776" type="line"/>
			<point x="465" y="915" type="line"/>
			<point x="393" y="915" type="line"/>
			<point x="249" y="776" type="line"/>
		</contour>
		<contour>
			<point x="321" y="700" type="line"/>
			<point x="-30" y="0" type="line"/>
			<point x="47" y="0" type="line"/>
			<point x="139" y="187" type="line"/>
			<point x="416" y="187" type="line"/>
			<point x="427" y="0" type="line"/>
			<point x="501" y="0" type="line"/>
			<point x="459" y="700" type="line"/>
		</contour>
		<contour>
			<point x="359" y="626" type="line"/>
			<point x="389" y="626" type="line"/>
			<point x="412" y="255" type="line"/>
			<point x="174" y="255" type="line"/>
		</contour>
	</outline>
</glyph>
<glyph name="Atilde" format="2">
  <advance width="582"/>
  <unicode hex="00C3"/>
  <note>
Atilde
</note>
  <outline>
    <contour>
      <point x="589" y="853" type="curve"/>
      <point x="567" y="891" type="line"/>
      <point x="567" y="891"/>
      <point x="511" y="853"/>
      <point x="490" y="853" type="curve" smooth="yes"/>
      <point x="460" y="853"/>
      <point x="400" y="899"/>
      <point x="360" y="899" type="curve" smooth="yes"/>
      <point x="319" y="899"/>
      <point x="244" y="837"/>
      <point x="244" y="837" type="curve"/>
      <point x="266" y="799" type="line"/>
      <point x="266" y="799"/>
      <point x="324" y="839"/>
      <point x="348" y="839" type="curve" smooth="yes"/>
      <point x="380" y="839"/>
      <point x="437" y="792"/>
      <point x="477" y="792" type="curve" smooth="yes"/>
      <point x="517" y="792"/>
      <point x="576" y="843"/>
    </contour>
    <contour>
      <point x="321" y="700" type="line"/>
      <point x="-30" y="0" type="line"/>
      <point x="47" y="0" type="line"/>
      <point x="139" y="187" type="line"/>
      <point x="416" y="187" type="line"/>
      <point x="427" y="0" type="line"/>
      <point x="501" y="0" type="line"/>
      <point x="459" y="700" type="line"/>
    </contour>
    <contour>
      <point x="359" y="626" type="line"/>
      <point x="389" y="626" type="line"/>
      <point x="412" y="255" type="line"/>
      <point x="174" y="255" type="line"/>
    </contour>
  </outline>
</glyph>
<glyph name="Adieresis" format="2">
	<advance width="582"/>
	<unicode hex="00C4"/>
	<note>
		Adieresis
	</note>
	<outline>
		<contour>
			<point x="362" y="891" type="line"/>
			<point x="290" y="891" type="line"/>
			<point x="272" y="804" type="line"/>
			<point x="344" y="804" type="line"/>
		</contour>
		<contour>
			<point x="563" y="891" type="line"/>
			<point x="490" y="891" type="line"/>
			<point x="472" y="804" type="line"/>
			<point x="545" y="804" type="line"/>
		</contour>
		<contour>
			<point x="321" y="700" type="line"/>
			<point x="-30" y="0" type="line"/>
			<point x="47" y="0" type="line"/>
			<point x="139" y="187" type="line"/>
			<point x="416" y="187" type="line"/>
			<point x="427" y="0" type="line"/>
			<point x="501" y="0" type="line"/>
			<point x="459" y="700" type="line"/>
		</contour>
		<contour>
			<point x="359" y="626" type="line"/>
			<point x="389" y="626" type="line"/>
			<point x="412" y="255" type="line"/>
			<point x="174" y="255" type="line"/>
		</contour>
	</outline>
</glyph>
<glyph name="Aring" format="2">
  <advance width="582"/>
  <unicode hex="00C5"/>
  <note>
Aring
</note>
  <outline>
    <contour>
      <point x="310" y="831" type="curve" smooth="yes"/>
      <point x="310" y="783"/>
      <point x="345" y="745"/>
      <point x="405" y="745" type="curve" smooth="yes"/>
      <point x="472" y="745"/>
      <point x="524" y="796"/>
      <point x="524" y="864" type="curve" smooth="yes"/>
      <point x="524" y="911"/>
      <point x="485" y="950"/>
      <point x="432" y="950" type="curve" smooth="yes"/>
      <point x="365" y="950"/>
      <point x="310" y="900"/>
    </contour>
    <contour>
      <point x="364" y="835" type="curve" smooth="yes"/>
      <point x="364" y="873"/>
      <point x="393" y="901"/>
      <point x="428" y="901" type="curve" smooth="yes"/>
      <point x="453" y="901"/>
      <point x="470" y="885"/>
      <point x="470" y="861" type="curve" smooth="yes"/>
      <point x="470" y="822"/>
      <point x="441" y="794"/>
      <point x="406" y="794" type="curve" smooth="yes"/>
      <point x="381" y="794"/>
      <point x="364" y="810"/>
    </contour>
    <contour>
      <point x="321" y="700" type="line"/>
      <point x="-30" y="0" type="line"/>
      <point x="47" y="0" type="line"/>
      <point x="139" y="187" type="line"/>
      <point x="416" y="187" type="line"/>
      <point x="427" y="0" type="line"/>
      <point x="501" y="0" type="line"/>
      <point x="459" y="700" type="line"/>
    </contour>
    <contour>
      <point x="359" y="626" type="line"/>
      <point x="389" y="626" type="line"/>
      <point x="412" y="255" type="line"/>
      <point x="174" y="255" type="line"/>
    </contour>
  </outline>
</glyph>
<glyph name="AE" format="2">
  <advance width="852"/>
  <unicode hex="00C6"/>
  <note>
AE
</note>
  <outline>
    <contour>
      <point x="375" y="187" type="line"/>
      <point x="335" y="0" type="line"/>
      <point x="756" y="0" type="line"/>
      <point x="770" y="68" type="line"/>
      <point x="427" y="68" type="line"/>
      <point x="481" y="323" type="line"/>
      <point x="764" y="323" type="line"/>
      <point x="778" y="389" type="line"/>
      <point x="495" y="389" type="line"/>
      <point x="547" y="632" type="line"/>
      <point x="890" y="632" type="line"/>
      <point x="904" y="700" type="line"/>
      <point x="376" y="700" type="line"/>
      <point x="-53" y="0" type="line"/>
      <point x="23" y="0" type="line"/>
      <point x="137" y="187" type="line"/>
    </contour>
    <contour>
      <point x="409" y="632" type="line"/>
      <point x="469" y="632" type="line"/>
      <point x="389" y="255" type="line"/>
      <point x="179" y="255" type="line"/>
    </contour>
  </outline>
</glyph>
<glyph name="Ccedilla" format="2">
	<advance width="518"/>
	<unicode hex="00C7"/>
	<note>
		Ccedilla
	</note>
	<outline>
		<contour>
			<point x="319" y="-115" type="curve" smooth="yes"/>
			<point x="319" y="-73"/>
			<point x="287" y="-49"/>
			<point x="233" y="-49" type="curve"/>
			<point x="249" y="-10" type="line"/>
			<point x="251" y="-10"/>
			<point x="252" y="-10"/>
			<point x="254" y="-10" type="curve" smooth="yes"/>
			<point x="318" y="-10"/>
			<point x="376" y="1"/>
			<point x="426" y="11" type="curve"/>
			<point x="437" y="77" type="line"/>
			<point x="388" y="68"/>
			<point x="330" y="59"/>
			<point x="276" y="59" type="curve" smooth="yes"/>
			<point x="170" y="59"/>
			<point x="136" y="91"/>
			<point x="136" y="185" type="curve" smooth="yes"/>
			<point x="136" y="332"/>
			<point x="214" y="641"/>
			<point x="407" y="641" type="curve" smooth="yes"/>
			<point x="453" y="641"/>
			<point x="518" y="627"/>
			<point x="560" y="617" type="curve"/>
			<point x="577" y="682" type="line"/>
			<point x="536" y="693"/>
			<point x="477" y="710"/>
			<point x="413" y="710" type="curve" smooth="yes"/>
			<point x="139" y="710"/>
			<point x="56" y="361"/>
			<point x="56" y="184" type="curve" smooth="yes"/>
			<point x="56" y="70"/>
			<point x="96" y="6"/>
			<point x="206" y="-7" type="curve"/>
			<point x="169" y="-93" type="line"/>
			<point x="213" y="-93" type="line" smooth="yes"/>
			<point x="237" y="-93"/>
			<point x="251" y="-101"/>
			<point x="251" y="-122" type="curve" smooth="yes"/>
			<point x="251" y="-157"/>
			<point x="228" y="-165"/>
			<point x="198" y="-165" type="curve" smooth="yes"/>
			<point x="171" y="-165"/>
			<point x="129" y="-162"/>
			<point x="129" y="-162" type="curve"/>
			<point x="115" y="-210" type="line"/>
			<point x="115" y="-210"/>
			<point x="160" y="-217"/>
			<point x="204" y="-217" type="curve" smooth="yes"/>
			<point x="284" y="-217"/>
			<point x="319" y="-172"/>
		</contour>
	</outline>
</glyph>
<glyph name="Eacute" format="2">
	<advance width="522"/>
	<unicode hex="00C9"/>
	<note>
		Eacute
	</note>
	<outline>
		<contour>
			<point x="489" y="920" type="line"/>
			<point x="294" y="822" type="line"/>
			<point x="320" y="771" type="line"/>
			<point x="523" y="856" type="line"/>
		</contour>
		<contour>
			<point x="571" y="700" type="line"/>
			<point x="181" y="700" type="line"/>
			<point x="32" y="0" type="line"/>
			<point x="421" y="0" type="line"/>
			<point x="435" y="68" type="line"/>
			<point x="124" y="68" type="line"/>
			<point x="178" y="323" type="line"/>
			<point x="432" y="323" type="line"/>
			<point x="446" y="389" type="line"/>
			<point x="192" y="389" type="line"/>
			<point x="244" y="632" type="line"/>
			<point x="557" y="632" type="line"/>
		</contour>
	</outline>
</glyph>
<glyph name="Ecircumflex" format="2">
  <advance width="522"/>
  <unicode hex="00CA"/>
  <note>
Ecircumflex
</note>
  <outline>
    <contour>
      <point x="320" y="776" type="line"/>
      <point x="414" y="864" type="line"/>
      <point x="470" y="776" type="line"/>
      <point x="539" y="776" type="line"/>
      <point x="455" y="915" type="line"/>
      <point x="383" y="915" type="line"/>
      <point x="239" y="776" type="line"/>
    </contour>
    <contour>
      <point x="571" y="700" type="line"/>
      <point x="181" y="700" type="line"/>
      <point x="32" y="0" type="line"/>
      <point x="421" y="0" type="line"/>
      <point x="435" y="68" type="line"/>
      <point x="124" y="68" type="line"/>
      <point x="178" y="323" type="line"/>
      <point x="432" y="323" type="line"/>
      <point x="446" y="389" type="line"/>
      <point x="192" y="389" type="line"/>
      <point x="244" y="632" type="line"/>
      <point x="557" y="632" type="line"/>
    </contour>
  </outline>
</glyph>
<glyph name="Edieresis" format="2">
	<advance width="522"/>
	<unicode hex="00CB"/>
	<note>
		Edieresis
	</note>
	<outline>
		<contour>
			<point x="352" y="891" type="line"/>
			<point x="280" y="891" type="line"/>
			<point x="262" y="804" type="line"/>
			<point x="334" y="804" type="line"/>
		</contour>
		<contour>
			<point x="553" y="891" type="line"/>
			<point x="480" y="891" type="line"/>
			<point x="462" y="804" type="line"/>
			<point x="535" y="804" type="line"/>
		</contour>
		<contour>
			<point x="571" y="700" type="line"/>
			<point x="181" y="700" type="line"/>
			<point x="32" y="0" type="line"/>
			<point x="421" y="0" type="line"/>
			<point x="435" y="68" type="line"/>
			<point x="124" y="68" type="line"/>
			<point x="178" y="323" type="line"/>
			<point x="432" y="323" type="line"/>
			<point x="446" y="389" type="line"/>
			<point x="192" y="389" type="line"/>
			<point x="244" y="632" type="line"/>
			<point x="557" y="632" type="line"/>
		</contour>
	</outline>
</glyph>
<glyph name="Igrave" format="2">
	<advance width="248"/>
	<unicode hex="00CC"/>
	<note>
		Igrave
	</note>
	<outline>
		<contour>
			<point x="334" y="771" type="line"/>
			<point x="366" y="822" type="line"/>
			<point x="171" y="920" type="line"/>
			<point x="131" y="856" type="line"/>
		</contour>
		<contour>
			<point x="259" y="700" type="line"/>
			<point x="181" y="700" type="line"/>
			<point x="32" y="0" type="line"/>
			<point x="110" y="0" type="line"/>
		</contour>
	</outline>
</glyph>
<glyph name="Icircumflex" format="2">
  <advance width="248"/>
  <unicode hex="00CE"/>
  <note>
Icircumflex
</note>
  <outline>
    <contour>
      <point x="163" y="776" type="line"/>
      <point x="257" y="864" type="line"/>
      <point x="313" y="776" type="line"/>
      <point x="382" y="776" type="line"/>
      <point x="298" y="915" type="line"/>
      <point x="226" y="915" type="line"/>
      <point x="82" y="776" type="line"/>
    </contour>
    <contour>
      <point x="259" y="700" type="line"/>
      <point x="181" y="700" type="line"/>
      <point x="32" y="0" type="line"/>
      <point x="110" y="0" type="line"/>
    </contour>
  </outline>
</glyph>
<glyph name="Idieresis" format="2">
  <advance width="248"/>
  <unicode hex="00CF"/>
  <note>
Idieresis
</note>
  <outline>
    <contour>
      <point x="195" y="891" type="line"/>
      <point x="123" y="891" type="line"/>
      <point x="105" y="804" type="line"/>
      <point x="177" y="804" type="line"/>
    </contour>
    <contour>
      <point x="396" y="891" type="line"/>
      <point x="323" y="891" type="line"/>
      <point x="305" y="804" type="line"/>
      <point x="378" y="804" type="line"/>
    </contour>
    <contour>
      <point x="259" y="700" type="line"/>
      <point x="181" y="700" type="line"/>
      <point x="32" y="0" type="line"/>
      <point x="110" y="0" type="line"/>
    </contour>
  </outline>
</glyph>
<glyph name="Eth" format="2">
  <advance width="645"/>
  <unicode hex="00D0"/>
  <note>
Eth
</note>
  <outline>
    <contour>
      <point x="121" y="321" type="line"/>
      <point x="53" y="0" type="line"/>
      <point x="255" y="0" type="line" smooth="yes"/>
      <point x="510" y="0"/>
      <point x="627" y="261"/>
      <point x="627" y="487" type="curve" smooth="yes"/>
      <point x="627" y="616"/>
      <point x="575" y="700"/>
      <point x="404" y="700" type="curve" smooth="yes"/>
      <point x="202" y="700" type="line"/>
      <point x="136" y="389" type="line"/>
      <point x="70" y="389" type="line"/>
      <point x="56" y="321" type="line"/>
    </contour>
    <contour>
      <point x="266" y="68" type="curve" smooth="yes"/>
      <point x="145" y="68" type="line"/>
      <point x="199" y="321" type="line"/>
      <point x="393" y="321" type="line"/>
      <point x="407" y="389" type="line"/>
      <point x="213" y="389" type="line"/>
      <point x="265" y="632" type="line"/>
      <point x="405" y="632" type="line" smooth="yes"/>
      <point x="513" y="632"/>
      <point x="547" y="576"/>
      <point x="547" y="490" type="curve" smooth="yes"/>
      <point x="547" y="290"/>
      <point x="435" y="68"/>
    </contour>
  </outline>
</glyph>
<glyph name="Ntilde" format="2">
  <advance width="651"/>
  <unicode hex="00D1"/>
  <note>
Ntilde
</note>
  <outline>
    <contour>
      <point x="645" y="853" type="curve"/>
      <point x="623" y="891" type="line"/>
      <point x="623" y="891"/>
      <point x="567" y="853"/>
      <point x="546" y="853" type="curve" smooth="yes"/>
      <point x="516" y="853"/>
      <point x="456" y="899"/>
      <point x="416" y="899" type="curve" smooth="yes"/>
      <point x="375" y="899"/>
      <point x="300" y="837"/>
      <point x="300" y="837" type="curve"/>
      <point x="322" y="799" type="line"/>
      <point x="322" y="799"/>
      <point x="380" y="839"/>
      <point x="404" y="839" type="curve" smooth="yes"/>
      <point x="436" y="839"/>
      <point x="493" y="792"/>
      <point x="533" y="792" type="curve" smooth="yes"/>
      <point x="573" y="792"/>
      <point x="632" y="843"/>
    </contour>
    <contour>
      <point x="336" y="700" type="line"/>
      <point x="181" y="700" type="line"/>
      <point x="32" y="0" type="line"/>
      <point x="110" y="0" type="line"/>
      <point x="243" y="626" type="line"/>
      <point x="272" y="626" type="line"/>
      <point x="358" y="0" type="line"/>
      <point x="513" y="0" type="line"/>
      <point x="662" y="700" type="line"/>
      <point x="584" y="700" type="line"/>
      <point x="451" y="74" type="line"/>
      <point x="422" y="74" type="line"/>
    </contour>
  </outline>
</glyph>
<glyph name="Otilde" format="2">
  <advance width="650"/>
  <unicode hex="00D5"/>
  <note>
Otilde
</note>
  <outline>
    <contour>
      <point x="614" y="853" type="curve"/>
      <point x="592" y="891" type="line"/>
      <point x="592" y="891"/>
      <point x="536" y="853"/>
      <point x="515" y="853" type="curve" smooth="yes"/>
      <point x="485" y="853"/>
      <point x="425" y="899"/>
      <point x="385" y="899" type="curve" smooth="yes"/>
      <point x="344" y="899"/>
      <point x="269" y="837"/>
      <point x="269" y="837" type="curve"/>
      <point x="291" y="799" type="line"/>
      <point x="291" y="799"/>
      <point x="349" y="839"/>
      <point x="373" y="839" type="curve" smooth="yes"/>
      <point x="405" y="839"/>
      <point x="462" y="792"/>
      <point x="502" y="792" type="curve" smooth="yes"/>
      <point x="542" y="792"/>
      <point x="601" y="843"/>
    </contour>
    <contour>
      <point x="279" y="-10" type="curve" smooth="yes"/>
      <point x="569" y="-10"/>
      <point x="629" y="322"/>
      <point x="629" y="484" type="curve" smooth="yes"/>
      <point x="629" y="656"/>
      <point x="521" y="710"/>
      <point x="416" y="710" type="curve" smooth="yes"/>
      <point x="128" y="710"/>
      <point x="62" y="383"/>
      <point x="62" y="211" type="curve" smooth="yes"/>
      <point x="62" y="45"/>
      <point x="163" y="-10"/>
    </contour>
    <contour>
      <point x="290" y="60" type="curve" smooth="yes"/>
      <point x="214" y="60"/>
      <point x="142" y="84"/>
      <point x="142" y="206" type="curve" smooth="yes"/>
      <point x="142" y="346"/>
      <point x="200" y="641"/>
      <point x="399" y="641" type="curve" smooth="yes"/>
      <point x="469" y="641"/>
      <point x="550" y="615"/>
      <point x="550" y="481" type="curve" smooth="yes"/>
      <point x="550" y="342"/>
      <point x="485" y="60"/>
    </contour>
  </outline>
</glyph>
<glyph name="multiply" format="2">
  <advance width="560"/>
  <unicode hex="00D7"/>
  <note>
multiply
</note>
  <outline>
    <contour>
      <point x="297" y="334" type="line"/>
      <point x="181" y="483" type="line"/>
      <point x="120" y="433" type="line"/>
      <point x="238" y="285" type="line"/>
      <point x="58" y="137" type="line"/>
      <point x="97" y="87" type="line"/>
      <point x="277" y="236" type="line"/>
      <point x="393" y="87" type="line"/>
      <point x="454" y="137" type="line"/>
      <point x="336" y="285" type="line"/>
      <point x="516" y="433" type="line"/>
      <point x="477" y="483" type="line"/>
    </contour>
  </outline>
</glyph>
<glyph name="Uacute" format="2">
	<advance width="637"/>
	<unicode hex="00DA"/>
	<note>
		Uacute
	</note>
	<outline>
		<contour>
			<point x="521" y="920" type="line"/>
			<point x="326" y="822" type="line"/>
			<point x="352" y="771" type="line"/>
			<point x="555" y="856" type="line"/>
		</contour>
		<contour>
			<point x="151" y="218" type="curve" smooth="yes"/>
			<point x="254" y="700" type="line"/>
			<point x="176" y="700" type="line"/>
			<point x="76" y="231" type="line" smooth="yes"/>
			<point x="44" y="79"/>
			<point x="117" y="-10"/>
			<point x="282" y="-10" type="curve" smooth="yes"/>
			<point x="425" y="-10"/>
			<point x="513" y="43"/>
			<point x="546" y="200" type="curve" smooth="yes"/>
			<point x="652" y="700" type="line"/>
			<point x="574" y="700" type="line"/>
			<point x="470" y="207" type="line" smooth="yes"/>
			<point x="447" y="100"/>
			<point x="387" y="59"/>
			<point x="285" y="59" type="curve" smooth="yes"/>
			<point x="173" y="59"/>
			<point x="128" y="110"/>
		</contour>
	</outline>
</glyph>
<glyph name="Yacute" format="2">
  <advance width="524"/>
  <unicode hex="00DD"/>
  <note>
Yacute
</note>
  <outline>
    <contour>
      <point x="468" y="920" type="line"/>
      <point x="273" y="822" type="line"/>
      <point x="299" y="771" type="line"/>
      <point x="502" y="856" type="line"/>
    </contour>
    <contour>
      <point x="230" y="294" type="line"/>
      <point x="167" y="0" type="line"/>
      <point x="244" y="0" type="line"/>
      <point x="306" y="294" type="line"/>
      <point x="608" y="700" type="line"/>
      <point x="518" y="700" type="line"/>
      <point x="283" y="376" type="line"/>
      <point x="202" y="700" type="line"/>
      <point x="127" y="700" type="line"/>
    </contour>
  </outline>
</glyph>
<glyph name="Thorn" format="2">
	<advance width="589"/>
	<unicode hex="00DE"/>
	<note>
		Thorn
	</note>
	<outline>
		<contour>
			<point x="259" y="700" type="line"/>
			<point x="181" y="700" type="line"/>
			<point x="32" y="0" type="line"/>
			<point x="110" y="0" type="line"/>
			<point x="143" y="153" type="line"/>
			<point x="297" y="153" type="line" smooth="yes"/>
			<point x="501" y="153"/>
			<point x="572" y="281"/>
			<point x="572" y="415" type="curve" smooth="yes"/>
			<point x="572" y="509"/>
			<point x="514" y="580"/>
			<point x="388" y="580" type="curve" smooth="yes"/>
			<point x="233" y="580" type="line"/>
		</contour>
		<contour>
			<point x="311" y="221" type="curve" smooth="yes"/>
			<point x="157" y="221" type="line"/>
			<point x="219" y="512" type="line"/>
			<point x="373" y="512" type="line" smooth="yes"/>
			<point x="455" y="512"/>
			<point x="490" y="482"/>
			<point x="490" y="409" type="curve" smooth="yes"/>
			<point x="490" y="318"/>
			<point x="438" y="221"/>
		</contour>
	</outline>
</glyph>
<glyph name="germandbls" format="2">
	<advance width="560"/>
	<unicode hex="00DF"/>
	<note>
		germandbls
	</note>
	<outline>
		<contour>
			<point x="132" y="532" type="curve" smooth="yes"/>
			<point x="19" y="0" type="line"/>
			<point x="95" y="0" type="line"/>
			<point x="207" y="523" type="line" smooth="yes"/>
			<point x="230" y="629"/>
			<point x="281" y="673"/>
			<point x="365" y="673" type="curve" smooth="yes"/>
			<point x="419" y="673"/>
			<point x="445" y="652"/>
			<point x="445" y="614" type="curve" smooth="yes"/>
			<point x="445" y="574"/>
			<point x="420" y="551"/>
			<point x="370" y="518" type="curve" smooth="yes"/>
			<point x="307" y="476"/>
			<point x="255" y="440"/>
			<point x="255" y="376" type="curve" smooth="yes"/>
			<point x="255" y="337"/>
			<point x="277" y="313"/>
			<point x="319" y="285" type="curve" smooth="yes"/>
			<point x="392" y="236" type="line" smooth="yes"/>
			<point x="421" y="217"/>
			<point x="431" y="198"/>
			<point x="431" y="169" type="curve" smooth="yes"/>
			<point x="431" y="100"/>
			<point x="378" y="57"/>
			<point x="303" y="57" type="curve" smooth="yes"/>
			<point x="255" y="57"/>
			<point x="172" y="68"/>
			<point x="172" y="68" type="curve"/>
			<point x="156" y="5" type="line"/>
			<point x="156" y="5"/>
			<point x="224" y="-10"/>
			<point x="291" y="-10" type="curve" smooth="yes"/>
			<point x="453" y="-10"/>
			<point x="514" y="96"/>
			<point x="514" y="187" type="curve" smooth="yes"/>
			<point x="514" y="235"/>
			<point x="497" y="268"/>
			<point x="457" y="295" type="curve" smooth="yes"/>
			<point x="367" y="355" type="line" smooth="yes"/>
			<point x="348" y="368"/>
			<point x="333" y="378"/>
			<point x="333" y="395" type="curve" smooth="yes"/>
			<point x="333" y="419"/>
			<point x="356" y="435"/>
			<point x="418" y="471" type="curve" smooth="yes"/>
			<point x="478" y="506"/>
			<point x="527" y="553"/>
			<point x="527" y="624" type="curve" smooth="yes"/>
			<point x="527" y="692"/>
			<point x="469" y="740"/>
			<point x="369" y="740" type="curve" smooth="yes"/>
			<point x="250" y="740"/>
			<point x="166" y="694"/>
		</contour>
	</outline>
</glyph>
<glyph name="adieresis" format="2">
	<advance width="509"/>
	<unicode hex="00E4"/>
	<note>
		adieresis
	</note>
	<outline>
		<contour>
			<point x="296" y="711" type="line"/>
			<point x="224" y="711" type="line"/>
			<point x="206" y="624" type="line"/>
			<point x="278" y="624" type="line"/>
		</contour>
		<contour>
			<point x="497" y="711" type="line"/>
			<point x="424" y="711" type="line"/>
			<point x="406" y="624" type="line"/>
			<point x="479" y="624" type="line"/>
		</contour>
		<contour>
			<point x="153" y="-12" type="curve" smooth="yes"/>
			<point x="250" y="-12"/>
			<point x="334" y="93"/>
			<point x="334" y="93" type="curve"/>
			<point x="328" y="80"/>
			<point x="316" y="0"/>
			<point x="316" y="0" type="curve"/>
			<point x="388" y="0" type="line"/>
			<point x="388" y="0"/>
			<point x="402" y="97"/>
			<point x="416" y="160" type="curve" smooth="yes"/>
			<point x="489" y="489" type="line"/>
			<point x="489" y="489"/>
			<point x="350" y="514"/>
			<point x="287" y="514" type="curve" smooth="yes"/>
			<point x="118" y="514"/>
			<point x="35" y="297"/>
			<point x="35" y="137" type="curve" smooth="yes"/>
			<point x="35" y="45"/>
			<point x="74" y="-12"/>
		</contour>
		<contour>
			<point x="288" y="449" type="curve" smooth="yes"/>
			<point x="335" y="449"/>
			<point x="403" y="435"/>
			<point x="403" y="435" type="curve"/>
			<point x="347" y="181" type="line"/>
			<point x="347" y="181"/>
			<point x="265" y="59"/>
			<point x="182" y="59" type="curve" smooth="yes"/>
			<point x="136" y="59"/>
			<point x="111" y="84"/>
			<point x="111" y="137" type="curve" smooth="yes"/>
			<point x="111" y="265"/>
			<point x="172" y="449"/>
		</contour>
	</outline>
</glyph>
<glyph name="aring" format="2">
  <advance width="509"/>
  <unicode hex="00E5"/>
  <note>
aring
</note>
  <outline>
    <contour>
      <point x="243" y="632" type="curve" smooth="yes"/>
      <point x="243" y="582"/>
      <point x="283" y="545"/>
      <point x="336" y="545" type="curve" smooth="yes"/>
      <point x="405" y="545"/>
      <point x="457" y="598"/>
      <point x="457" y="660" type="curve" smooth="yes"/>
      <point x="457" y="713"/>
      <point x="418" y="750"/>
      <point x="361" y="750" type="curve" smooth="yes"/>
      <point x="294" y="750"/>
      <point x="243" y="696"/>
    </contour>
    <contour>
      <point x="294" y="636" type="curve" smooth="yes"/>
      <point x="294" y="675"/>
      <point x="324" y="704"/>
      <point x="362" y="704" type="curve" smooth="yes"/>
      <point x="389" y="704"/>
      <point x="406" y="687"/>
      <point x="406" y="659" type="curve" smooth="yes"/>
      <point x="406" y="620"/>
      <point x="376" y="591"/>
      <point x="338" y="591" type="curve" smooth="yes"/>
      <point x="311" y="591"/>
      <point x="294" y="608"/>
    </contour>
    <contour>
      <point x="153" y="-12" type="curve" smooth="yes"/>
      <point x="250" y="-12"/>
      <point x="334" y="93"/>
      <point x="334" y="93" type="curve"/>
      <point x="328" y="80"/>
      <point x="316" y="0"/>
      <point x="316" y="0" type="curve"/>
      <point x="388" y="0" type="line"/>
      <point x="388" y="0"/>
      <point x="402" y="97"/>
      <point x="416" y="160" type="curve" smooth="yes"/>
      <point x="489" y="489" type="line"/>
      <point x="489" y="489"/>
      <point x="350" y="514"/>
      <point x="287" y="514" type="curve" smooth="yes"/>
      <point x="118" y="514"/>
      <point x="35" y="297"/>
      <point x="35" y="137" type="curve" smooth="yes"/>
      <point x="35" y="45"/>
      <point x="74" y="-12"/>
    </contour>
    <contour>
      <point x="288" y="449" type="curve" smooth="yes"/>
      <point x="335" y="449"/>
      <point x="403" y="435"/>
      <point x="403" y="435" type="curve"/>
      <point x="347" y="181" type="line"/>
      <point x="347" y="181"/>
      <point x="265" y="59"/>
      <point x="182" y="59" type="curve" smooth="yes"/>
      <point x="136" y="59"/>
      <point x="111" y="84"/>
      <point x="111" y="137" type="curve" smooth="yes"/>
      <point x="111" y="265"/>
      <point x="172" y="449"/>
    </contour>
  </outline>
</glyph>
<glyph name="ccedilla" format="2">
	<advance width="422"/>
	<unicode hex="00E7"/>
	<note>
		ccedilla
	</note>
	<outline>
		<contour>
			<point x="278" y="-115" type="curve" smooth="yes"/>
			<point x="278" y="-73"/>
			<point x="246" y="-49"/>
			<point x="192" y="-49" type="curve"/>
			<point x="208" y="-12" type="line"/>
			<point x="261" y="-10"/>
			<point x="328" y="2"/>
			<point x="328" y="2" type="curve"/>
			<point x="340" y="65" type="line"/>
			<point x="340" y="65"/>
			<point x="266" y="55"/>
			<point x="210" y="55" type="curve" smooth="yes"/>
			<point x="143" y="55"/>
			<point x="114" y="71"/>
			<point x="114" y="156" type="curve" smooth="yes"/>
			<point x="114" y="232"/>
			<point x="137" y="447"/>
			<point x="311" y="447" type="curve" smooth="yes"/>
			<point x="349" y="447"/>
			<point x="417" y="438"/>
			<point x="417" y="438" type="curve"/>
			<point x="436" y="499" type="line"/>
			<point x="436" y="499"/>
			<point x="353" y="514"/>
			<point x="308" y="514" type="curve" smooth="yes"/>
			<point x="89" y="514"/>
			<point x="38" y="271"/>
			<point x="38" y="153" type="curve" smooth="yes"/>
			<point x="38" y="46"/>
			<point x="79" y="-2"/>
			<point x="163" y="-10" type="curve"/>
			<point x="128" y="-93" type="line"/>
			<point x="172" y="-93" type="line" smooth="yes"/>
			<point x="196" y="-93"/>
			<point x="210" y="-101"/>
			<point x="210" y="-122" type="curve" smooth="yes"/>
			<point x="210" y="-157"/>
			<point x="187" y="-165"/>
			<point x="157" y="-165" type="curve" smooth="yes"/>
			<point x="130" y="-165"/>
			<point x="88" y="-162"/>
			<point x="88" y="-162" type="curve"/>
			<point x="74" y="-210" type="line"/>
			<point x="74" y="-210"/>
			<point x="119" y="-217"/>
			<point x="163" y="-217" type="curve" smooth="yes"/>
			<point x="243" y="-217"/>
			<point x="278" y="-172"/>
		</contour>
	</outline>
</glyph>
<glyph name="edieresis" format="2">
	<advance width="470"/>
	<unicode hex="00EB"/>
	<note>
		edieresis
	</note>
	<outline>
		<contour>
			<point x="270" y="711" type="line"/>
			<point x="198" y="711" type="line"/>
			<point x="180" y="624" type="line"/>
			<point x="252" y="624" type="line"/>
		</contour>
		<contour>
			<point x="471" y="711" type="line"/>
			<point x="398" y="711" type="line"/>
			<point x="380" y="624" type="line"/>
			<point x="453" y="624" type="line"/>
		</contour>
		<contour>
			<point x="209" y="55" type="curve" smooth="yes"/>
			<point x="142" y="55"/>
			<point x="112" y="74"/>
			<point x="112" y="146" type="curve" smooth="yes"/>
			<point x="112" y="174"/>
			<point x="114" y="207"/>
			<point x="120" y="233" type="curve"/>
			<point x="234" y="235" type="line" smooth="yes"/>
			<point x="377" y="238"/>
			<point x="455" y="272"/>
			<point x="455" y="384" type="curve" smooth="yes"/>
			<point x="455" y="479"/>
			<point x="396" y="514"/>
			<point x="312" y="514" type="curve" smooth="yes"/>
			<point x="115" y="514"/>
			<point x="37" y="318"/>
			<point x="37" y="146" type="curve" smooth="yes"/>
			<point x="37" y="38"/>
			<point x="91" y="-12"/>
			<point x="188" y="-12" type="curve" smooth="yes"/>
			<point x="278" y="-12"/>
			<point x="361" y="10"/>
			<point x="361" y="10" type="curve"/>
			<point x="373" y="77" type="line"/>
			<point x="373" y="77"/>
			<point x="283" y="55"/>
		</contour>
		<contour>
			<point x="218" y="296" type="curve" smooth="yes"/>
			<point x="133" y="293" type="line"/>
			<point x="160" y="389"/>
			<point x="214" y="449"/>
			<point x="301" y="449" type="curve" smooth="yes"/>
			<point x="356" y="449"/>
			<point x="380" y="425"/>
			<point x="380" y="381" type="curve" smooth="yes"/>
			<point x="380" y="311"/>
			<point x="319" y="300"/>
		</contour>
	</outline>
</glyph>
<glyph name="igrave" format="2">
	<advance width="220"/>
	<unicode hex="00EC"/>
	<note>
		igrave
	</note>
	<outline>
		<contour>
			<point x="282" y="591" type="line"/>
			<point x="308" y="642" type="line"/>
			<point x="113" y="740" type="line"/>
			<point x="79" y="676" type="line"/>
		</contour>
		<contour>
			<point x="200" y="500" type="line"/>
			<point x="126" y="500" type="line"/>
			<point x="19" y="0" type="line"/>
			<point x="94" y="0" type="line"/>
		</contour>
	</outline>
</glyph>
<glyph name="iacute" format="2">
	<advance width="220"/>
	<unicode hex="00ED"/>
	<note>
		iacute
	</note>
	<outline>
		<contour>
			<point x="309" y="740" type="line"/>
			<point x="72" y="642" type="line"/>
			<point x="92" y="591" type="line"/>
			<point x="331" y="676" type="line"/>
		</contour>
		<contour>
			<point x="200" y="500" type="line"/>
			<point x="126" y="500" type="line"/>
			<point x="19" y="0" type="line"/>
			<point x="94" y="0" type="line"/>
		</contour>
	</outline>
</glyph>
<glyph name="icircumflex" format="2">
  <advance width="220"/>
  <unicode hex="00EE"/>
  <note>
icircumflex
</note>
  <outline>
    <contour>
      <point x="115" y="596" type="line"/>
      <point x="209" y="682" type="line"/>
      <point x="265" y="596" type="line"/>
      <point x="333" y="596" type="line"/>
      <point x="249" y="735" type="line"/>
      <point x="177" y="735" type="line"/>
      <point x="33" y="596" type="line"/>
    </contour>
    <contour>
      <point x="200" y="500" type="line"/>
      <point x="126" y="500" type="line"/>
      <point x="19" y="0" type="line"/>
      <point x="94" y="0" type="line"/>
    </contour>
  </outline>
</glyph>
<glyph name="idieresis" format="2">
	<advance width="220"/>
	<unicode hex="00EF"/>
	<note>
		idieresis
	</note>
	<outline>
		<contour>
			<point x="140" y="711" type="line"/>
			<point x="68" y="711" type="line"/>
			<point x="50" y="624" type="line"/>
			<point x="122" y="624" type="line"/>
		</contour>
		<contour>
			<point x="341" y="711" type="line"/>
			<point x="268" y="711" type="line"/>
			<point x="250" y="624" type="line"/>
			<point x="323" y="624" type="line"/>
		</contour>
		<contour>
			<point x="200" y="500" type="line"/>
			<point x="126" y="500" type="line"/>
			<point x="19" y="0" type="line"/>
			<point x="94" y="0" type="line"/>
		</contour>
	</outline>
</glyph>
<glyph name="eth" format="2">
	<advance width="558"/>
	<unicode hex="00F0"/>
	<note>
		eth
	</note>
	<outline>
		<contour>
			<point x="295" y="643" type="curve"/>
			<point x="187" y="579" type="line"/>
			<point x="210" y="532" type="line"/>
			<point x="349" y="613" type="line"/>
			<point x="440" y="551"/>
			<point x="455" y="472"/>
			<point x="445" y="383" type="curve"/>
			<point x="445" y="383"/>
			<point x="376" y="430"/>
			<point x="276" y="430" type="curve" smooth="yes"/>
			<point x="132" y="430"/>
			<point x="40" y="332"/>
			<point x="40" y="192" type="curve" smooth="yes"/>
			<point x="40" y="65"/>
			<point x="125" y="-9"/>
			<point x="244" y="-9" type="curve" smooth="yes"/>
			<point x="462" y="-9"/>
			<point x="522" y="225"/>
			<point x="522" y="407" type="curve" smooth="yes"/>
			<point x="522" y="539"/>
			<point x="486" y="593"/>
			<point x="420" y="655" type="curve"/>
			<point x="508" y="707" type="line"/>
			<point x="484" y="754" type="line"/>
			<point x="369" y="686" type="line"/>
			<point x="324" y="709"/>
			<point x="270" y="727"/>
			<point x="198" y="740" type="curve"/>
			<point x="180" y="684" type="line"/>
			<point x="225" y="672"/>
			<point x="264" y="658"/>
		</contour>
		<contour>
			<point x="276" y="363" type="curve" smooth="yes"/>
			<point x="354" y="363"/>
			<point x="432" y="316"/>
			<point x="432" y="316" type="curve"/>
			<point x="409" y="121"/>
			<point x="333" y="59"/>
			<point x="246" y="59" type="curve" smooth="yes"/>
			<point x="169" y="59"/>
			<point x="121" y="108"/>
			<point x="121" y="192" type="curve" smooth="yes"/>
			<point x="121" y="303"/>
			<point x="188" y="363"/>
		</contour>
	</outline>
</glyph>
<glyph name="ntilde" format="2">
  <advance width="506"/>
  <unicode hex="00F1"/>
  <note>
ntilde
</note>
  <outline>
    <contour>
      <point x="509" y="673" type="curve"/>
      <point x="487" y="711" type="line"/>
      <point x="487" y="711"/>
      <point x="431" y="673"/>
      <point x="410" y="673" type="curve" smooth="yes"/>
      <point x="380" y="673"/>
      <point x="320" y="719"/>
      <point x="280" y="719" type="curve" smooth="yes"/>
      <point x="239" y="719"/>
      <point x="164" y="657"/>
      <point x="164" y="657" type="curve"/>
      <point x="186" y="619" type="line"/>
      <point x="186" y="619"/>
      <point x="244" y="659"/>
      <point x="268" y="659" type="curve" smooth="yes"/>
      <point x="300" y="659"/>
      <point x="357" y="612"/>
      <point x="397" y="612" type="curve" smooth="yes"/>
      <point x="437" y="612"/>
      <point x="496" y="663"/>
    </contour>
    <contour>
      <point x="126" y="500" type="line"/>
      <point x="20" y="0" type="line"/>
      <point x="94" y="0" type="line"/>
      <point x="164" y="334" type="line"/>
      <point x="164" y="334"/>
      <point x="244" y="443"/>
      <point x="320" y="443" type="curve" smooth="yes"/>
      <point x="359" y="443"/>
      <point x="384" y="418"/>
      <point x="384" y="371" type="curve" smooth="yes"/>
      <point x="384" y="337"/>
      <point x="372" y="285"/>
      <point x="365" y="253" type="curve" smooth="yes"/>
      <point x="311" y="0" type="line"/>
      <point x="385" y="0" type="line"/>
      <point x="440" y="258" type="line" smooth="yes"/>
      <point x="448" y="294"/>
      <point x="460" y="347"/>
      <point x="460" y="388" type="curve" smooth="yes"/>
      <point x="460" y="463"/>
      <point x="424" y="514"/>
      <point x="351" y="514" type="curve" smooth="yes"/>
      <point x="251" y="514"/>
      <point x="177" y="419"/>
      <point x="177" y="419" type="curve"/>
      <point x="191" y="500" type="line"/>
    </contour>
  </outline>
</glyph>
<glyph name="ograve" format="2">
  <advance width="503"/>
  <unicode hex="00F2"/>
  <note>
ograve
</note>
  <outline>
    <contour>
      <point x="416" y="591" type="line"/>
      <point x="442" y="642" type="line"/>
      <point x="247" y="740" type="line"/>
      <point x="213" y="676" type="line"/>
    </contour>
    <contour>
      <point x="301" y="514" type="curve" smooth="yes"/>
      <point x="111" y="514"/>
      <point x="38" y="302"/>
      <point x="38" y="154" type="curve" smooth="yes"/>
      <point x="38" y="39"/>
      <point x="94" y="-12"/>
      <point x="202" y="-12" type="curve" smooth="yes"/>
      <point x="402" y="-12"/>
      <point x="465" y="201"/>
      <point x="465" y="347" type="curve" smooth="yes"/>
      <point x="465" y="457"/>
      <point x="417" y="514"/>
    </contour>
    <contour>
      <point x="208" y="53" type="curve" smooth="yes"/>
      <point x="139" y="53"/>
      <point x="114" y="87"/>
      <point x="114" y="147" type="curve" smooth="yes"/>
      <point x="114" y="263"/>
      <point x="165" y="449"/>
      <point x="295" y="449" type="curve" smooth="yes"/>
      <point x="361" y="449"/>
      <point x="389" y="419"/>
      <point x="389" y="354" type="curve" smooth="yes"/>
      <point x="389" y="223"/>
      <point x="328" y="53"/>
    </contour>
  </outline>
</glyph>
<glyph name="otilde" format="2">
  <advance width="503"/>
  <unicode hex="00F5"/>
  <note>
otilde
</note>
  <outline>
    <contour>
      <point x="495" y="673" type="curve"/>
      <point x="473" y="711" type="line"/>
      <point x="473" y="711"/>
      <point x="417" y="673"/>
      <point x="396" y="673" type="curve" smooth="yes"/>
      <point x="366" y="673"/>
      <point x="306" y="719"/>
      <point x="266" y="719" type="curve" smooth="yes"/>
      <point x="225" y="719"/>
      <point x="150" y="657"/>
      <point x="150" y="657" type="curve"/>
      <point x="172" y="619" type="line"/>
      <point x="172" y="619"/>
      <point x="230" y="659"/>
      <point x="254" y="659" type="curve" smooth="yes"/>
      <point x="286" y="659"/>
      <point x="343" y="612"/>
      <point x="383" y="612" type="curve" smooth="yes"/>
      <point x="423" y="612"/>
      <point x="482" y="663"/>
    </contour>
    <contour>
      <point x="301" y="514" type="curve" smooth="yes"/>
      <point x="111" y="514"/>
      <point x="38" y="302"/>
      <point x="38" y="154" type="curve" smooth="yes"/>
      <point x="38" y="39"/>
      <point x="94" y="-12"/>
      <point x="202" y="-12" type="curve" smooth="yes"/>
      <point x="402" y="-12"/>
      <point x="465" y="201"/>
      <point x="465" y="347" type="curve" smooth="yes"/>
      <point x="465" y="457"/>
      <point x="417" y="514"/>
    </contour>
    <contour>
      <point x="208" y="53" type="curve" smooth="yes"/>
      <point x="139" y="53"/>
      <point x="114" y="87"/>
      <point x="114" y="147" type="curve" smooth="yes"/>
      <point x="114" y="263"/>
      <point x="165" y="449"/>
      <point x="295" y="449" type="curve" smooth="yes"/>
      <point x="361" y="449"/>
      <point x="389" y="419"/>
      <point x="389" y="354" type="curve" smooth="yes"/>
      <point x="389" y="223"/>
      <point x="328" y="53"/>
    </contour>
  </outline>
</glyph>
<glyph name="odieresis" format="2">
	<advance width="503"/>
	<unicode hex="00F6"/>
	<note>
		odieresis
	</note>
	<outline>
		<contour>
			<point x="274" y="711" type="line"/>
			<point x="202" y="711" type="line"/>
			<point x="184" y="624" type="line"/>
			<point x="256" y="624" type="line"/>
		</contour>
		<contour>
			<point x="475" y="711" type="line"/>
			<point x="402" y="711" type="line"/>
			<point x="384" y="624" type="line"/>
			<point x="457" y="624" type="line"/>
		</contour>
		<contour>
			<point x="301" y="514" type="curve" smooth="yes"/>
			<point x="111" y="514"/>
			<point x="38" y="302"/>
			<point x="38" y="154" type="curve" smooth="yes"/>
			<point x="38" y="39"/>
			<point x="94" y="-12"/>
			<point x="202" y="-12" type="curve" smooth="yes"/>
			<point x="402" y="-12"/>
			<point x="465" y="201"/>
			<point x="465" y="347" type="curve" smooth="yes"/>
			<point x="465" y="457"/>
			<point x="417" y="514"/>
		</contour>
		<contour>
			<point x="208" y="53" type="curve" smooth="yes"/>
			<point x="139" y="53"/>
			<point x="114" y="87"/>
			<point x="114" y="147" type="curve" smooth="yes"/>
			<point x="114" y="263"/>
			<point x="165" y="449"/>
			<point x="295" y="449" type="curve" smooth="yes"/>
			<point x="361" y="449"/>
			<point x="389" y="419"/>
			<point x="389" y="354" type="curve" smooth="yes"/>
			<point x="389" y="223"/>
			<point x="328" y="53"/>
		</contour>
	</outline>
</glyph>
<glyph name="divide" format="2">
	<advance width="560"/>
	<unicode hex="00F7"/>
	<note>
		divide
	</note>
	<outline>
		<contour>
			<point x="372" y="502" type="line"/>
			<point x="293" y="502" type="line"/>
			<point x="272" y="401" type="line"/>
			<point x="351" y="401" type="line"/>
		</contour>
		<contour>
			<point x="89" y="319" type="line"/>
			<point x="75" y="251" type="line"/>
			<point x="485" y="251" type="line"/>
			<point x="499" y="319" type="line"/>
		</contour>
		<contour>
			<point x="301" y="169" type="line"/>
			<point x="222" y="169" type="line"/>
			<point x="201" y="68" type="line"/>
			<point x="280" y="68" type="line"/>
		</contour>
	</outline>
</glyph>
<glyph name="oslash" format="2">
	<advance width="503"/>
	<unicode hex="00F8"/>
	<note>
		oslash
	</note>
	<outline>
		<contour>
			<point x="301" y="514" type="curve" smooth="yes"/>
			<point x="111" y="514"/>
			<point x="38" y="302"/>
			<point x="38" y="154" type="curve" smooth="yes"/>
			<point x="38" y="86"/>
			<point x="57" y="41"/>
			<point x="95" y="15" type="curve"/>
			<point x="73" y="-30" type="line"/>
			<point x="130" y="-57" type="line"/>
			<point x="154" y="-8" type="line"/>
			<point x="169" y="-11"/>
			<point x="185" y="-12"/>
			<point x="202" y="-12" type="curve" smooth="yes"/>
			<point x="402" y="-12"/>
			<point x="465" y="201"/>
			<point x="465" y="347" type="curve" smooth="yes"/>
			<point x="465" y="417"/>
			<point x="446" y="465"/>
			<point x="402" y="491" type="curve"/>
			<point x="421" y="530" type="line"/>
			<point x="364" y="557" type="line"/>
			<point x="341" y="511" type="line"/>
			<point x="329" y="513"/>
			<point x="316" y="514"/>
		</contour>
		<contour>
			<point x="114" y="147" type="curve" smooth="yes"/>
			<point x="114" y="263"/>
			<point x="165" y="449"/>
			<point x="295" y="449" type="curve" smooth="yes"/>
			<point x="300" y="449"/>
			<point x="305" y="449"/>
			<point x="310" y="448" type="curve"/>
			<point x="130" y="84" type="line"/>
			<point x="119" y="100"/>
			<point x="114" y="121"/>
		</contour>
		<contour>
			<point x="208" y="53" type="curve" smooth="yes"/>
			<point x="200" y="53"/>
			<point x="192" y="53"/>
			<point x="185" y="54" type="curve"/>
			<point x="368" y="424" type="line"/>
			<point x="383" y="408"/>
			<point x="389" y="385"/>
			<point x="389" y="354" type="curve" smooth="yes"/>
			<point x="389" y="223"/>
			<point x="328" y="53"/>
		</contour>
	</outline>
</glyph>
<glyph name="thorn" format="2">
  <advance width="505"/>
  <unicode hex="00FE"/>
  <note>
thorn
</note>
  <outline>
    <contour>
      <point x="246" y="730" type="line"/>
      <point x="174" y="730" type="line"/>
      <point x="-30" y="-230" type="line"/>
      <point x="42" y="-230" type="line"/>
      <point x="92" y="6" type="line"/>
      <point x="105" y="3"/>
      <point x="168" y="-12"/>
      <point x="225" y="-12" type="curve" smooth="yes"/>
      <point x="374" y="-12"/>
      <point x="469" y="175"/>
      <point x="469" y="366" type="curve" smooth="yes"/>
      <point x="469" y="443"/>
      <point x="444" y="514"/>
      <point x="347" y="514" type="curve" smooth="yes"/>
      <point x="261" y="514"/>
      <point x="177" y="413"/>
      <point x="177" y="413" type="curve"/>
    </contour>
    <contour>
      <point x="326" y="443" type="curve" smooth="yes"/>
      <point x="376" y="443"/>
      <point x="393" y="408"/>
      <point x="393" y="366" type="curve" smooth="yes"/>
      <point x="393" y="194"/>
      <point x="317" y="53"/>
      <point x="227" y="53" type="curve" smooth="yes"/>
      <point x="180" y="53"/>
      <point x="119" y="66"/>
      <point x="107" y="68" type="curve"/>
      <point x="161" y="321" type="line"/>
      <point x="161" y="321"/>
      <point x="238" y="443"/>
    </contour>
  </outline>
</glyph>
<glyph name="ydieresis" format="2">
  <advance width="458"/>
  <unicode hex="00FF"/>
  <note>
ydieresis
</note>
  <outline>
    <contour>
      <point x="242" y="711" type="line"/>
      <point x="170" y="711" type="line"/>
      <point x="152" y="624" type="line"/>
      <point x="224" y="624" type="line"/>
    </contour>
    <contour>
      <point x="443" y="711" type="line"/>
      <point x="370" y="711" type="line"/>
      <point x="352" y="624" type="line"/>
      <point x="425" y="624" type="line"/>
    </contour>
    <contour>
      <point x="170" y="65" type="line"/>
      <point x="160" y="500" type="line"/>
      <point x="87" y="500" type="line"/>
      <point x="101" y="0" type="line"/>
      <point x="163" y="0" type="line"/>
      <point x="47" y="-230" type="line"/>
      <point x="121" y="-230" type="line"/>
      <point x="490" y="500" type="line"/>
      <point x="413" y="500" type="line"/>
      <point x="194" y="65" type="line"/>
    </contour>
  </outline>
</glyph>
<glyph name="Amacron" format="2">
  <advance width="582"/>
  <unicode hex="0100"/>
  <note>
Amacron
</note>
  <outline>
    <contour>
      <point x="558" y="863" type="line"/>
      <point x="283" y="863" type="line"/>
      <point x="271" y="804" type="line"/>
      <point x="546" y="804" type="line"/>
    </contour>
    <contour>
      <point x="321" y="700" type="line"/>
      <point x="-30" y="0" type="line"/>
      <point x="47" y="0" type="line"/>
      <point x="139" y="187" type="line"/>
      <point x="416" y="187" type="line"/>
      <point x="427" y="0" type="line"/>
      <point x="501" y="0" type="line"/>
      <point x="459" y="700" type="line"/>
    </contour>
    <contour>
      <point x="359" y="626" type="line"/>
      <point x="389" y="626" type="line"/>
      <point x="412" y="255" type="line"/>
      <point x="174" y="255" type="line"/>
    </contour>
  </outline>
</glyph>
<glyph name="Abreve" format="2">
	<advance width="582"/>
	<unicode hex="0102"/>
	<note>
		Abreve
	</note>
	<outline>
		<contour>
			<point x="340" y="911" type="curve"/>
			<point x="282" y="911" type="line"/>
			<point x="271" y="834"/>
			<point x="315" y="771"/>
			<point x="405" y="771" type="curve" smooth="yes"/>
			<point x="502" y="771"/>
			<point x="559" y="834"/>
			<point x="579" y="911" type="curve"/>
			<point x="514" y="911" type="line"/>
			<point x="501" y="862"/>
			<point x="462" y="827"/>
			<point x="409" y="827" type="curve" smooth="yes"/>
			<point x="356" y="827"/>
			<point x="331" y="862"/>
		</contour>
		<contour>
			<point x="321" y="700" type="line"/>
			<point x="-30" y="0" type="line"/>
			<point x="47" y="0" type="line"/>
			<point x="139" y="187" type="line"/>
			<point x="416" y="187" type="line"/>
			<point x="427" y="0" type="line"/>
			<point x="501" y="0" type="line"/>
			<point x="459" y="700" type="line"/>
		</contour>
		<contour>
			<point x="359" y="626" type="line"/>
			<point x="389" y="626" type="line"/>
			<point x="412" y="255" type="line"/>
			<point x="174" y="255" type="line"/>
		</contour>
	</outline>
</glyph>
<glyph name="Aogonek" format="2">
	<advance width="582"/>
	<unicode hex="0104"/>
	<note>
		Aogonek
	</note>
	<outline>
		<contour>
			<point x="321" y="700" type="line"/>
			<point x="-30" y="0" type="line"/>
			<point x="47" y="0" type="line"/>
			<point x="139" y="187" type="line"/>
			<point x="416" y="187" type="line"/>
			<point x="427" y="0" type="line"/>
			<point x="432" y="0" type="line"/>
			<point x="368" y="-50"/>
			<point x="330" y="-92"/>
			<point x="330" y="-140" type="curve" smooth="yes"/>
			<point x="330" y="-182"/>
			<point x="360" y="-206"/>
			<point x="405" y="-206" type="curve" smooth="yes"/>
			<point x="439" y="-206"/>
			<point x="486" y="-197"/>
			<point x="486" y="-197" type="curve"/>
			<point x="491" y="-139" type="line"/>
			<point x="491" y="-139"/>
			<point x="454" y="-145"/>
			<point x="440" y="-145" type="curve" smooth="yes"/>
			<point x="419" y="-145"/>
			<point x="407" y="-132"/>
			<point x="407" y="-112" type="curve" smooth="yes"/>
			<point x="407" y="-89"/>
			<point x="433" y="-57"/>
			<point x="501" y="0" type="curve"/>
			<point x="459" y="700" type="line"/>
		</contour>
		<contour>
			<point x="359" y="626" type="line"/>
			<point x="389" y="626" type="line"/>
			<point x="412" y="255" type="line"/>
			<point x="174" y="255" type="line"/>
		</contour>
	</outline>
</glyph>
<glyph name="aogonek" format="2">
	<advance width="509"/>
	<unicode hex="0105"/>
	<note>
		aogonek
	</note>
	<outline>
		<contour>
			<point x="153" y="-12" type="curve" smooth="yes"/>
			<point x="250" y="-12"/>
			<point x="334" y="93"/>
			<point x="334" y="93" type="curve"/>
			<point x="329" y="81"/>
			<point x="319" y="17"/>
			<point x="316" y="3" type="curve"/>
			<point x="250" y="-49"/>
			<point x="211" y="-91"/>
			<point x="211" y="-140" type="curve" smooth="yes"/>
			<point x="211" y="-182"/>
			<point x="241" y="-206"/>
			<point x="286" y="-206" type="curve" smooth="yes"/>
			<point x="320" y="-206"/>
			<point x="367" y="-197"/>
			<point x="367" y="-197" type="curve"/>
			<point x="372" y="-139" type="line"/>
			<point x="372" y="-139"/>
			<point x="335" y="-145"/>
			<point x="321" y="-145" type="curve" smooth="yes"/>
			<point x="300" y="-145"/>
			<point x="288" y="-132"/>
			<point x="288" y="-112" type="curve" smooth="yes"/>
			<point x="288" y="-89"/>
			<point x="314" y="-57"/>
			<point x="382" y="0" type="curve"/>
			<point x="388" y="0" type="line"/>
			<point x="388" y="0"/>
			<point x="402" y="97"/>
			<point x="416" y="160" type="curve" smooth="yes"/>
			<point x="489" y="489" type="line"/>
			<point x="489" y="489"/>
			<point x="350" y="514"/>
			<point x="287" y="514" type="curve" smooth="yes"/>
			<point x="118" y="514"/>
			<point x="35" y="297"/>
			<point x="35" y="137" type="curve" smooth="yes"/>
			<point x="35" y="45"/>
			<point x="74" y="-12"/>
		</contour>
		<contour>
			<point x="288" y="449" type="curve" smooth="yes"/>
			<point x="335" y="449"/>
			<point x="403" y="435"/>
			<point x="403" y="435" type="curve"/>
			<point x="347" y="181" type="line"/>
			<point x="347" y="181"/>
			<point x="265" y="59"/>
			<point x="182" y="59" type="curve" smooth="yes"/>
			<point x="136" y="59"/>
			<point x="111" y="84"/>
			<point x="111" y="137" type="curve" smooth="yes"/>
			<point x="111" y="265"/>
			<point x="172" y="449"/>
		</contour>
	</outline>
</glyph>
<glyph name="Ccircumflex" format="2">
	<advance width="518"/>
	<unicode hex="0108"/>
	<note>
		Ccircumflex
	</note>
	<outline>
		<contour>
			<point x="357" y="776" type="line"/>
			<point x="451" y="864" type="line"/>
			<point x="507" y="776" type="line"/>
			<point x="576" y="776" type="line"/>
			<point x="492" y="915" type="line"/>
			<point x="420" y="915" type="line"/>
			<point x="276" y="776" type="line"/>
		</contour>
		<contour>
			<point x="426" y="11" type="curve"/>
			<point x="437" y="77" type="line"/>
			<point x="388" y="68"/>
			<point x="330" y="59"/>
			<point x="276" y="59" type="curve" smooth="yes"/>
			<point x="170" y="59"/>
			<point x="136" y="91"/>
			<point x="136" y="185" type="curve" smooth="yes"/>
			<point x="136" y="332"/>
			<point x="214" y="641"/>
			<point x="407" y="641" type="curve" smooth="yes"/>
			<point x="453" y="641"/>
			<point x="518" y="627"/>
			<point x="560" y="617" type="curve"/>
			<point x="577" y="682" type="line"/>
			<point x="536" y="693"/>
			<point x="477" y="710"/>
			<point x="413" y="710" type="curve" smooth="yes"/>
			<point x="139" y="710"/>
			<point x="56" y="361"/>
			<point x="56" y="184" type="curve" smooth="yes"/>
			<point x="56" y="55"/>
			<point x="108" y="-10"/>
			<point x="254" y="-10" type="curve" smooth="yes"/>
			<point x="318" y="-10"/>
			<point x="376" y="1"/>
		</contour>
	</outline>
</glyph>
<glyph name="Ccaron" format="2">
	<advance width="518"/>
	<unicode hex="010C"/>
	<note>
		Ccaron
	</note>
	<outline>
		<contour>
			<point x="528" y="915" type="line"/>
			<point x="434" y="829" type="line"/>
			<point x="378" y="915" type="line"/>
			<point x="309" y="915" type="line"/>
			<point x="393" y="776" type="line"/>
			<point x="465" y="776" type="line"/>
			<point x="609" y="915" type="line"/>
		</contour>
		<contour>
			<point x="426" y="11" type="curve"/>
			<point x="437" y="77" type="line"/>
			<point x="388" y="68"/>
			<point x="330" y="59"/>
			<point x="276" y="59" type="curve" smooth="yes"/>
			<point x="170" y="59"/>
			<point x="136" y="91"/>
			<point x="136" y="185" type="curve" smooth="yes"/>
			<point x="136" y="332"/>
			<point x="214" y="641"/>
			<point x="407" y="641" type="curve" smooth="yes"/>
			<point x="453" y="641"/>
			<point x="518" y="627"/>
			<point x="560" y="617" type="curve"/>
			<point x="577" y="682" type="line"/>
			<point x="536" y="693"/>
			<point x="477" y="710"/>
			<point x="413" y="710" type="curve" smooth="yes"/>
			<point x="139" y="710"/>
			<point x="56" y="361"/>
			<point x="56" y="184" type="curve" smooth="yes"/>
			<point x="56" y="55"/>
			<point x="108" y="-10"/>
			<point x="254" y="-10" type="curve" smooth="yes"/>
			<point x="318" y="-10"/>
			<point x="376" y="1"/>
		</contour>
	</outline>
</glyph>
<glyph name="ccaron" format="2">
	<advance width="422"/>
	<unicode hex="010D"/>
	<note>
		ccaron
	</note>
	<outline>
		<contour>
			<point x="429" y="735" type="line"/>
			<point x="335" y="649" type="line"/>
			<point x="279" y="735" type="line"/>
			<point x="211" y="735" type="line"/>
			<point x="295" y="596" type="line"/>
			<point x="367" y="596" type="line"/>
			<point x="511" y="735" type="line"/>
		</contour>
		<contour>
			<point x="308" y="514" type="curve" smooth="yes"/>
			<point x="89" y="514"/>
			<point x="38" y="271"/>
			<point x="38" y="153" type="curve" smooth="yes"/>
			<point x="38" y="34"/>
			<point x="89" y="-12"/>
			<point x="194" y="-12" type="curve" smooth="yes"/>
			<point x="249" y="-12"/>
			<point x="328" y="2"/>
			<point x="328" y="2" type="curve"/>
			<point x="340" y="65" type="line"/>
			<point x="340" y="65"/>
			<point x="266" y="55"/>
			<point x="210" y="55" type="curve" smooth="yes"/>
			<point x="143" y="55"/>
			<point x="114" y="71"/>
			<point x="114" y="156" type="curve" smooth="yes"/>
			<point x="114" y="232"/>
			<point x="137" y="447"/>
			<point x="311" y="447" type="curve" smooth="yes"/>
			<point x="349" y="447"/>
			<point x="417" y="438"/>
			<point x="417" y="438" type="curve"/>
			<point x="436" y="499" type="line"/>
			<point x="436" y="499"/>
			<point x="353" y="514"/>
		</contour>
	</outline>
</glyph>
<glyph name="Dcaron" format="2">
	<advance width="624"/>
	<unicode hex="010E"/>
	<note>
		Dcaron
	</note>
	<outline>
		<contour>
			<point x="498" y="915" type="line"/>
			<point x="404" y="829" type="line"/>
			<point x="348" y="915" type="line"/>
			<point x="279" y="915" type="line"/>
			<point x="363" y="776" type="line"/>
			<point x="435" y="776" type="line"/>
			<point x="579" y="915" type="line"/>
		</contour>
		<contour>
			<point x="181" y="700" type="line"/>
			<point x="32" y="0" type="line"/>
			<point x="234" y="0" type="line" smooth="yes"/>
			<point x="489" y="0"/>
			<point x="606" y="261"/>
			<point x="606" y="487" type="curve" smooth="yes"/>
			<point x="606" y="616"/>
			<point x="554" y="700"/>
			<point x="383" y="700" type="curve" smooth="yes"/>
		</contour>
		<contour>
			<point x="245" y="68" type="curve" smooth="yes"/>
			<point x="124" y="68" type="line"/>
			<point x="244" y="632" type="line"/>
			<point x="384" y="632" type="line" smooth="yes"/>
			<point x="492" y="632"/>
			<point x="526" y="576"/>
			<point x="526" y="490" type="curve" smooth="yes"/>
			<point x="526" y="290"/>
			<point x="414" y="68"/>
		</contour>
	</outline>
</glyph>
<glyph name="dcaron" format="2">
	<advance width="526"/>
	<unicode hex="010F"/>
	<note>
		dcaron
	</note>
	<outline>
		<contour>
			<point x="315" y="0" type="line"/>
			<point x="381" y="0" type="line"/>
			<point x="536" y="730" type="line"/>
			<point x="464" y="730" type="line"/>
			<point x="414" y="496" type="line"/>
			<point x="411" y="496"/>
			<point x="332" y="514"/>
			<point x="274" y="514" type="curve" smooth="yes"/>
			<point x="116" y="514"/>
			<point x="37" y="309"/>
			<point x="37" y="139" type="curve" smooth="yes"/>
			<point x="37" y="40"/>
			<point x="79" y="-12"/>
			<point x="156" y="-12" type="curve" smooth="yes"/>
			<point x="249" y="-12"/>
			<point x="332" y="90"/>
			<point x="332" y="90" type="curve"/>
		</contour>
		<contour>
			<point x="570" y="604" type="curve"/>
			<point x="606" y="586" type="line"/>
			<point x="606" y="586"/>
			<point x="660" y="628"/>
			<point x="667" y="665" type="curve" smooth="yes"/>
			<point x="673" y="690"/>
			<point x="680" y="730"/>
			<point x="680" y="730" type="curve"/>
			<point x="613" y="730" type="line"/>
			<point x="613" y="730"/>
			<point x="607" y="685"/>
			<point x="604" y="674" type="curve" smooth="yes"/>
			<point x="601" y="656"/>
			<point x="570" y="604"/>
		</contour>
		<contour>
			<point x="398" y="434" type="curve"/>
			<point x="346" y="181" type="line"/>
			<point x="346" y="181"/>
			<point x="267" y="59"/>
			<point x="184" y="59" type="curve" smooth="yes"/>
			<point x="138" y="59"/>
			<point x="113" y="84"/>
			<point x="113" y="135" type="curve" smooth="yes"/>
			<point x="113" y="263"/>
			<point x="162" y="449"/>
			<point x="276" y="449" type="curve" smooth="yes"/>
			<point x="327" y="449"/>
			<point x="398" y="434"/>
		</contour>
	</outline>
</glyph>
<glyph name="Emacron" format="2">
  <advance width="522"/>
  <unicode hex="0112"/>
  <note>
Emacron
</note>
  <outline>
    <contour>
      <point x="548" y="863" type="line"/>
      <point x="273" y="863" type="line"/>
      <point x="261" y="804" type="line"/>
      <point x="536" y="804" type="line"/>
    </contour>
    <contour>
      <point x="571" y="700" type="line"/>
      <point x="181" y="700" type="line"/>
      <point x="32" y="0" type="line"/>
      <point x="421" y="0" type="line"/>
      <point x="435" y="68" type="line"/>
      <point x="124" y="68" type="line"/>
      <point x="178" y="323" type="line"/>
      <point x="432" y="323" type="line"/>
      <point x="446" y="389" type="line"/>
      <point x="192" y="389" type="line"/>
      <point x="244" y="632" type="line"/>
      <point x="557" y="632" type="line"/>
    </contour>
  </outline>
</glyph>
<glyph name="Ebreve" format="2">
	<advance width="522"/>
	<unicode hex="0114"/>
	<note>
		Ebreve
	</note>
	<outline>
		<contour>
			<point x="330" y="911" type="curve"/>
			<point x="272" y="911" type="line"/>
			<point x="261" y="834"/>
			<point x="305" y="771"/>
			<point x="395" y="771" type="curve" smooth="yes"/>
			<point x="492" y="771"/>
			<point x="549" y="834"/>
			<point x="569" y="911" type="curve"/>
			<point x="504" y="911" type="line"/>
			<point x="491" y="862"/>
			<point x="452" y="827"/>
			<point x="399" y="827" type="curve" smooth="yes"/>
			<point x="346" y="827"/>
			<point x="321" y="862"/>
		</contour>
		<contour>
			<point x="571" y="700" type="line"/>
			<point x="181" y="700" type="line"/>
			<point x="32" y="0" type="line"/>
			<point x="421" y="0" type="line"/>
			<point x="435" y="68" type="line"/>
			<point x="124" y="68" type="line"/>
			<point x="178" y="323" type="line"/>
			<point x="432" y="323" type="line"/>
			<point x="446" y="389" type="line"/>
			<point x="192" y="389" type="line"/>
			<point x="244" y="632" type="line"/>
			<point x="557" y="632" type="line"/>
		</contour>
	</outline>
</glyph>
<glyph name="Edotaccent" format="2">
	<advance width="522"/>
	<unicode hex="0116"/>
	<note>
		Edotaccent
	</note>
	<outline>
		<contour>
			<point x="455" y="900" type="line"/>
			<point x="381" y="900" type="line"/>
			<point x="361" y="804" type="line"/>
			<point x="434" y="804" type="line"/>
		</contour>
		<contour>
			<point x="571" y="700" type="line"/>
			<point x="181" y="700" type="line"/>
			<point x="32" y="0" type="line"/>
			<point x="421" y="0" type="line"/>
			<point x="435" y="68" type="line"/>
			<point x="124" y="68" type="line"/>
			<point x="178" y="323" type="line"/>
			<point x="432" y="323" type="line"/>
			<point x="446" y="389" type="line"/>
			<point x="192" y="389" type="line"/>
			<point x="244" y="632" type="line"/>
			<point x="557" y="632" type="line"/>
		</contour>
	</outline>
</glyph>
<glyph name="Eogonek" format="2">
  <advance width="522"/>
  <unicode hex="0118"/>
  <note>
Eogonek
</note>
  <outline>
    <contour>
      <point x="398" y="0" type="curve"/>
      <point x="421" y="0" type="line"/>
      <point x="435" y="68" type="line"/>
      <point x="124" y="68" type="line"/>
      <point x="178" y="323" type="line"/>
      <point x="432" y="323" type="line"/>
      <point x="446" y="389" type="line"/>
      <point x="192" y="389" type="line"/>
      <point x="244" y="632" type="line"/>
      <point x="557" y="632" type="line"/>
      <point x="571" y="700" type="line"/>
      <point x="181" y="700" type="line"/>
      <point x="32" y="0" type="line"/>
      <point x="329" y="0" type="line"/>
      <point x="265" y="-50"/>
      <point x="227" y="-92"/>
      <point x="227" y="-140" type="curve" smooth="yes"/>
      <point x="227" y="-182"/>
      <point x="257" y="-206"/>
      <point x="302" y="-206" type="curve" smooth="yes"/>
      <point x="336" y="-206"/>
      <point x="383" y="-197"/>
      <point x="383" y="-197" type="curve"/>
      <point x="388" y="-139" type="line"/>
      <point x="388" y="-139"/>
      <point x="351" y="-145"/>
      <point x="337" y="-145" type="curve" smooth="yes"/>
      <point x="316" y="-145"/>
      <point x="304" y="-132"/>
      <point x="304" y="-112" type="curve" smooth="yes"/>
      <point x="304" y="-89"/>
      <point x="330" y="-57"/>
    </contour>
  </outline>
</glyph>
<glyph name="eogonek" format="2">
	<advance width="470"/>
	<unicode hex="0119"/>
	<note>
		eogonek
	</note>
	<outline>
		<contour>
			<point x="209" y="55" type="curve" smooth="yes"/>
			<point x="142" y="55"/>
			<point x="112" y="74"/>
			<point x="112" y="146" type="curve" smooth="yes"/>
			<point x="112" y="174"/>
			<point x="114" y="207"/>
			<point x="120" y="233" type="curve"/>
			<point x="234" y="235" type="line" smooth="yes"/>
			<point x="377" y="238"/>
			<point x="455" y="272"/>
			<point x="455" y="384" type="curve" smooth="yes"/>
			<point x="455" y="479"/>
			<point x="396" y="514"/>
			<point x="312" y="514" type="curve" smooth="yes"/>
			<point x="115" y="514"/>
			<point x="37" y="318"/>
			<point x="37" y="146" type="curve" smooth="yes"/>
			<point x="37" y="38"/>
			<point x="91" y="-12"/>
			<point x="188" y="-12" type="curve" smooth="yes"/>
			<point x="201" y="-12"/>
			<point x="214" y="-12"/>
			<point x="226" y="-11" type="curve"/>
			<point x="171" y="-56"/>
			<point x="138" y="-95"/>
			<point x="138" y="-140" type="curve" smooth="yes"/>
			<point x="138" y="-182"/>
			<point x="168" y="-206"/>
			<point x="213" y="-206" type="curve" smooth="yes"/>
			<point x="247" y="-206"/>
			<point x="294" y="-197"/>
			<point x="294" y="-197" type="curve"/>
			<point x="299" y="-139" type="line"/>
			<point x="299" y="-139"/>
			<point x="262" y="-145"/>
			<point x="248" y="-145" type="curve" smooth="yes"/>
			<point x="227" y="-145"/>
			<point x="215" y="-132"/>
			<point x="215" y="-112" type="curve" smooth="yes"/>
			<point x="215" y="-89"/>
			<point x="238" y="-49"/>
			<point x="291" y="-17" type="curve" smooth="yes"/>
			<point x="326" y="5"/>
			<point x="361" y="10"/>
			<point x="361" y="10" type="curve"/>
			<point x="373" y="77" type="line"/>
			<point x="373" y="77"/>
			<point x="283" y="55"/>
		</contour>
		<contour>
			<point x="218" y="296" type="curve" smooth="yes"/>
			<point x="133" y="293" type="line"/>
			<point x="160" y="389"/>
			<point x="214" y="449"/>
			<point x="301" y="449" type="curve" smooth="yes"/>
			<point x="356" y="449"/>
			<point x="380" y="425"/>
			<point x="380" y="381" type="curve" smooth="yes"/>
			<point x="380" y="311"/>
			<point x="319" y="300"/>
		</contour>
	</outline>
</glyph>
<glyph name="Ecaron" format="2">
	<advance width="522"/>
	<unicode hex="011A"/>
	<note>
		Ecaron
	</note>
	<outline>
		<contour>
			<point x="491" y="915" type="line"/>
			<point x="397" y="829" type="line"/>
			<point x="341" y="915" type="line"/>
			<point x="272" y="915" type="line"/>
			<point x="356" y="776" type="line"/>
			<point x="428" y="776" type="line"/>
			<point x="572" y="915" type="line"/>
		</contour>
		<contour>
			<point x="571" y="700" type="line"/>
			<point x="181" y="700" type="line"/>
			<point x="32" y="0" type="line"/>
			<point x="421" y="0" type="line"/>
			<point x="435" y="68" type="line"/>
			<point x="124" y="68" type="line"/>
			<point x="178" y="323" type="line"/>
			<point x="432" y="323" type="line"/>
			<point x="446" y="389" type="line"/>
			<point x="192" y="389" type="line"/>
			<point x="244" y="632" type="line"/>
			<point x="557" y="632" type="line"/>
		</contour>
	</outline>
</glyph>
<glyph name="gcommaaccent" format="2">
	<advance width="475"/>
	<unicode hex="0123"/>
	<note>
		gcommaaccent
	</note>
	<outline>
		<contour>
			<point x="215" y="629" type="line"/>
			<point x="268" y="591" type="line"/>
			<point x="363" y="709" type="line"/>
			<point x="326" y="740" type="line"/>
		</contour>
		<contour>
			<point x="152" y="-240" type="curve" smooth="yes"/>
			<point x="305" y="-240"/>
			<point x="404" y="-188"/>
			<point x="404" y="-55" type="curve" smooth="yes"/>
			<point x="404" y="8"/>
			<point x="376" y="47"/>
			<point x="289" y="62" type="curve" smooth="yes"/>
			<point x="181" y="81" type="line" smooth="yes"/>
			<point x="152" y="86"/>
			<point x="144" y="94"/>
			<point x="144" y="107" type="curve" smooth="yes"/>
			<point x="144" y="133"/>
			<point x="175" y="177"/>
			<point x="175" y="177" type="curve"/>
			<point x="175" y="177"/>
			<point x="194" y="174"/>
			<point x="208" y="174" type="curve" smooth="yes"/>
			<point x="348" y="174"/>
			<point x="419" y="272"/>
			<point x="419" y="371" type="curve" smooth="yes"/>
			<point x="419" y="403"/>
			<point x="411" y="425"/>
			<point x="402" y="440" type="curve"/>
			<point x="491" y="440" type="line"/>
			<point x="506" y="504" type="line"/>
			<point x="358" y="498" type="line"/>
			<point x="358" y="498"/>
			<point x="314" y="514"/>
			<point x="262" y="514" type="curve" smooth="yes"/>
			<point x="133" y="514"/>
			<point x="61" y="419"/>
			<point x="61" y="313" type="curve" smooth="yes"/>
			<point x="61" y="252"/>
			<point x="86" y="214"/>
			<point x="130" y="193" type="curve"/>
			<point x="130" y="193"/>
			<point x="72" y="140"/>
			<point x="72" y="95" type="curve" smooth="yes"/>
			<point x="72" y="77"/>
			<point x="78" y="63"/>
			<point x="88" y="52" type="curve"/>
			<point x="21" y="9"/>
			<point x="-48" y="-27"/>
			<point x="-48" y="-110" type="curve" smooth="yes"/>
			<point x="-48" y="-193"/>
			<point x="6" y="-240"/>
		</contour>
		<contour>
			<point x="215" y="236" type="curve" smooth="yes"/>
			<point x="154" y="236"/>
			<point x="133" y="269"/>
			<point x="133" y="316" type="curve" smooth="yes"/>
			<point x="133" y="385"/>
			<point x="176" y="452"/>
			<point x="258" y="452" type="curve" smooth="yes"/>
			<point x="323" y="452"/>
			<point x="347" y="422"/>
			<point x="347" y="367" type="curve" smooth="yes"/>
			<point x="347" y="306"/>
			<point x="307" y="236"/>
		</contour>
		<contour>
			<point x="172" y="10" type="curve" smooth="yes"/>
			<point x="257" y="-7" type="line" smooth="yes"/>
			<point x="305" y="-17"/>
			<point x="330" y="-35"/>
			<point x="330" y="-77" type="curve" smooth="yes"/>
			<point x="330" y="-148"/>
			<point x="270" y="-178"/>
			<point x="163" y="-178" type="curve" smooth="yes"/>
			<point x="63" y="-178"/>
			<point x="23" y="-154"/>
			<point x="23" y="-105" type="curve" smooth="yes"/>
			<point x="23" y="-52"/>
			<point x="62" y="-23"/>
			<point x="128" y="22" type="curve"/>
			<point x="138" y="18"/>
			<point x="149" y="15"/>
		</contour>
	</outline>
</glyph>
<glyph name="Hcircumflex" format="2">
  <advance width="668"/>
  <unicode hex="0124"/>
  <note>
Hcircumflex
</note>
  <outline>
    <contour>
      <point x="368" y="776" type="line"/>
      <point x="462" y="864" type="line"/>
      <point x="518" y="776" type="line"/>
      <point x="587" y="776" type="line"/>
      <point x="503" y="915" type="line"/>
      <point x="431" y="915" type="line"/>
      <point x="287" y="776" type="line"/>
    </contour>
    <contour>
      <point x="178" y="321" type="line"/>
      <point x="521" y="321" type="line"/>
      <point x="452" y="0" type="line"/>
      <point x="530" y="0" type="line"/>
      <point x="679" y="700" type="line"/>
      <point x="601" y="700" type="line"/>
      <point x="536" y="391" type="line"/>
      <point x="193" y="391" type="line"/>
      <point x="259" y="700" type="line"/>
      <point x="181" y="700" type="line"/>
      <point x="32" y="0" type="line"/>
      <point x="110" y="0" type="line"/>
    </contour>
  </outline>
</glyph>
<glyph name="hcircumflex" format="2">
  <advance width="506"/>
  <unicode hex="0125"/>
  <note>
hcircumflex
</note>
  <outline>
    <contour>
      <point x="152" y="806" type="line"/>
      <point x="246" y="894" type="line"/>
      <point x="302" y="806" type="line"/>
      <point x="371" y="806" type="line"/>
      <point x="287" y="945" type="line"/>
      <point x="215" y="945" type="line"/>
      <point x="71" y="806" type="line"/>
    </contour>
    <contour>
      <point x="173" y="730" type="line"/>
      <point x="20" y="0" type="line"/>
      <point x="94" y="0" type="line"/>
      <point x="164" y="338" type="line"/>
      <point x="164" y="338"/>
      <point x="244" y="443"/>
      <point x="320" y="443" type="curve" smooth="yes"/>
      <point x="359" y="443"/>
      <point x="384" y="418"/>
      <point x="384" y="371" type="curve" smooth="yes"/>
      <point x="384" y="337"/>
      <point x="372" y="285"/>
      <point x="365" y="253" type="curve" smooth="yes"/>
      <point x="311" y="0" type="line"/>
      <point x="385" y="0" type="line"/>
      <point x="440" y="258" type="line" smooth="yes"/>
      <point x="448" y="294"/>
      <point x="460" y="347"/>
      <point x="460" y="388" type="curve" smooth="yes"/>
      <point x="460" y="463"/>
      <point x="424" y="514"/>
      <point x="351" y="514" type="curve" smooth="yes"/>
      <point x="251" y="514"/>
      <point x="179" y="423"/>
      <point x="179" y="423" type="curve"/>
      <point x="244" y="730" type="line"/>
    </contour>
  </outline>
</glyph>
<glyph name="Hbar" format="2">
  <advance width="701"/>
  <unicode hex="0126"/>
  <note>
Hbar
</note>
  <outline>
    <contour>
      <point x="173" y="581" type="line"/>
      <point x="92" y="581" type="line"/>
      <point x="78" y="513" type="line"/>
      <point x="158" y="513" type="line"/>
      <point x="49" y="0" type="line"/>
      <point x="127" y="0" type="line"/>
      <point x="195" y="321" type="line"/>
      <point x="538" y="321" type="line"/>
      <point x="469" y="0" type="line"/>
      <point x="547" y="0" type="line"/>
      <point x="656" y="513" type="line"/>
      <point x="733" y="513" type="line"/>
      <point x="747" y="581" type="line"/>
      <point x="671" y="581" type="line"/>
      <point x="696" y="700" type="line"/>
      <point x="618" y="700" type="line"/>
      <point x="593" y="581" type="line"/>
      <point x="251" y="581" type="line"/>
      <point x="276" y="700" type="line"/>
      <point x="198" y="700" type="line"/>
    </contour>
    <contour>
      <point x="553" y="391" type="line"/>
      <point x="210" y="391" type="line"/>
      <point x="236" y="513" type="line"/>
      <point x="579" y="513" type="line"/>
    </contour>
  </outline>
</glyph>
<glyph name="hbar" format="2">
  <advance width="506"/>
  <unicode hex="0127"/>
  <note>
hbar
</note>
  <outline>
    <contour>
      <point x="142" y="583" type="line"/>
      <point x="20" y="0" type="line"/>
      <point x="94" y="0" type="line"/>
      <point x="164" y="338" type="line"/>
      <point x="164" y="338"/>
      <point x="244" y="443"/>
      <point x="320" y="443" type="curve" smooth="yes"/>
      <point x="359" y="443"/>
      <point x="384" y="418"/>
      <point x="384" y="371" type="curve" smooth="yes"/>
      <point x="384" y="337"/>
      <point x="372" y="285"/>
      <point x="365" y="253" type="curve" smooth="yes"/>
      <point x="311" y="0" type="line"/>
      <point x="385" y="0" type="line"/>
      <point x="440" y="258" type="line" smooth="yes"/>
      <point x="448" y="294"/>
      <point x="460" y="347"/>
      <point x="460" y="388" type="curve" smooth="yes"/>
      <point x="460" y="463"/>
      <point x="424" y="514"/>
      <point x="351" y="514" type="curve" smooth="yes"/>
      <point x="251" y="514"/>
      <point x="179" y="423"/>
      <point x="179" y="423" type="curve"/>
      <point x="213" y="583" type="line"/>
      <point x="399" y="583" type="line"/>
      <point x="413" y="647" type="line"/>
      <point x="226" y="647" type="line"/>
      <point x="244" y="730" type="line"/>
      <point x="173" y="730" type="line"/>
      <point x="156" y="647" type="line"/>
      <point x="67" y="647" type="line"/>
      <point x="53" y="583" type="line"/>
    </contour>
  </outline>
</glyph>
<glyph name="Itilde" format="2">
  <advance width="248"/>
  <unicode hex="0128"/>
  <note>
Itilde
</note>
  <outline>
    <contour>
      <point x="422" y="853" type="curve"/>
      <point x="400" y="891" type="line"/>
      <point x="400" y="891"/>
      <point x="344" y="853"/>
      <point x="323" y="853" type="curve" smooth="yes"/>
      <point x="293" y="853"/>
      <point x="233" y="899"/>
      <point x="193" y="899" type="curve" smooth="yes"/>
      <point x="152" y="899"/>
      <point x="77" y="837"/>
      <point x="77" y="837" type="curve"/>
      <point x="99" y="799" type="line"/>
      <point x="99" y="799"/>
      <point x="157" y="839"/>
      <point x="181" y="839" type="curve" smooth="yes"/>
      <point x="213" y="839"/>
      <point x="270" y="792"/>
      <point x="310" y="792" type="curve" smooth="yes"/>
      <point x="350" y="792"/>
      <point x="409" y="843"/>
    </contour>
    <contour>
      <point x="259" y="700" type="line"/>
      <point x="181" y="700" type="line"/>
      <point x="32" y="0" type="line"/>
      <point x="110" y="0" type="line"/>
    </contour>
  </outline>
</glyph>
<glyph name="itilde" format="2">
  <advance width="220"/>
  <unicode hex="0129"/>
  <note>
itilde
</note>
  <outline>
    <contour>
      <point x="361" y="673" type="curve"/>
      <point x="339" y="711" type="line"/>
      <point x="339" y="711"/>
      <point x="283" y="673"/>
      <point x="262" y="673" type="curve" smooth="yes"/>
      <point x="232" y="673"/>
      <point x="172" y="719"/>
      <point x="132" y="719" type="curve" smooth="yes"/>
      <point x="91" y="719"/>
      <point x="16" y="657"/>
      <point x="16" y="657" type="curve"/>
      <point x="38" y="619" type="line"/>
      <point x="38" y="619"/>
      <point x="96" y="659"/>
      <point x="120" y="659" type="curve" smooth="yes"/>
      <point x="152" y="659"/>
      <point x="209" y="612"/>
      <point x="249" y="612" type="curve" smooth="yes"/>
      <point x="289" y="612"/>
      <point x="348" y="663"/>
    </contour>
    <contour>
      <point x="200" y="500" type="line"/>
      <point x="126" y="500" type="line"/>
      <point x="19" y="0" type="line"/>
      <point x="94" y="0" type="line"/>
    </contour>
  </outline>
</glyph>
<glyph name="Imacron" format="2">
  <advance width="248"/>
  <unicode hex="012A"/>
  <note>
Imacron
</note>
  <outline>
    <contour>
      <point x="391" y="863" type="line"/>
      <point x="116" y="863" type="line"/>
      <point x="104" y="804" type="line"/>
      <point x="379" y="804" type="line"/>
    </contour>
    <contour>
      <point x="259" y="700" type="line"/>
      <point x="181" y="700" type="line"/>
      <point x="32" y="0" type="line"/>
      <point x="110" y="0" type="line"/>
    </contour>
  </outline>
</glyph>
<glyph name="imacron" format="2">
	<advance width="220"/>
	<unicode hex="012B"/>
	<note>
		imacron
	</note>
	<outline>
		<contour>
			<point x="339" y="683" type="line"/>
			<point x="64" y="683" type="line"/>
			<point x="52" y="624" type="line"/>
			<point x="327" y="624" type="line"/>
		</contour>
		<contour>
			<point x="200" y="500" type="line"/>
			<point x="126" y="500" type="line"/>
			<point x="19" y="0" type="line"/>
			<point x="94" y="0" type="line"/>
		</contour>
	</outline>
</glyph>
<glyph name="Ibreve" format="2">
	<advance width="248"/>
	<unicode hex="012C"/>
	<note>
		Ibreve
	</note>
	<outline>
		<contour>
			<point x="173" y="911" type="curve"/>
			<point x="115" y="911" type="line"/>
			<point x="104" y="834"/>
			<point x="148" y="771"/>
			<point x="238" y="771" type="curve" smooth="yes"/>
			<point x="335" y="771"/>
			<point x="392" y="834"/>
			<point x="412" y="911" type="curve"/>
			<point x="347" y="911" type="line"/>
			<point x="334" y="862"/>
			<point x="295" y="827"/>
			<point x="242" y="827" type="curve" smooth="yes"/>
			<point x="189" y="827"/>
			<point x="164" y="862"/>
		</contour>
		<contour>
			<point x="259" y="700" type="line"/>
			<point x="181" y="700" type="line"/>
			<point x="32" y="0" type="line"/>
			<point x="110" y="0" type="line"/>
		</contour>
	</outline>
</glyph>
<glyph name="ibreve" format="2">
	<advance width="220"/>
	<unicode hex="012D"/>
	<note>
		ibreve
	</note>
	<outline>
		<contour>
			<point x="122" y="731" type="curve"/>
			<point x="62" y="731" type="line"/>
			<point x="54" y="654"/>
			<point x="98" y="591"/>
			<point x="188" y="591" type="curve" smooth="yes"/>
			<point x="278" y="591"/>
			<point x="339" y="648"/>
			<point x="362" y="731" type="curve"/>
			<point x="296" y="731" type="line"/>
			<point x="283" y="682"/>
			<point x="244" y="647"/>
			<point x="191" y="647" type="curve" smooth="yes"/>
			<point x="138" y="647"/>
			<point x="113" y="682"/>
		</contour>
		<contour>
			<point x="200" y="500" type="line"/>
			<point x="126" y="500" type="line"/>
			<point x="19" y="0" type="line"/>
			<point x="94" y="0" type="line"/>
		</contour>
	</outline>
</glyph>
<glyph name="Iogonek" format="2">
	<advance width="248"/>
	<unicode hex="012E"/>
	<note>
		Iogonek
	</note>
	<outline>
		<contour>
			<point x="110" y="0" type="curve"/>
			<point x="259" y="700" type="line"/>
			<point x="181" y="700" type="line"/>
			<point x="32" y="0" type="line"/>
			<point x="41" y="0" type="line"/>
			<point x="-23" y="-50"/>
			<point x="-61" y="-92"/>
			<point x="-61" y="-140" type="curve" smooth="yes"/>
			<point x="-61" y="-182"/>
			<point x="-31" y="-206"/>
			<point x="14" y="-206" type="curve" smooth="yes"/>
			<point x="48" y="-206"/>
			<point x="95" y="-197"/>
			<point x="95" y="-197" type="curve"/>
			<point x="100" y="-139" type="line"/>
			<point x="100" y="-139"/>
			<point x="63" y="-145"/>
			<point x="49" y="-145" type="curve" smooth="yes"/>
			<point x="28" y="-145"/>
			<point x="16" y="-132"/>
			<point x="16" y="-112" type="curve" smooth="yes"/>
			<point x="16" y="-89"/>
			<point x="42" y="-57"/>
		</contour>
	</outline>
</glyph>
<glyph name="iogonek" format="2">
  <advance width="220"/>
  <unicode hex="012F"/>
  <note>
iogonek
</note>
  <outline>
    <contour>
      <point x="242" y="700" type="line"/>
      <point x="169" y="700" type="line"/>
      <point x="148" y="603" type="line"/>
      <point x="221" y="603" type="line"/>
    </contour>
    <contour>
      <point x="94" y="0" type="curve"/>
      <point x="200" y="500" type="line"/>
      <point x="126" y="500" type="line"/>
      <point x="19" y="0" type="line"/>
      <point x="25" y="0" type="line"/>
      <point x="-39" y="-50"/>
      <point x="-77" y="-92"/>
      <point x="-77" y="-140" type="curve" smooth="yes"/>
      <point x="-77" y="-182"/>
      <point x="-47" y="-206"/>
      <point x="-2" y="-206" type="curve" smooth="yes"/>
      <point x="32" y="-206"/>
      <point x="79" y="-197"/>
      <point x="79" y="-197" type="curve"/>
      <point x="84" y="-139" type="line"/>
      <point x="84" y="-139"/>
      <point x="47" y="-145"/>
      <point x="33" y="-145" type="curve" smooth="yes"/>
      <point x="12" y="-145"/>
      <point x="0" y="-132"/>
      <point x="0" y="-112" type="curve" smooth="yes"/>
      <point x="0" y="-89"/>
      <point x="26" y="-57"/>
    </contour>
  </outline>
</glyph>
<glyph name="Idotaccent" format="2">
	<advance width="248"/>
	<unicode hex="0130"/>
	<note>
		Idotaccent
	</note>
	<outline>
		<contour>
			<point x="298" y="900" type="line"/>
			<point x="224" y="900" type="line"/>
			<point x="204" y="804" type="line"/>
			<point x="277" y="804" type="line"/>
		</contour>
		<contour>
			<point x="259" y="700" type="line"/>
			<point x="181" y="700" type="line"/>
			<point x="32" y="0" type="line"/>
			<point x="110" y="0" type="line"/>
		</contour>
	</outline>
</glyph>
<glyph name="idotless" format="2">
	<advance width="220"/>
	<unicode hex="0131"/>
	<note>
		idotless
	</note>
	<outline>
		<contour>
			<point x="200" y="500" type="line"/>
			<point x="126" y="500" type="line"/>
			<point x="19" y="0" type="line"/>
			<point x="94" y="0" type="line"/>
		</contour>
	</outline>
</glyph>
<glyph name="IJ" format="2">
	<advance width="558"/>
	<unicode hex="0132"/>
	<note>
		IJ
	</note>
	<outline>
		<contour>
			<point x="259" y="700" type="line"/>
			<point x="181" y="700" type="line"/>
			<point x="32" y="0" type="line"/>
			<point x="110" y="0" type="line"/>
		</contour>
		<contour>
			<point x="453" y="140" type="curve" smooth="yes"/>
			<point x="572" y="700" type="line"/>
			<point x="494" y="700" type="line"/>
			<point x="378" y="152" type="line" smooth="yes"/>
			<point x="360" y="68"/>
			<point x="337" y="63"/>
			<point x="248" y="63" type="curve"/>
			<point x="233" y="-7" type="line"/>
			<point x="382" y="-7"/>
			<point x="425" y="10"/>
		</contour>
	</outline>
</glyph>
<glyph name="ij" format="2">
  <advance width="470"/>
  <unicode hex="0133"/>
  <note>
ij
</note>
  <outline>
    <contour>
      <point x="242" y="700" type="line"/>
      <point x="169" y="700" type="line"/>
      <point x="148" y="603" type="line"/>
      <point x="221" y="603" type="line"/>
    </contour>
    <contour>
      <point x="491" y="700" type="line"/>
      <point x="418" y="700" type="line"/>
      <point x="397" y="603" type="line"/>
      <point x="470" y="603" type="line"/>
    </contour>
    <contour>
      <point x="200" y="500" type="line"/>
      <point x="126" y="500" type="line"/>
      <point x="19" y="0" type="line"/>
      <point x="94" y="0" type="line"/>
    </contour>
    <contour>
      <point x="450" y="500" type="line"/>
      <point x="376" y="500" type="line"/>
      <point x="268" y="-4" type="line" smooth="yes"/>
      <point x="248" y="-100"/>
      <point x="223" y="-123"/>
      <point x="111" y="-182" type="curve"/>
      <point x="128" y="-240" type="line"/>
      <point x="273" y="-172"/>
      <point x="317" y="-128"/>
      <point x="343" y="-5" type="curve" smooth="yes"/>
    </contour>
  </outline>
</glyph>
<glyph name="Kcommaaccent" format="2">
  <advance width="560"/>
  <unicode hex="0136"/>
  <note>
Kcommaaccent
</note>
  <outline>
    <contour>
      <point x="175" y="308" type="line"/>
      <point x="294" y="312" type="line"/>
      <point x="418" y="0" type="line"/>
      <point x="500" y="0" type="line"/>
      <point x="361" y="350" type="line"/>
      <point x="620" y="700" type="line"/>
      <point x="529" y="700" type="line"/>
      <point x="297" y="380" type="line"/>
      <point x="190" y="376" type="line"/>
      <point x="259" y="700" type="line"/>
      <point x="181" y="700" type="line"/>
      <point x="32" y="0" type="line"/>
      <point x="110" y="0" type="line"/>
    </contour>
    <contour>
      <point x="285" y="-120" type="line"/>
      <point x="227" y="-77" type="line"/>
      <point x="139" y="-221" type="line"/>
      <point x="183" y="-252" type="line"/>
    </contour>
  </outline>
</glyph>
<glyph name="Lacute" format="2">
	<advance width="469"/>
	<unicode hex="0139"/>
	<note>
		Lacute
	</note>
	<outline>
		<contour>
			<point x="334" y="920" type="line"/>
			<point x="139" y="822" type="line"/>
			<point x="165" y="771" type="line"/>
			<point x="368" y="856" type="line"/>
		</contour>
		<contour>
			<point x="181" y="700" type="line"/>
			<point x="32" y="0" type="line"/>
			<point x="407" y="0" type="line"/>
			<point x="422" y="70" type="line"/>
			<point x="125" y="70" type="line"/>
			<point x="259" y="700" type="line"/>
		</contour>
	</outline>
</glyph>
<glyph name="lacute" format="2">
  <advance width="260"/>
  <unicode hex="013A"/>
  <note>
lacute
</note>
  <outline>
    <contour>
      <point x="321" y="950" type="line"/>
      <point x="126" y="852" type="line"/>
      <point x="152" y="801" type="line"/>
      <point x="355" y="886" type="line"/>
    </contour>
    <contour>
      <point x="113" y="104" type="curve" smooth="yes"/>
      <point x="245" y="730" type="line"/>
      <point x="172" y="730" type="line"/>
      <point x="39" y="101" type="line" smooth="yes"/>
      <point x="23" y="27"/>
      <point x="52" y="-12"/>
      <point x="134" y="-12" type="curve" smooth="yes"/>
      <point x="168" y="-12"/>
      <point x="193" y="-4"/>
      <point x="193" y="-4" type="curve"/>
      <point x="201" y="57" type="line"/>
      <point x="201" y="57"/>
      <point x="179" y="55"/>
      <point x="152" y="55" type="curve" smooth="yes"/>
      <point x="108" y="55"/>
      <point x="105" y="68"/>
    </contour>
  </outline>
</glyph>
<glyph name="Lcommaaccent" format="2">
  <advance width="469"/>
  <unicode hex="013B"/>
  <note>
Lcommaaccent
</note>
  <outline>
    <contour>
      <point x="181" y="700" type="line"/>
      <point x="32" y="0" type="line"/>
      <point x="407" y="0" type="line"/>
      <point x="422" y="70" type="line"/>
      <point x="125" y="70" type="line"/>
      <point x="259" y="700" type="line"/>
    </contour>
    <contour>
      <point x="261" y="-120" type="line"/>
      <point x="203" y="-77" type="line"/>
      <point x="115" y="-221" type="line"/>
      <point x="159" y="-252" type="line"/>
    </contour>
  </outline>
</glyph>
<glyph name="Lcaron" format="2">
  <advance width="470"/>
  <unicode hex="013D"/>
  <note>
Lcaron
</note>
  <outline>
    <contour>
      <point x="181" y="700" type="line"/>
      <point x="32" y="0" type="line"/>
      <point x="407" y="0" type="line"/>
      <point x="422" y="70" type="line"/>
      <point x="125" y="70" type="line"/>
      <point x="259" y="700" type="line"/>
    </contour>
    <contour>
      <point x="322" y="574" type="curve"/>
      <point x="358" y="556" type="line"/>
      <point x="358" y="556"/>
      <point x="412" y="598"/>
      <point x="419" y="635" type="curve" smooth="yes"/>
      <point x="425" y="660"/>
      <point x="432" y="700"/>
      <point x="432" y="700" type="curve"/>
      <point x="365" y="700" type="line"/>
      <point x="365" y="700"/>
      <point x="359" y="655"/>
      <point x="356" y="644" type="curve" smooth="yes"/>
      <point x="353" y="626"/>
      <point x="322" y="574"/>
    </contour>
  </outline>
</glyph>
<glyph name="lcaron" format="2">
	<advance width="260"/>
	<unicode hex="013E"/>
	<note>
		lcaron
	</note>
	<outline>
		<contour>
			<point x="113" y="104" type="curve" smooth="yes"/>
			<point x="245" y="730" type="line"/>
			<point x="172" y="730" type="line"/>
			<point x="39" y="101" type="line" smooth="yes"/>
			<point x="23" y="27"/>
			<point x="52" y="-12"/>
			<point x="134" y="-12" type="curve" smooth="yes"/>
			<point x="168" y="-12"/>
			<point x="193" y="-4"/>
			<point x="193" y="-4" type="curve"/>
			<point x="201" y="57" type="line"/>
			<point x="201" y="57"/>
			<point x="179" y="55"/>
			<point x="152" y="55" type="curve" smooth="yes"/>
			<point x="108" y="55"/>
			<point x="105" y="68"/>
		</contour>
		<contour>
			<point x="274" y="604" type="curve"/>
			<point x="310" y="586" type="line"/>
			<point x="310" y="586"/>
			<point x="364" y="628"/>
			<point x="371" y="665" type="curve" smooth="yes"/>
			<point x="377" y="690"/>
			<point x="384" y="730"/>
			<point x="384" y="730" type="curve"/>
			<point x="317" y="730" type="line"/>
			<point x="317" y="730"/>
			<point x="311" y="685"/>
			<point x="308" y="674" type="curve" smooth="yes"/>
			<point x="305" y="656"/>
			<point x="274" y="604"/>
		</contour>
	</outline>
</glyph>
<glyph name="Ldot" format="2">
  <advance width="473"/>
  <unicode hex="013F"/>
  <note>
Ldot
</note>
  <outline>
    <contour>
      <point x="181" y="700" type="line"/>
      <point x="32" y="0" type="line"/>
      <point x="407" y="0" type="line"/>
      <point x="422" y="70" type="line"/>
      <point x="125" y="70" type="line"/>
      <point x="259" y="700" type="line"/>
    </contour>
    <contour>
      <point x="438" y="426" type="line"/>
      <point x="356" y="426" type="line"/>
      <point x="334" y="322" type="line"/>
      <point x="416" y="322" type="line"/>
    </contour>
  </outline>
</glyph>
<glyph name="ldot" format="2">
	<advance width="262"/>
	<unicode hex="0140"/>
	<note>
		ldot
	</note>
	<outline>
		<contour>
			<point x="113" y="104" type="curve" smooth="yes"/>
			<point x="245" y="730" type="line"/>
			<point x="172" y="730" type="line"/>
			<point x="39" y="101" type="line" smooth="yes"/>
			<point x="23" y="27"/>
			<point x="52" y="-12"/>
			<point x="134" y="-12" type="curve" smooth="yes"/>
			<point x="168" y="-12"/>
			<point x="193" y="-4"/>
			<point x="193" y="-4" type="curve"/>
			<point x="201" y="57" type="line"/>
			<point x="201" y="57"/>
			<point x="179" y="55"/>
			<point x="152" y="55" type="curve" smooth="yes"/>
			<point x="108" y="55"/>
			<point x="105" y="68"/>
		</contour>
		<contour>
			<point x="325" y="426" type="line"/>
			<point x="243" y="426" type="line"/>
			<point x="221" y="322" type="line"/>
			<point x="303" y="322" type="line"/>
		</contour>
	</outline>
</glyph>
<glyph name="Lslash" format="2">
  <advance width="505"/>
  <unicode hex="0141"/>
  <note>
Lslash
</note>
  <outline>
    <contour>
      <point x="130" y="294" type="line"/>
      <point x="67" y="0" type="line"/>
      <point x="442" y="0" type="line"/>
      <point x="457" y="70" type="line"/>
      <point x="160" y="70" type="line"/>
      <point x="212" y="314" type="line"/>
      <point x="383" y="383" type="line"/>
      <point x="365" y="442" type="line"/>
      <point x="227" y="384" type="line"/>
      <point x="294" y="700" type="line"/>
      <point x="216" y="700" type="line"/>
      <point x="145" y="364" type="line"/>
      <point x="29" y="318" type="line"/>
      <point x="47" y="260" type="line"/>
    </contour>
  </outline>
</glyph>
